NotoSansGeorgian-Light.ufo
<glyph name="acutecomb" format="2">
  <unicode hex="0301"/>
  <anchor x="-20" y="528" name="_top"/>
  <anchor x="-20" y="766" name="top"/>
  <outline>
    <contour>
      <point x="84" y="766" type="line"/>
      <point x="54" y="766" type="line"/>
      <point x="25" y="723"/>
      <point x="-40" y="652"/>
      <point x="-85" y="612" type="curve"/>
      <point x="-85" y="606" type="line"/>
      <point x="-64" y="606" type="line"/>
      <point x="-11" y="650"/>
      <point x="49" y="714"/>
      <point x="84" y="759" type="curve"/>
    </contour>
  </outline>
</glyph>
<glyph name="circumflexcomb" format="2">
  <unicode hex="0302"/>
  <anchor x="0" y="528" name="_top"/>
  <anchor x="0" y="763" name="top"/>
  <outline>
    <contour>
      <point x="12" y="763" type="curve"/>
      <point x="-10" y="763" type="line"/>
      <point x="-34" y="722"/>
      <point x="-89" y="653"/>
      <point x="-126" y="612" type="curve"/>
      <point x="-126" y="606" type="line"/>
      <point x="-105" y="606" type="line"/>
      <point x="-68" y="643"/>
      <point x="-27" y="693"/>
      <point x="1" y="731" type="curve"/>
      <point x="29" y="693"/>
      <point x="68" y="643"/>
      <point x="105" y="606" type="curve"/>
      <point x="126" y="606" type="line"/>
      <point x="126" y="612" type="line"/>
      <point x="89" y="653"/>
      <point x="36" y="722"/>
    </contour>
  </outline>
</glyph>
<glyph name="macroncomb" format="2">
  <unicode hex="0304"/>
  <anchor x="1" y="528" name="_top"/>
  <anchor x="1" y="648" name="top"/>
  <outline>
    <contour>
      <point x="128" y="648" type="line"/>
      <point x="-127" y="648" type="line"/>
      <point x="-127" y="624" type="line"/>
      <point x="128" y="624" type="line"/>
    </contour>
  </outline>
</glyph>
<glyph name="dieresiscomb" format="2">
  <unicode hex="0308"/>
  <anchor x="0" y="528" name="_top"/>
  <anchor x="0" y="689" name="top"/>
  <outline>
    <contour>
      <point x="-117" y="658" type="curve" smooth="yes"/>
      <point x="-117" y="641"/>
      <point x="-112" y="627"/>
      <point x="-94" y="627" type="curve" smooth="yes"/>
      <point x="-72" y="627"/>
      <point x="-69" y="641"/>
      <point x="-69" y="658" type="curve" smooth="yes"/>
      <point x="-69" y="674"/>
      <point x="-72" y="689"/>
      <point x="-94" y="689" type="curve" smooth="yes"/>
      <point x="-112" y="689"/>
      <point x="-117" y="674"/>
    </contour>
    <contour>
      <point x="68" y="658" type="curve" smooth="yes"/>
      <point x="68" y="641"/>
      <point x="73" y="627"/>
      <point x="91" y="627" type="curve" smooth="yes"/>
      <point x="113" y="627"/>
      <point x="116" y="641"/>
      <point x="116" y="658" type="curve" smooth="yes"/>
      <point x="116" y="674"/>
      <point x="113" y="689"/>
      <point x="91" y="689" type="curve" smooth="yes"/>
      <point x="73" y="689"/>
      <point x="68" y="674"/>
    </contour>
  </outline>
</glyph>
<glyph name="period-arm" format="2">
  <advance width="193"/>
  <unicode hex="0589"/>
  <note>
uni0589
</note>
  <outline>
    <contour>
      <point x="71" y="23" type="curve" smooth="yes"/>
      <point x="71" y="6"/>
      <point x="76" y="-8"/>
      <point x="96" y="-8" type="curve" smooth="yes"/>
      <point x="120" y="-8"/>
      <point x="123" y="6"/>
      <point x="123" y="23" type="curve" smooth="yes"/>
      <point x="123" y="39"/>
      <point x="120" y="54"/>
      <point x="96" y="54" type="curve" smooth="yes"/>
      <point x="76" y="54"/>
      <point x="71" y="39"/>
    </contour>
    <contour>
      <point x="71" y="455" type="curve" smooth="yes"/>
      <point x="71" y="438"/>
      <point x="76" y="424"/>
      <point x="96" y="424" type="curve" smooth="yes"/>
      <point x="120" y="424"/>
      <point x="123" y="438"/>
      <point x="123" y="455" type="curve" smooth="yes"/>
      <point x="123" y="471"/>
      <point x="120" y="486"/>
      <point x="96" y="486" type="curve" smooth="yes"/>
      <point x="76" y="486"/>
      <point x="71" y="471"/>
    </contour>
  </outline>
</glyph>
<glyph name="An-oldgeorgian" format="2">
  <advance width="627"/>
  <unicode hex="10A0"/>
  <note>
uni10A0
</note>
  <outline>
    <contour>
      <point x="392" y="-10" type="curve" smooth="yes"/>
      <point x="471" y="-10"/>
      <point x="532" y="4"/>
      <point x="576" y="21" type="curve"/>
      <point x="576" y="44" type="line"/>
      <point x="528" y="27"/>
      <point x="469" y="15"/>
      <point x="392" y="15" type="curve" smooth="yes"/>
      <point x="208" y="15"/>
      <point x="91" y="138"/>
      <point x="91" y="346" type="curve" smooth="yes"/>
      <point x="91" y="543"/>
      <point x="202" y="689"/>
      <point x="440" y="689" type="curve" smooth="yes"/>
      <point x="576" y="689" type="line"/>
      <point x="576" y="714" type="line"/>
      <point x="80" y="714" type="line"/>
      <point x="80" y="691" type="line"/>
      <point x="297" y="691" type="line"/>
      <point x="297" y="689" type="line"/>
      <point x="154" y="648"/>
      <point x="64" y="528"/>
      <point x="64" y="346" type="curve" smooth="yes"/>
      <point x="64" y="126"/>
      <point x="188" y="-10"/>
    </contour>
  </outline>
</glyph>
<glyph name="Ban-oldgeorgian" format="2">
  <advance width="719"/>
  <unicode hex="10A1"/>
  <note>
uni10A1
</note>
  <outline>
    <contour>
      <point x="491" y="0" type="line"/>
      <point x="709" y="0" type="line"/>
      <point x="709" y="25" type="line"/>
      <point x="517" y="25" type="line"/>
      <point x="517" y="714" type="line"/>
      <point x="491" y="714" type="line"/>
      <point x="491" y="486" type="line" smooth="yes"/>
      <point x="491" y="309"/>
      <point x="396" y="244"/>
      <point x="281" y="244" type="curve" smooth="yes"/>
      <point x="158" y="244"/>
      <point x="86" y="333"/>
      <point x="86" y="457" type="curve" smooth="yes"/>
      <point x="86" y="572"/>
      <point x="116" y="646"/>
      <point x="165" y="714" type="curve"/>
      <point x="133" y="714" type="line"/>
      <point x="83" y="635"/>
      <point x="59" y="566"/>
      <point x="59" y="457" type="curve" smooth="yes"/>
      <point x="59" y="309"/>
      <point x="150" y="218"/>
      <point x="281" y="218" type="curve" smooth="yes"/>
      <point x="379" y="218"/>
      <point x="459" y="266"/>
      <point x="491" y="353" type="curve"/>
      <point x="493" y="353" type="line"/>
      <point x="492" y="329"/>
      <point x="491" y="274"/>
      <point x="491" y="233" type="curve" smooth="yes"/>
    </contour>
  </outline>
</glyph>
<glyph name="Gan-oldgeorgian" format="2">
  <advance width="698"/>
  <unicode hex="10A2"/>
  <note>
uni10A2
</note>
  <outline>
    <contour>
      <point x="470" y="0" type="line"/>
      <point x="688" y="0" type="line"/>
      <point x="688" y="25" type="line"/>
      <point x="496" y="25" type="line"/>
      <point x="496" y="714" type="line"/>
      <point x="86" y="714" type="line"/>
      <point x="86" y="407" type="line"/>
      <point x="112" y="407" type="line"/>
      <point x="112" y="688" type="line"/>
      <point x="470" y="688" type="line"/>
    </contour>
  </outline>
</glyph>
<glyph name="Don-oldgeorgian" format="2">
  <advance width="749"/>
  <unicode hex="10A3"/>
  <note>
uni10A3
</note>
  <outline>
    <contour>
      <point x="371" y="-10" type="curve" smooth="yes"/>
      <point x="566" y="-10"/>
      <point x="685" y="105"/>
      <point x="685" y="283" type="curve" smooth="yes"/>
      <point x="685" y="452"/>
      <point x="564" y="569"/>
      <point x="390" y="573" type="curve"/>
      <point x="390" y="689" type="line"/>
      <point x="638" y="689" type="line"/>
      <point x="638" y="714" type="line"/>
      <point x="111" y="714" type="line"/>
      <point x="111" y="689" type="line"/>
      <point x="363" y="689" type="line"/>
      <point x="363" y="573" type="line"/>
      <point x="194" y="566"/>
      <point x="64" y="452"/>
      <point x="64" y="282" type="curve" smooth="yes"/>
      <point x="64" y="112"/>
      <point x="176" y="-10"/>
    </contour>
    <contour>
      <point x="371" y="16" type="curve" smooth="yes"/>
      <point x="204" y="16"/>
      <point x="91" y="114"/>
      <point x="91" y="282" type="curve" smooth="yes"/>
      <point x="91" y="446"/>
      <point x="216" y="549"/>
      <point x="378" y="549" type="curve" smooth="yes"/>
      <point x="540" y="549"/>
      <point x="658" y="446"/>
      <point x="658" y="282" type="curve" smooth="yes"/>
      <point x="658" y="115"/>
      <point x="543" y="16"/>
    </contour>
  </outline>
</glyph>
<glyph name="En-oldgeorgian" format="2">
  <advance width="599"/>
  <unicode hex="10A4"/>
  <note>
uni10A4
</note>
  <outline>
    <contour>
      <point x="470" y="0" type="line"/>
      <point x="496" y="0" type="line"/>
      <point x="496" y="714" type="line"/>
      <point x="86" y="714" type="line"/>
      <point x="86" y="407" type="line"/>
      <point x="112" y="407" type="line"/>
      <point x="112" y="688" type="line"/>
      <point x="470" y="688" type="line"/>
    </contour>
  </outline>
</glyph>
<glyph name="Vin-oldgeorgian" format="2">
  <advance width="776"/>
  <unicode hex="10A5"/>
  <note>
uni10A5
</note>
  <outline>
    <contour>
      <point x="470" y="0" type="line"/>
      <point x="496" y="0" type="line"/>
      <point x="496" y="368" type="line"/>
      <point x="698" y="368" type="line"/>
      <point x="698" y="185" type="line"/>
      <point x="724" y="185" type="line"/>
      <point x="724" y="393" type="line"/>
      <point x="496" y="393" type="line"/>
      <point x="496" y="714" type="line"/>
      <point x="86" y="714" type="line"/>
      <point x="86" y="407" type="line"/>
      <point x="112" y="407" type="line"/>
      <point x="112" y="688" type="line"/>
      <point x="470" y="688" type="line"/>
    </contour>
  </outline>
</glyph>
<glyph name="Zen-oldgeorgian" format="2">
  <advance width="784"/>
  <unicode hex="10A6"/>
  <note>
uni10A6
</note>
  <outline>
    <contour>
      <point x="463" y="-10" type="curve" smooth="yes"/>
      <point x="621" y="-10"/>
      <point x="725" y="99"/>
      <point x="725" y="264" type="curve" smooth="yes"/>
      <point x="725" y="413"/>
      <point x="641" y="536"/>
      <point x="486" y="536" type="curve" smooth="yes"/>
      <point x="373" y="536"/>
      <point x="294" y="480"/>
      <point x="250" y="384" type="curve"/>
      <point x="246" y="384" type="line"/>
      <point x="247" y="406"/>
      <point x="249" y="473"/>
      <point x="249" y="519" type="curve" smooth="yes"/>
      <point x="249" y="714" type="line"/>
      <point x="10" y="714" type="line"/>
      <point x="10" y="689" type="line"/>
      <point x="223" y="689" type="line"/>
      <point x="223" y="260" type="line" smooth="yes"/>
      <point x="223" y="95"/>
      <point x="305" y="-10"/>
    </contour>
    <contour>
      <point x="463" y="16" type="curve" smooth="yes"/>
      <point x="320" y="16"/>
      <point x="249" y="114"/>
      <point x="249" y="260" type="curve" smooth="yes"/>
      <point x="249" y="400"/>
      <point x="336" y="510"/>
      <point x="485" y="510" type="curve" smooth="yes"/>
      <point x="614" y="510"/>
      <point x="698" y="412"/>
      <point x="698" y="264" type="curve" smooth="yes"/>
      <point x="698" y="115"/>
      <point x="606" y="16"/>
    </contour>
  </outline>
</glyph>
<glyph name="Tan-oldgeorgian" format="2">
  <advance width="869"/>
  <unicode hex="10A7"/>
  <note>
uni10A7
</note>
  <outline>
    <contour>
      <point x="589" y="393" type="line"/>
      <point x="589" y="714" type="line"/>
      <point x="447" y="714" type="line" smooth="yes"/>
      <point x="197" y="714"/>
      <point x="64" y="591"/>
      <point x="64" y="352" type="curve" smooth="yes"/>
      <point x="64" y="125"/>
      <point x="188" y="0"/>
      <point x="424" y="0" type="curve" smooth="yes"/>
      <point x="589" y="0" type="line"/>
      <point x="589" y="368" type="line"/>
      <point x="791" y="368" type="line"/>
      <point x="791" y="185" type="line"/>
      <point x="817" y="185" type="line"/>
      <point x="817" y="393" type="line"/>
    </contour>
    <contour>
      <point x="563" y="25" type="line"/>
      <point x="434" y="25" type="line" smooth="yes"/>
      <point x="202" y="25"/>
      <point x="91" y="141"/>
      <point x="91" y="353" type="curve" smooth="yes"/>
      <point x="91" y="580"/>
      <point x="215" y="689"/>
      <point x="444" y="689" type="curve" smooth="yes"/>
      <point x="563" y="689" type="line"/>
    </contour>
  </outline>
</glyph>
<glyph name="In-oldgeorgian" format="2">
  <advance width="439"/>
  <unicode hex="10A8"/>
  <note>
uni10A8
</note>
  <outline>
    <contour>
      <point x="310" y="0" type="line"/>
      <point x="336" y="0" type="line"/>
      <point x="336" y="714" type="line"/>
      <point x="10" y="714" type="line"/>
      <point x="10" y="689" type="line"/>
      <point x="310" y="689" type="line"/>
    </contour>
  </outline>
</glyph>
<glyph name="Kan-oldgeorgian" format="2">
  <advance width="697"/>
  <unicode hex="10A9"/>
  <note>
uni10A9
</note>
  <outline>
    <contour>
      <point x="577" y="0" type="line"/>
      <point x="603" y="0" type="line"/>
      <point x="603" y="356" type="line" smooth="yes"/>
      <point x="603" y="495"/>
      <point x="520" y="616"/>
      <point x="356" y="616" type="curve" smooth="yes"/>
      <point x="264" y="616"/>
      <point x="172" y="572"/>
      <point x="122" y="468" type="curve"/>
      <point x="118" y="468" type="line"/>
      <point x="119" y="497"/>
      <point x="121" y="527"/>
      <point x="121" y="560" type="curve" smooth="yes"/>
      <point x="121" y="714" type="line"/>
      <point x="95" y="714" type="line"/>
      <point x="95" y="362" type="line" smooth="yes"/>
      <point x="95" y="214"/>
      <point x="190" y="102"/>
      <point x="356" y="102" type="curve" smooth="yes"/>
      <point x="448" y="102"/>
      <point x="535" y="147"/>
      <point x="575" y="237" type="curve"/>
      <point x="580" y="237" type="line"/>
      <point x="579" y="215"/>
      <point x="577" y="169"/>
      <point x="577" y="146" type="curve" smooth="yes"/>
    </contour>
    <contour>
      <point x="356" y="128" type="curve" smooth="yes"/>
      <point x="216" y="128"/>
      <point x="121" y="215"/>
      <point x="121" y="363" type="curve" smooth="yes"/>
      <point x="121" y="483"/>
      <point x="216" y="590"/>
      <point x="356" y="590" type="curve" smooth="yes"/>
      <point x="485" y="590"/>
      <point x="577" y="499"/>
      <point x="577" y="356" type="curve" smooth="yes"/>
      <point x="577" y="219"/>
      <point x="484" y="128"/>
    </contour>
  </outline>
</glyph>
<glyph name="Las-oldgeorgian" format="2">
  <advance width="991"/>
  <unicode hex="10AA"/>
  <note>
uni10AA
</note>
  <outline>
    <contour>
      <point x="670" y="-10" type="curve" smooth="yes"/>
      <point x="828" y="-10"/>
      <point x="932" y="99"/>
      <point x="932" y="264" type="curve" smooth="yes"/>
      <point x="932" y="413"/>
      <point x="848" y="536"/>
      <point x="693" y="536" type="curve" smooth="yes"/>
      <point x="580" y="536"/>
      <point x="501" y="480"/>
      <point x="457" y="384" type="curve"/>
      <point x="453" y="384" type="line"/>
      <point x="454" y="406"/>
      <point x="456" y="473"/>
      <point x="456" y="519" type="curve" smooth="yes"/>
      <point x="456" y="714" type="line"/>
      <point x="86" y="714" type="line"/>
      <point x="86" y="407" type="line"/>
      <point x="112" y="407" type="line"/>
      <point x="112" y="688" type="line"/>
      <point x="430" y="688" type="line"/>
      <point x="430" y="260" type="line" smooth="yes"/>
      <point x="430" y="95"/>
      <point x="512" y="-10"/>
    </contour>
    <contour>
      <point x="670" y="16" type="curve" smooth="yes"/>
      <point x="527" y="16"/>
      <point x="456" y="114"/>
      <point x="456" y="260" type="curve" smooth="yes"/>
      <point x="456" y="400"/>
      <point x="543" y="510"/>
      <point x="692" y="510" type="curve" smooth="yes"/>
      <point x="821" y="510"/>
      <point x="905" y="412"/>
      <point x="905" y="264" type="curve" smooth="yes"/>
      <point x="905" y="115"/>
      <point x="813" y="16"/>
    </contour>
  </outline>
</glyph>
<glyph name="Man-oldgeorgian" format="2">
  <advance width="757"/>
  <unicode hex="10AB"/>
  <note>
uni10AB
</note>
  <outline>
    <contour>
      <point x="300" y="-10" type="curve" smooth="yes"/>
      <point x="465" y="-10"/>
      <point x="543" y="87"/>
      <point x="543" y="272" type="curve" smooth="yes"/>
      <point x="543" y="428" type="line"/>
      <point x="705" y="428" type="line"/>
      <point x="705" y="453" type="line"/>
      <point x="543" y="453" type="line"/>
      <point x="543" y="714" type="line"/>
      <point x="107" y="714" type="line"/>
      <point x="107" y="689" type="line"/>
      <point x="517" y="689" type="line"/>
      <point x="517" y="453" type="line"/>
      <point x="329" y="453" type="line" smooth="yes"/>
      <point x="159" y="453"/>
      <point x="64" y="383"/>
      <point x="64" y="226" type="curve" smooth="yes"/>
      <point x="64" y="89"/>
      <point x="145" y="-10"/>
    </contour>
    <contour>
      <point x="300" y="15" type="curve" smooth="yes"/>
      <point x="166" y="15"/>
      <point x="91" y="101"/>
      <point x="91" y="226" type="curve" smooth="yes"/>
      <point x="91" y="371"/>
      <point x="179" y="428"/>
      <point x="329" y="428" type="curve" smooth="yes"/>
      <point x="517" y="428" type="line"/>
      <point x="517" y="272" type="line" smooth="yes"/>
      <point x="517" y="102"/>
      <point x="444" y="15"/>
    </contour>
  </outline>
</glyph>
<glyph name="Nar-oldgeorgian" format="2">
  <advance width="660"/>
  <unicode hex="10AC"/>
  <note>
uni10AC
</note>
  <outline>
    <contour>
      <point x="103" y="0" type="line"/>
      <point x="129" y="0" type="line"/>
      <point x="129" y="224" type="line" smooth="yes"/>
      <point x="129" y="378"/>
      <point x="212" y="456"/>
      <point x="337" y="456" type="curve" smooth="yes"/>
      <point x="457" y="456"/>
      <point x="536" y="388"/>
      <point x="536" y="224" type="curve" smooth="yes"/>
      <point x="536" y="0" type="line"/>
      <point x="562" y="0" type="line"/>
      <point x="562" y="225" type="line" smooth="yes"/>
      <point x="562" y="420"/>
      <point x="457" y="482"/>
      <point x="339" y="482" type="curve" smooth="yes"/>
      <point x="216" y="482"/>
      <point x="159" y="417"/>
      <point x="129" y="351" type="curve"/>
      <point x="126" y="351" type="line"/>
      <point x="128" y="380"/>
      <point x="129" y="430"/>
      <point x="129" y="447" type="curve" smooth="yes"/>
      <point x="129" y="689" type="line"/>
      <point x="533" y="689" type="line"/>
      <point x="533" y="714" type="line"/>
      <point x="103" y="714" type="line"/>
    </contour>
  </outline>
</glyph>
<glyph name="On-oldgeorgian" format="2">
  <advance width="806"/>
  <unicode hex="10AD"/>
  <note>
uni10AD
</note>
  <outline>
    <contour>
      <point x="377" y="-10" type="curve" smooth="yes"/>
      <point x="457" y="-10"/>
      <point x="522" y="12"/>
      <point x="571" y="51" type="curve"/>
      <point x="603" y="13"/>
      <point x="638" y="-10"/>
      <point x="691" y="-10" type="curve" smooth="yes"/>
      <point x="762" y="-10"/>
      <point x="796" y="47"/>
      <point x="796" y="113" type="curve"/>
      <point x="769" y="113" type="line"/>
      <point x="769" y="60"/>
      <point x="739" y="12"/>
      <point x="691" y="12" type="curve" smooth="yes"/>
      <point x="648" y="12"/>
      <point x="616" y="34"/>
      <point x="589" y="67" type="curve"/>
      <point x="657" y="132"/>
      <point x="691" y="235"/>
      <point x="691" y="358" type="curve" smooth="yes"/>
      <point x="691" y="590"/>
      <point x="580" y="724"/>
      <point x="383" y="724" type="curve" smooth="yes"/>
      <point x="178" y="724"/>
      <point x="64" y="574"/>
      <point x="64" y="359" type="curve" smooth="yes"/>
      <point x="64" y="143"/>
      <point x="169" y="-10"/>
    </contour>
    <contour>
      <point x="378" y="15" type="curve" smooth="yes"/>
      <point x="183" y="15"/>
      <point x="91" y="159"/>
      <point x="91" y="359" type="curve" smooth="yes"/>
      <point x="91" y="556"/>
      <point x="187" y="699"/>
      <point x="383" y="699" type="curve" smooth="yes"/>
      <point x="563" y="699"/>
      <point x="664" y="575"/>
      <point x="664" y="358" type="curve" smooth="yes"/>
      <point x="664" y="156"/>
      <point x="574" y="15"/>
    </contour>
  </outline>
</glyph>
<glyph name="Par-oldgeorgian" format="2">
  <advance width="844"/>
  <unicode hex="10AE"/>
  <note>
uni10AE
</note>
  <outline>
    <contour>
      <point x="483" y="-10" type="curve" smooth="yes"/>
      <point x="638" y="-10"/>
      <point x="746" y="74"/>
      <point x="746" y="252" type="curve" smooth="yes"/>
      <point x="746" y="714" type="line"/>
      <point x="720" y="714" type="line"/>
      <point x="720" y="244" type="line" smooth="yes"/>
      <point x="720" y="92"/>
      <point x="626" y="15"/>
      <point x="484" y="15" type="curve" smooth="yes"/>
      <point x="335" y="15"/>
      <point x="249" y="96"/>
      <point x="249" y="256" type="curve" smooth="yes"/>
      <point x="249" y="714" type="line"/>
      <point x="10" y="714" type="line"/>
      <point x="10" y="689" type="line"/>
      <point x="223" y="689" type="line"/>
      <point x="223" y="254" type="line" smooth="yes"/>
      <point x="223" y="81"/>
      <point x="318" y="-10"/>
    </contour>
  </outline>
</glyph>
<glyph name="Zhar-oldgeorgian" format="2">
  <advance width="685"/>
  <unicode hex="10AF"/>
  <note>
uni10AF
</note>
  <outline>
    <contour>
      <point x="556" y="0" type="line"/>
      <point x="582" y="0" type="line"/>
      <point x="582" y="714" type="line"/>
      <point x="556" y="714" type="line"/>
      <point x="556" y="486" type="line" smooth="yes"/>
      <point x="556" y="313"/>
      <point x="454" y="248"/>
      <point x="344" y="248" type="curve" smooth="yes"/>
      <point x="235" y="248"/>
      <point x="155" y="317"/>
      <point x="155" y="467" type="curve" smooth="yes"/>
      <point x="155" y="568"/>
      <point x="195" y="634"/>
      <point x="279" y="686" type="curve"/>
      <point x="279" y="714" type="line"/>
      <point x="15" y="714" type="line"/>
      <point x="15" y="689" type="line"/>
      <point x="243" y="689" type="line"/>
      <point x="243" y="687" type="line"/>
      <point x="174" y="644"/>
      <point x="128" y="570"/>
      <point x="128" y="467" type="curve" smooth="yes"/>
      <point x="128" y="303"/>
      <point x="218" y="221"/>
      <point x="344" y="221" type="curve" smooth="yes"/>
      <point x="437" y="221"/>
      <point x="520" y="270"/>
      <point x="554" y="353" type="curve"/>
      <point x="559" y="353" type="line"/>
      <point x="558" y="333"/>
      <point x="556" y="293"/>
      <point x="556" y="248" type="curve" smooth="yes"/>
    </contour>
  </outline>
</glyph>
<glyph name="Rae-oldgeorgian" format="2">
  <advance width="881"/>
  <unicode hex="10B0"/>
  <note>
uni10B0
</note>
  <outline>
    <contour>
      <point x="277" y="-10" type="curve" smooth="yes"/>
      <point x="430" y="-10"/>
      <point x="498" y="93"/>
      <point x="498" y="250" type="curve" smooth="yes"/>
      <point x="498" y="310" type="line" smooth="yes"/>
      <point x="498" y="444"/>
      <point x="581" y="513"/>
      <point x="660" y="513" type="curve" smooth="yes"/>
      <point x="755" y="513"/>
      <point x="802" y="438"/>
      <point x="802" y="355" type="curve" smooth="yes"/>
      <point x="802" y="316"/>
      <point x="791" y="275"/>
      <point x="771" y="242" type="curve"/>
      <point x="793" y="232" type="line"/>
      <point x="817" y="269"/>
      <point x="829" y="313"/>
      <point x="829" y="356" type="curve" smooth="yes"/>
      <point x="829" y="450"/>
      <point x="772" y="538"/>
      <point x="660" y="538" type="curve" smooth="yes"/>
      <point x="580" y="538"/>
      <point x="526" y="489"/>
      <point x="498" y="417" type="curve"/>
      <point x="495" y="417" type="line"/>
      <point x="497" y="446"/>
      <point x="498" y="496"/>
      <point x="498" y="513" type="curve" smooth="yes"/>
      <point x="498" y="714" type="line"/>
      <point x="472" y="714" type="line"/>
      <point x="472" y="250" type="line" smooth="yes"/>
      <point x="472" y="98"/>
      <point x="403" y="16"/>
      <point x="277" y="16" type="curve" smooth="yes"/>
      <point x="156" y="16"/>
      <point x="85" y="99"/>
      <point x="85" y="219" type="curve" smooth="yes"/>
      <point x="85" y="267"/>
      <point x="99" y="319"/>
      <point x="128" y="367" type="curve"/>
      <point x="107" y="377" type="line"/>
      <point x="74" y="326"/>
      <point x="59" y="271"/>
      <point x="59" y="218" type="curve" smooth="yes"/>
      <point x="59" y="87"/>
      <point x="140" y="-10"/>
    </contour>
  </outline>
</glyph>
<glyph name="San-oldgeorgian" format="2">
  <advance width="596"/>
  <unicode hex="10B1"/>
  <note>
uni10B1
</note>
  <outline>
    <contour>
      <point x="319" y="-10" type="curve" smooth="yes"/>
      <point x="456" y="-10"/>
      <point x="537" y="87"/>
      <point x="537" y="218" type="curve" smooth="yes"/>
      <point x="537" y="271"/>
      <point x="522" y="326"/>
      <point x="489" y="377" type="curve"/>
      <point x="468" y="367" type="line"/>
      <point x="497" y="319"/>
      <point x="511" y="267"/>
      <point x="511" y="219" type="curve" smooth="yes"/>
      <point x="511" y="99"/>
      <point x="440" y="16"/>
      <point x="319" y="16" type="curve" smooth="yes"/>
      <point x="193" y="16"/>
      <point x="124" y="98"/>
      <point x="124" y="250" type="curve" smooth="yes"/>
      <point x="124" y="714" type="line"/>
      <point x="98" y="714" type="line"/>
      <point x="98" y="250" type="line"/>
      <point x="98" y="93"/>
      <point x="166" y="-10"/>
    </contour>
  </outline>
</glyph>
<glyph name="Tar-oldgeorgian" format="2">
  <advance width="580"/>
  <unicode hex="10B2"/>
  <note>
uni10B2
</note>
  <outline>
    <contour>
      <point x="103" y="0" type="line"/>
      <point x="502" y="0" type="line"/>
      <point x="502" y="25" type="line"/>
      <point x="129" y="25" type="line"/>
      <point x="129" y="305" type="line"/>
      <point x="256" y="305" type="line" smooth="yes"/>
      <point x="414" y="305"/>
      <point x="516" y="364"/>
      <point x="516" y="519" type="curve" smooth="yes"/>
      <point x="516" y="658"/>
      <point x="429" y="714"/>
      <point x="270" y="714" type="curve" smooth="yes"/>
      <point x="103" y="714" type="line"/>
    </contour>
    <contour>
      <point x="129" y="330" type="line"/>
      <point x="129" y="689" type="line"/>
      <point x="266" y="689" type="line" smooth="yes"/>
      <point x="418" y="689"/>
      <point x="489" y="639"/>
      <point x="489" y="518" type="curve" smooth="yes"/>
      <point x="489" y="372"/>
      <point x="394" y="330"/>
      <point x="254" y="330" type="curve" smooth="yes"/>
    </contour>
  </outline>
</glyph>
<glyph name="Un-oldgeorgian" format="2">
  <advance width="754"/>
  <unicode hex="10B3"/>
  <note>
uni10B3
</note>
  <outline>
    <contour>
      <point x="602" y="-150" type="curve" smooth="yes"/>
      <point x="681" y="-150"/>
      <point x="734" y="-102"/>
      <point x="734" y="-21" type="curve" smooth="yes"/>
      <point x="734" y="55"/>
      <point x="673" y="95"/>
      <point x="624" y="108" type="curve"/>
      <point x="668" y="172"/>
      <point x="691" y="257"/>
      <point x="691" y="358" type="curve" smooth="yes"/>
      <point x="691" y="590"/>
      <point x="580" y="725"/>
      <point x="383" y="725" type="curve" smooth="yes"/>
      <point x="178" y="725"/>
      <point x="64" y="574"/>
      <point x="64" y="359" type="curve" smooth="yes"/>
      <point x="64" y="143"/>
      <point x="169" y="-10"/>
      <point x="377" y="-10" type="curve" smooth="yes"/>
      <point x="479" y="-10"/>
      <point x="557" y="26"/>
      <point x="609" y="88" type="curve"/>
      <point x="662" y="74"/>
      <point x="707" y="35"/>
      <point x="707" y="-22" type="curve" smooth="yes"/>
      <point x="707" y="-80"/>
      <point x="674" y="-124"/>
      <point x="602" y="-124" type="curve" smooth="yes"/>
      <point x="589" y="-124"/>
      <point x="575" y="-123"/>
      <point x="566" y="-122" type="curve"/>
      <point x="566" y="-147" type="line"/>
      <point x="574" y="-149"/>
      <point x="591" y="-150"/>
    </contour>
    <contour>
      <point x="378" y="15" type="curve" smooth="yes"/>
      <point x="183" y="15"/>
      <point x="91" y="159"/>
      <point x="91" y="359" type="curve" smooth="yes"/>
      <point x="91" y="556"/>
      <point x="187" y="700"/>
      <point x="383" y="700" type="curve" smooth="yes"/>
      <point x="563" y="700"/>
      <point x="664" y="575"/>
      <point x="664" y="358" type="curve" smooth="yes"/>
      <point x="664" y="156"/>
      <point x="574" y="15"/>
    </contour>
  </outline>
</glyph>
<glyph name="Phar-oldgeorgian" format="2">
  <advance width="756"/>
  <unicode hex="10B4"/>
  <note>
uni10B4
</note>
  <outline>
    <contour>
      <point x="365" y="0" type="line"/>
      <point x="391" y="0" type="line"/>
      <point x="391" y="186" type="line"/>
      <point x="570" y="191"/>
      <point x="692" y="276"/>
      <point x="692" y="465" type="curve" smooth="yes"/>
      <point x="692" y="655"/>
      <point x="546" y="725"/>
      <point x="378" y="725" type="curve" smooth="yes"/>
      <point x="202" y="725"/>
      <point x="64" y="639"/>
      <point x="64" y="459" type="curve" smooth="yes"/>
      <point x="64" y="272"/>
      <point x="190" y="189"/>
      <point x="365" y="186" type="curve"/>
    </contour>
    <contour>
      <point x="365" y="211" type="line"/>
      <point x="196" y="216"/>
      <point x="91" y="289"/>
      <point x="91" y="459" type="curve" smooth="yes"/>
      <point x="91" y="623"/>
      <point x="214" y="695"/>
      <point x="365" y="700" type="curve"/>
    </contour>
    <contour>
      <point x="391" y="211" type="curve"/>
      <point x="391" y="700" type="line"/>
      <point x="547" y="695"/>
      <point x="665" y="630"/>
      <point x="665" y="465" type="curve" smooth="yes"/>
      <point x="665" y="292"/>
      <point x="558" y="216"/>
    </contour>
  </outline>
</glyph>
<glyph name="Khar-oldgeorgian" format="2">
  <advance width="590"/>
  <unicode hex="10B5"/>
  <note>
uni10B5
</note>
  <outline>
    <contour>
      <point x="277" y="0" type="line"/>
      <point x="303" y="0" type="line"/>
      <point x="303" y="428" type="line"/>
      <point x="526" y="428" type="line"/>
      <point x="526" y="453" type="line"/>
      <point x="303" y="453" type="line"/>
      <point x="303" y="714" type="line"/>
      <point x="277" y="714" type="line"/>
      <point x="277" y="453" type="line"/>
      <point x="54" y="453" type="line"/>
      <point x="54" y="428" type="line"/>
      <point x="277" y="428" type="line"/>
    </contour>
  </outline>
</glyph>
<glyph name="Ghan-oldgeorgian" format="2">
  <advance width="719"/>
  <unicode hex="10B6"/>
  <note>
uni10B6
</note>
  <outline>
    <contour>
      <point x="98" y="0" type="line"/>
      <point x="124" y="0" type="line"/>
      <point x="124" y="462" type="line" smooth="yes"/>
      <point x="124" y="623"/>
      <point x="218" y="699"/>
      <point x="360" y="699" type="curve" smooth="yes"/>
      <point x="509" y="699"/>
      <point x="595" y="620"/>
      <point x="595" y="459" type="curve" smooth="yes"/>
      <point x="595" y="0" type="line"/>
      <point x="621" y="0" type="line"/>
      <point x="621" y="460" type="line" smooth="yes"/>
      <point x="621" y="633"/>
      <point x="526" y="724"/>
      <point x="361" y="724" type="curve" smooth="yes"/>
      <point x="206" y="724"/>
      <point x="98" y="640"/>
      <point x="98" y="462" type="curve" smooth="yes"/>
    </contour>
  </outline>
</glyph>
<glyph name="Shin-oldgeorgian" format="2">
  <advance width="650"/>
  <unicode hex="10B8"/>
  <note>
uni10B8
</note>
  <outline>
    <contour>
      <point x="325" y="-10" type="curve" smooth="yes"/>
      <point x="457" y="-10"/>
      <point x="547" y="86"/>
      <point x="547" y="230" type="curve" smooth="yes"/>
      <point x="547" y="714" type="line"/>
      <point x="521" y="714" type="line"/>
      <point x="521" y="584" type="line" smooth="yes"/>
      <point x="521" y="433"/>
      <point x="441" y="352"/>
      <point x="314" y="352" type="curve" smooth="yes"/>
      <point x="193" y="352"/>
      <point x="124" y="423"/>
      <point x="124" y="565" type="curve" smooth="yes"/>
      <point x="124" y="714" type="line"/>
      <point x="98" y="714" type="line"/>
      <point x="98" y="565" type="line" smooth="yes"/>
      <point x="98" y="408"/>
      <point x="176" y="326"/>
      <point x="314" y="326" type="curve" smooth="yes"/>
      <point x="397" y="326"/>
      <point x="476" y="358"/>
      <point x="521" y="457" type="curve"/>
      <point x="524" y="457" type="line"/>
      <point x="522" y="427"/>
      <point x="521" y="362"/>
      <point x="521" y="348" type="curve" smooth="yes"/>
      <point x="521" y="230" type="line" smooth="yes"/>
      <point x="521" y="113"/>
      <point x="448" y="16"/>
      <point x="325" y="16" type="curve" smooth="yes"/>
      <point x="216" y="16"/>
      <point x="134" y="86"/>
      <point x="134" y="187" type="curve" smooth="yes"/>
      <point x="134" y="211"/>
      <point x="137" y="233"/>
      <point x="145" y="257" type="curve"/>
      <point x="122" y="264" type="line"/>
      <point x="113" y="239"/>
      <point x="107" y="213"/>
      <point x="107" y="186" type="curve" smooth="yes"/>
      <point x="107" y="72"/>
      <point x="200" y="-10"/>
    </contour>
  </outline>
</glyph>
<glyph name="Chin-oldgeorgian" format="2">
  <advance width="635"/>
  <unicode hex="10B9"/>
  <note>
uni10B9
</note>
  <outline>
    <contour>
      <point x="103" y="0" type="line"/>
      <point x="129" y="0" type="line"/>
      <point x="129" y="406" type="line"/>
      <point x="516" y="406" type="line"/>
      <point x="516" y="0" type="line"/>
      <point x="542" y="0" type="line"/>
      <point x="542" y="432" type="line"/>
      <point x="129" y="432" type="line"/>
      <point x="129" y="714" type="line"/>
      <point x="103" y="714" type="line"/>
    </contour>
  </outline>
</glyph>
<glyph name="Can-oldgeorgian" format="2">
  <advance width="694"/>
  <unicode hex="10BA"/>
  <note>
uni10BA
</note>
  <outline>
    <contour>
      <point x="360" y="-10" type="curve" smooth="yes"/>
      <point x="454" y="-10"/>
      <point x="526" y="21"/>
      <point x="587" y="56" type="curve"/>
      <point x="587" y="0" type="line"/>
      <point x="613" y="0" type="line"/>
      <point x="613" y="295" type="line"/>
      <point x="587" y="295" type="line"/>
      <point x="587" y="85" type="line"/>
      <point x="526" y="46"/>
      <point x="443" y="15"/>
      <point x="361" y="15" type="curve" smooth="yes"/>
      <point x="195" y="15"/>
      <point x="90" y="151"/>
      <point x="90" y="358" type="curve" smooth="yes"/>
      <point x="90" y="565"/>
      <point x="204" y="699"/>
      <point x="376" y="699" type="curve" smooth="yes"/>
      <point x="435" y="699"/>
      <point x="497" y="686"/>
      <point x="547" y="663" type="curve"/>
      <point x="559" y="688" type="line"/>
      <point x="504" y="713"/>
      <point x="448" y="724"/>
      <point x="376" y="724" type="curve" smooth="yes"/>
      <point x="184" y="724"/>
      <point x="63" y="572"/>
      <point x="63" y="358" type="curve" smooth="yes"/>
      <point x="63" y="133"/>
      <point x="181" y="-10"/>
    </contour>
  </outline>
</glyph>
<glyph name="Jil-oldgeorgian" format="2">
  <advance width="859"/>
  <unicode hex="10BB"/>
  <outline>
    <contour>
      <point x="290" y="-10" type="curve" smooth="yes"/>
      <point x="435" y="-10"/>
      <point x="513" y="87"/>
      <point x="513" y="242" type="curve" smooth="yes"/>
      <point x="513" y="428" type="line"/>
      <point x="740" y="428" type="line"/>
      <point x="740" y="0" type="line"/>
      <point x="766" y="0" type="line"/>
      <point x="766" y="453" type="line"/>
      <point x="513" y="453" type="line"/>
      <point x="513" y="714" type="line"/>
      <point x="487" y="714" type="line"/>
      <point x="487" y="453" type="line"/>
      <point x="309" y="453" type="line" smooth="yes"/>
      <point x="149" y="453"/>
      <point x="64" y="363"/>
      <point x="64" y="226" type="curve" smooth="yes"/>
      <point x="64" y="89"/>
      <point x="145" y="-10"/>
    </contour>
    <contour>
      <point x="290" y="15" type="curve" smooth="yes"/>
      <point x="166" y="15"/>
      <point x="91" y="101"/>
      <point x="91" y="226" type="curve" smooth="yes"/>
      <point x="91" y="351"/>
      <point x="169" y="428"/>
      <point x="309" y="428" type="curve" smooth="yes"/>
      <point x="487" y="428" type="line"/>
      <point x="487" y="242" type="line" smooth="yes"/>
      <point x="487" y="102"/>
      <point x="414" y="15"/>
    </contour>
  </outline>
</glyph>
<glyph name="Cil-oldgeorgian" format="2">
  <advance width="573"/>
  <unicode hex="10BC"/>
  <note>
uni10BC
</note>
  <outline>
    <contour>
      <point x="103" y="0" type="line"/>
      <point x="129" y="0" type="line"/>
      <point x="129" y="174" type="line"/>
      <point x="313" y="174" type="line"/>
      <point x="313" y="50" type="line"/>
      <point x="339" y="50" type="line"/>
      <point x="339" y="199" type="line"/>
      <point x="129" y="199" type="line"/>
      <point x="129" y="305" type="line"/>
      <point x="256" y="305" type="line" smooth="yes"/>
      <point x="414" y="305"/>
      <point x="516" y="364"/>
      <point x="516" y="519" type="curve" smooth="yes"/>
      <point x="516" y="658"/>
      <point x="429" y="714"/>
      <point x="270" y="714" type="curve" smooth="yes"/>
      <point x="103" y="714" type="line"/>
    </contour>
    <contour>
      <point x="129" y="330" type="line"/>
      <point x="129" y="689" type="line"/>
      <point x="266" y="689" type="line" smooth="yes"/>
      <point x="418" y="689"/>
      <point x="489" y="639"/>
      <point x="489" y="518" type="curve" smooth="yes"/>
      <point x="489" y="372"/>
      <point x="394" y="330"/>
      <point x="254" y="330" type="curve" smooth="yes"/>
    </contour>
  </outline>
</glyph>
<glyph name="Char-oldgeorgian" format="2">
  <advance width="569"/>
  <unicode hex="10BD"/>
  <note>
uni10BD
</note>
  <outline>
    <contour>
      <point x="287" y="-10" type="curve" smooth="yes"/>
      <point x="427" y="-10"/>
      <point x="499" y="63"/>
      <point x="499" y="175" type="curve" smooth="yes"/>
      <point x="499" y="289"/>
      <point x="434" y="332"/>
      <point x="296" y="383" type="curve" smooth="yes"/>
      <point x="180" y="426"/>
      <point x="127" y="466"/>
      <point x="127" y="555" type="curve" smooth="yes"/>
      <point x="127" y="644"/>
      <point x="191" y="699"/>
      <point x="296" y="699" type="curve" smooth="yes"/>
      <point x="391" y="699"/>
      <point x="455" y="642"/>
      <point x="455" y="575" type="curve" smooth="yes"/>
      <point x="455" y="565"/>
      <point x="454" y="555"/>
      <point x="452" y="547" type="curve"/>
      <point x="479" y="547" type="line"/>
      <point x="481" y="555"/>
      <point x="482" y="567"/>
      <point x="482" y="576" type="curve" smooth="yes"/>
      <point x="482" y="658"/>
      <point x="407" y="724"/>
      <point x="297" y="724" type="curve" smooth="yes"/>
      <point x="179" y="724"/>
      <point x="100" y="660"/>
      <point x="100" y="555" type="curve" smooth="yes"/>
      <point x="100" y="464"/>
      <point x="139" y="411"/>
      <point x="287" y="356" type="curve" smooth="yes"/>
      <point x="414" y="309"/>
      <point x="472" y="277"/>
      <point x="472" y="174" type="curve" smooth="yes"/>
      <point x="472" y="80"/>
      <point x="414" y="15"/>
      <point x="288" y="15" type="curve" smooth="yes"/>
      <point x="157" y="15"/>
      <point x="84" y="84"/>
      <point x="84" y="175" type="curve" smooth="yes"/>
      <point x="84" y="197"/>
      <point x="86" y="217"/>
      <point x="92" y="234" type="curve"/>
      <point x="64" y="234" type="line"/>
      <point x="60" y="216"/>
      <point x="57" y="197"/>
      <point x="57" y="175" type="curve" smooth="yes"/>
      <point x="57" y="63"/>
      <point x="147" y="-10"/>
    </contour>
  </outline>
</glyph>
<glyph name="Xan-oldgeorgian" format="2">
  <advance width="645"/>
  <unicode hex="10BE"/>
  <note>
uni10BE
</note>
  <outline>
    <contour>
      <point x="103" y="714" type="line"/>
      <point x="103" y="0" type="line"/>
      <point x="523" y="0" type="line"/>
      <point x="523" y="25" type="line"/>
      <point x="129" y="25" type="line"/>
      <point x="129" y="302" type="line"/>
      <point x="542" y="302" type="line"/>
      <point x="542" y="714" type="line"/>
      <point x="516" y="714" type="line"/>
      <point x="516" y="328" type="line"/>
      <point x="129" y="328" type="line"/>
      <point x="129" y="714" type="line"/>
    </contour>
  </outline>
</glyph>
<glyph name="Jhan-oldgeorgian" format="2">
  <advance width="604"/>
  <unicode hex="10BF"/>
  <note>
uni10BF
</note>
  <outline>
    <contour>
      <point x="56" y="0" type="line"/>
      <point x="87" y="0" type="line"/>
      <point x="325" y="350" type="line"/>
      <point x="563" y="0" type="line"/>
      <point x="594" y="0" type="line"/>
      <point x="343" y="370" type="line"/>
      <point x="556" y="696" type="line"/>
      <point x="556" y="714" type="line"/>
      <point x="15" y="714" type="line"/>
      <point x="15" y="689" type="line"/>
      <point x="97" y="689" type="line"/>
      <point x="308" y="370" type="line"/>
    </contour>
    <contour>
      <point x="326" y="390" type="line"/>
      <point x="127" y="689" type="line"/>
      <point x="520" y="689" type="line"/>
    </contour>
  </outline>
</glyph>
<glyph name="Hae-oldgeorgian" format="2">
  <advance width="928"/>
  <unicode hex="10C0"/>
  <note>
uni10C0
</note>
  <outline>
    <contour>
      <point x="651" y="-10" type="curve" smooth="yes"/>
      <point x="788" y="-10"/>
      <point x="869" y="87"/>
      <point x="869" y="218" type="curve" smooth="yes"/>
      <point x="869" y="271"/>
      <point x="854" y="326"/>
      <point x="821" y="377" type="curve"/>
      <point x="800" y="367" type="line"/>
      <point x="829" y="319"/>
      <point x="843" y="267"/>
      <point x="843" y="219" type="curve" smooth="yes"/>
      <point x="843" y="99"/>
      <point x="772" y="16"/>
      <point x="651" y="16" type="curve" smooth="yes"/>
      <point x="525" y="16"/>
      <point x="456" y="98"/>
      <point x="456" y="250" type="curve" smooth="yes"/>
      <point x="456" y="714" type="line"/>
      <point x="86" y="714" type="line"/>
      <point x="86" y="407" type="line"/>
      <point x="112" y="407" type="line"/>
      <point x="112" y="688" type="line"/>
      <point x="430" y="688" type="line"/>
      <point x="430" y="250" type="line" smooth="yes"/>
      <point x="430" y="93"/>
      <point x="498" y="-10"/>
    </contour>
  </outline>
</glyph>
<glyph name="He-oldgeorgian" format="2">
  <advance width="612"/>
  <unicode hex="10C1"/>
  <note>
uni10C1
</note>
  <outline>
    <contour>
      <point x="103" y="0" type="line"/>
      <point x="129" y="0" type="line"/>
      <point x="129" y="313" type="line" smooth="yes"/>
      <point x="129" y="416"/>
      <point x="196" y="513"/>
      <point x="310" y="513" type="curve" smooth="yes"/>
      <point x="401" y="513"/>
      <point x="444" y="453"/>
      <point x="444" y="313" type="curve" smooth="yes"/>
      <point x="444" y="283" type="line"/>
      <point x="592" y="283" type="line"/>
      <point x="592" y="308" type="line"/>
      <point x="470" y="308" type="line"/>
      <point x="470" y="465"/>
      <point x="428" y="538"/>
      <point x="311" y="538" type="curve" smooth="yes"/>
      <point x="249" y="538"/>
      <point x="167" y="509"/>
      <point x="129" y="418" type="curve"/>
      <point x="127" y="418" type="line"/>
      <point x="128" y="454"/>
      <point x="129" y="488"/>
      <point x="129" y="524" type="curve" smooth="yes"/>
      <point x="129" y="714" type="line"/>
      <point x="103" y="714" type="line"/>
    </contour>
  </outline>
</glyph>
<glyph name="Hie-oldgeorgian" format="2">
  <advance width="588"/>
  <unicode hex="10C2"/>
  <note>
uni10C2
</note>
  <outline>
    <contour>
      <point x="230" y="-10" type="curve" smooth="yes"/>
      <point x="409" y="-10"/>
      <point x="524" y="111"/>
      <point x="524" y="309" type="curve" smooth="yes"/>
      <point x="524" y="508"/>
      <point x="401" y="625"/>
      <point x="215" y="625" type="curve" smooth="yes"/>
      <point x="143" y="625" type="line"/>
      <point x="143" y="714" type="line"/>
      <point x="117" y="714" type="line"/>
      <point x="117" y="600" type="line"/>
      <point x="212" y="600" type="line" smooth="yes"/>
      <point x="381" y="600"/>
      <point x="497" y="497"/>
      <point x="497" y="309" type="curve" smooth="yes"/>
      <point x="497" y="133"/>
      <point x="400" y="15"/>
      <point x="230" y="15" type="curve" smooth="yes"/>
      <point x="162" y="15"/>
      <point x="117" y="26"/>
      <point x="63" y="41" type="curve"/>
      <point x="63" y="15" type="line"/>
      <point x="111" y="0"/>
      <point x="153" y="-10"/>
    </contour>
  </outline>
</glyph>
<glyph name="We-oldgeorgian" format="2">
  <advance width="600"/>
  <unicode hex="10C3"/>
  <note>
uni10C3
</note>
  <outline>
    <contour>
      <point x="471" y="0" type="line"/>
      <point x="497" y="0" type="line"/>
      <point x="497" y="714" type="line"/>
      <point x="471" y="714" type="line"/>
      <point x="471" y="456" type="line" smooth="yes"/>
      <point x="471" y="283"/>
      <point x="379" y="218"/>
      <point x="269" y="218" type="curve" smooth="yes"/>
      <point x="160" y="218"/>
      <point x="86" y="287"/>
      <point x="86" y="417" type="curve" smooth="yes"/>
      <point x="86" y="465"/>
      <point x="99" y="518"/>
      <point x="128" y="566" type="curve"/>
      <point x="107" y="576" type="line"/>
      <point x="74" y="525"/>
      <point x="59" y="470"/>
      <point x="59" y="417" type="curve" smooth="yes"/>
      <point x="59" y="273"/>
      <point x="143" y="191"/>
      <point x="269" y="191" type="curve" smooth="yes"/>
      <point x="362" y="191"/>
      <point x="435" y="240"/>
      <point x="469" y="323" type="curve"/>
      <point x="474" y="323" type="line"/>
      <point x="473" y="303"/>
      <point x="471" y="263"/>
      <point x="471" y="218" type="curve" smooth="yes"/>
    </contour>
  </outline>
</glyph>
<glyph name="Har-oldgeorgian" format="2">
  <advance width="710"/>
  <unicode hex="10C4"/>
  <note>
uni10C4
</note>
  <outline>
    <contour>
      <point x="342" y="0" type="line"/>
      <point x="368" y="0" type="line"/>
      <point x="368" y="265" type="line"/>
      <point x="515" y="270"/>
      <point x="616" y="355"/>
      <point x="616" y="527" type="curve" smooth="yes"/>
      <point x="616" y="714" type="line"/>
      <point x="590" y="714" type="line"/>
      <point x="590" y="519" type="line" smooth="yes"/>
      <point x="590" y="367"/>
      <point x="496" y="290"/>
      <point x="354" y="290" type="curve" smooth="yes"/>
      <point x="204" y="290"/>
      <point x="120" y="371"/>
      <point x="120" y="531" type="curve" smooth="yes"/>
      <point x="120" y="714" type="line"/>
      <point x="94" y="714" type="line"/>
      <point x="94" y="529" type="line" smooth="yes"/>
      <point x="94" y="360"/>
      <point x="184" y="269"/>
      <point x="342" y="265" type="curve"/>
    </contour>
  </outline>
</glyph>
<glyph name="Hoe-oldgeorgian" format="2">
  <advance width="811"/>
  <unicode hex="10C5"/>
  <note>
uni10C5
</note>
  <outline>
    <contour>
      <point x="197" y="-10" type="curve" smooth="yes"/>
      <point x="296" y="-10"/>
      <point x="352" y="60"/>
      <point x="352" y="189" type="curve" smooth="yes"/>
      <point x="352" y="257" type="line"/>
      <point x="631" y="257" type="line"/>
      <point x="631" y="110" type="line"/>
      <point x="657" y="110" type="line"/>
      <point x="657" y="283" type="line"/>
      <point x="352" y="283" type="line"/>
      <point x="352" y="413" type="line"/>
      <point x="550" y="413" type="line" smooth="yes"/>
      <point x="672" y="413"/>
      <point x="751" y="465"/>
      <point x="751" y="563" type="curve" smooth="yes"/>
      <point x="751" y="671"/>
      <point x="670" y="724"/>
      <point x="541" y="724" type="curve" smooth="yes"/>
      <point x="416" y="724"/>
      <point x="326" y="645"/>
      <point x="326" y="502" type="curve" smooth="yes"/>
      <point x="326" y="283" type="line"/>
      <point x="243" y="283" type="line" smooth="yes"/>
      <point x="132" y="283"/>
      <point x="50" y="234"/>
      <point x="50" y="135" type="curve" smooth="yes"/>
      <point x="50" y="34"/>
      <point x="111" y="-10"/>
    </contour>
    <contour>
      <point x="197" y="15" type="curve" smooth="yes"/>
      <point x="128" y="15"/>
      <point x="77" y="54"/>
      <point x="77" y="136" type="curve" smooth="yes"/>
      <point x="77" y="215"/>
      <point x="145" y="257"/>
      <point x="242" y="257" type="curve" smooth="yes"/>
      <point x="326" y="257" type="line"/>
      <point x="326" y="189" type="line" smooth="yes"/>
      <point x="326" y="78"/>
      <point x="277" y="15"/>
    </contour>
    <contour>
      <point x="352" y="439" type="line"/>
      <point x="352" y="502" type="line" smooth="yes"/>
      <point x="352" y="624"/>
      <point x="423" y="699"/>
      <point x="541" y="699" type="curve" smooth="yes"/>
      <point x="667" y="699"/>
      <point x="724" y="643"/>
      <point x="724" y="563" type="curve" smooth="yes"/>
      <point x="724" y="487"/>
      <point x="667" y="439"/>
      <point x="550" y="439" type="curve" smooth="yes"/>
    </contour>
  </outline>
</glyph>
<glyph name="Yn-oldgeorgian" format="2">
  <advance width="569"/>
  <unicode hex="10C7"/>
  <anchor x="284" y="0" name="bottom"/>
  <anchor x="284" y="714" name="top"/>
  <outline>
    <contour>
      <point x="282" y="-10" type="curve" smooth="yes"/>
      <point x="422" y="-10"/>
      <point x="512" y="63"/>
      <point x="512" y="175" type="curve" smooth="yes"/>
      <point x="512" y="197"/>
      <point x="509" y="216"/>
      <point x="505" y="234" type="curve"/>
      <point x="477" y="234" type="line"/>
      <point x="483" y="217"/>
      <point x="485" y="197"/>
      <point x="485" y="175" type="curve" smooth="yes"/>
      <point x="485" y="84"/>
      <point x="412" y="15"/>
      <point x="281" y="15" type="curve" smooth="yes"/>
      <point x="155" y="15"/>
      <point x="97" y="80"/>
      <point x="97" y="174" type="curve" smooth="yes"/>
      <point x="97" y="277"/>
      <point x="155" y="309"/>
      <point x="282" y="356" type="curve" smooth="yes"/>
      <point x="430" y="411"/>
      <point x="469" y="464"/>
      <point x="469" y="555" type="curve" smooth="yes"/>
      <point x="469" y="660"/>
      <point x="390" y="724"/>
      <point x="272" y="724" type="curve" smooth="yes"/>
      <point x="162" y="724"/>
      <point x="87" y="658"/>
      <point x="87" y="576" type="curve" smooth="yes"/>
      <point x="87" y="567"/>
      <point x="88" y="555"/>
      <point x="90" y="547" type="curve"/>
      <point x="117" y="547" type="line"/>
      <point x="115" y="555"/>
      <point x="114" y="565"/>
      <point x="114" y="575" type="curve" smooth="yes"/>
      <point x="114" y="642"/>
      <point x="178" y="699"/>
      <point x="273" y="699" type="curve" smooth="yes"/>
      <point x="378" y="699"/>
      <point x="442" y="644"/>
      <point x="442" y="555" type="curve" smooth="yes"/>
      <point x="442" y="466"/>
      <point x="389" y="426"/>
      <point x="273" y="383" type="curve" smooth="yes"/>
      <point x="135" y="332"/>
      <point x="70" y="289"/>
      <point x="70" y="175" type="curve" smooth="yes"/>
      <point x="70" y="63"/>
      <point x="142" y="-10"/>
    </contour>
  </outline>
</glyph>
<glyph name="Aen-oldgeorgian" format="2">
  <advance width="578"/>
  <unicode hex="10CD"/>
  <outline>
    <contour>
      <point x="36" y="0" type="line"/>
      <point x="538" y="0" type="line"/>
      <point x="538" y="25" type="line"/>
      <point x="73" y="25" type="line"/>
      <point x="526" y="696" type="line"/>
      <point x="526" y="714" type="line"/>
      <point x="64" y="714" type="line"/>
      <point x="64" y="689" type="line"/>
      <point x="489" y="689" type="line"/>
      <point x="36" y="18" type="line"/>
    </contour>
  </outline>
</glyph>
<glyph name="an-georgian" format="2">
  <advance width="520"/>
  <unicode hex="10D0"/>
  <note>
uni10D0
</note>
  <anchor x="260" y="528" name="top"/>
  <outline>
    <contour>
      <point x="255" y="-10" type="curve"/>
      <point x="401" y="-10"/>
      <point x="461" y="85"/>
      <point x="461" y="193" type="curve"/>
      <point x="461" y="280"/>
      <point x="411" y="334"/>
      <point x="360" y="382" type="curve" smooth="yes"/>
      <point x="313" y="427"/>
      <point x="267" y="469"/>
      <point x="267" y="528" type="curve"/>
      <point x="241" y="528" type="line"/>
      <point x="241" y="453"/>
      <point x="294" y="410"/>
      <point x="345" y="362" type="curve" smooth="yes"/>
      <point x="391" y="318"/>
      <point x="434" y="271"/>
      <point x="434" y="193" type="curve"/>
      <point x="434" y="94"/>
      <point x="380" y="15"/>
      <point x="255" y="15" type="curve"/>
      <point x="144" y="15"/>
      <point x="81" y="86"/>
      <point x="81" y="178" type="curve"/>
      <point x="81" y="214"/>
      <point x="88" y="239"/>
      <point x="91" y="250" type="curve"/>
      <point x="65" y="250" type="line"/>
      <point x="61" y="238"/>
      <point x="54" y="212"/>
      <point x="54" y="178" type="curve"/>
      <point x="54" y="74"/>
      <point x="126" y="-10"/>
    </contour>
  </outline>
</glyph>
<glyph name="ban-georgian" format="2">
  <advance width="574"/>
  <unicode hex="10D1"/>
  <note>
uni10D1
</note>
  <outline>
    <contour>
      <point x="310" y="537" type="curve"/>
      <point x="321" y="559"/>
      <point x="327" y="579"/>
      <point x="327" y="603" type="curve" smooth="yes"/>
      <point x="327" y="645"/>
      <point x="299" y="670"/>
      <point x="273" y="691" type="curve" smooth="yes"/>
      <point x="252" y="708"/>
      <point x="233" y="729"/>
      <point x="233" y="760" type="curve"/>
      <point x="207" y="760" type="line"/>
      <point x="207" y="718"/>
      <point x="232" y="695"/>
      <point x="256" y="675" type="curve" smooth="yes"/>
      <point x="278" y="656"/>
      <point x="300" y="637"/>
      <point x="300" y="603" type="curve" smooth="yes"/>
      <point x="300" y="580"/>
      <point x="296" y="558"/>
      <point x="284" y="538" type="curve"/>
      <point x="142" y="534"/>
      <point x="59" y="429"/>
      <point x="59" y="264" type="curve" smooth="yes"/>
      <point x="59" y="107"/>
      <point x="134" y="-10"/>
      <point x="286" y="-10" type="curve" smooth="yes"/>
      <point x="443" y="-10"/>
      <point x="515" y="109"/>
      <point x="515" y="264" type="curve" smooth="yes"/>
      <point x="515" y="411"/>
      <point x="456" y="529"/>
    </contour>
    <contour>
      <point x="286" y="15" type="curve" smooth="yes"/>
      <point x="151" y="15"/>
      <point x="86" y="117"/>
      <point x="86" y="264" type="curve" smooth="yes"/>
      <point x="86" y="420"/>
      <point x="160" y="513"/>
      <point x="292" y="513" type="curve" smooth="yes"/>
      <point x="433" y="513"/>
      <point x="488" y="402"/>
      <point x="488" y="264" type="curve" smooth="yes"/>
      <point x="488" y="119"/>
      <point x="426" y="15"/>
    </contour>
  </outline>
</glyph>
<glyph name="gan-georgian" format="2">
  <advance width="564"/>
  <unicode hex="10D2"/>
  <note>
uni10D2
</note>
  <outline>
    <contour>
      <point x="281" y="-250" type="curve" smooth="yes"/>
      <point x="438" y="-250"/>
      <point x="510" y="-131"/>
      <point x="510" y="14" type="curve" smooth="yes"/>
      <point x="510" y="172"/>
      <point x="429" y="255"/>
      <point x="339" y="267" type="curve"/>
      <point x="339" y="269" type="line"/>
      <point x="404" y="284"/>
      <point x="444" y="327"/>
      <point x="444" y="393" type="curve" smooth="yes"/>
      <point x="444" y="472"/>
      <point x="386" y="538"/>
      <point x="286" y="538" type="curve" smooth="yes"/>
      <point x="194" y="538"/>
      <point x="125" y="479"/>
      <point x="125" y="396" type="curve" smooth="yes"/>
      <point x="125" y="385"/>
      <point x="126" y="374"/>
      <point x="129" y="362" type="curve"/>
      <point x="155" y="362" type="line"/>
      <point x="153" y="373"/>
      <point x="151" y="384"/>
      <point x="151" y="394" type="curve" smooth="yes"/>
      <point x="151" y="464"/>
      <point x="202" y="513"/>
      <point x="286" y="513" type="curve" smooth="yes"/>
      <point x="372" y="513"/>
      <point x="417" y="463"/>
      <point x="417" y="393" type="curve" smooth="yes"/>
      <point x="417" y="316"/>
      <point x="357" y="282"/>
      <point x="276" y="278" type="curve" smooth="yes"/>
      <point x="142" y="271"/>
      <point x="54" y="172"/>
      <point x="54" y="14" type="curve" smooth="yes"/>
      <point x="54" y="-133"/>
      <point x="129" y="-250"/>
    </contour>
    <contour>
      <point x="281" y="-225" type="curve" smooth="yes"/>
      <point x="146" y="-225"/>
      <point x="81" y="-123"/>
      <point x="81" y="14" type="curve" smooth="yes"/>
      <point x="81" y="160"/>
      <point x="155" y="253"/>
      <point x="287" y="253" type="curve" smooth="yes"/>
      <point x="428" y="253"/>
      <point x="483" y="142"/>
      <point x="483" y="14" type="curve" smooth="yes"/>
      <point x="483" y="-121"/>
      <point x="421" y="-225"/>
    </contour>
  </outline>
</glyph>
<glyph name="don-georgian" format="2">
  <advance width="840"/>
  <unicode hex="10D3"/>
  <note>
uni10D3
</note>
  <outline>
    <contour>
      <point x="551" y="-250" type="curve"/>
      <point x="575" y="-237" type="line"/>
      <point x="528" y="-139"/>
      <point x="438" y="-100"/>
      <point x="327" y="-59" type="curve" smooth="yes"/>
      <point x="174" y="-3"/>
      <point x="86" y="117"/>
      <point x="86" y="287" type="curve" smooth="yes"/>
      <point x="86" y="436"/>
      <point x="130" y="513"/>
      <point x="237" y="513" type="curve" smooth="yes"/>
      <point x="334" y="513"/>
      <point x="375" y="439"/>
      <point x="375" y="317" type="curve" smooth="yes"/>
      <point x="375" y="264" type="line" smooth="yes"/>
      <point x="375" y="109"/>
      <point x="442" y="-10"/>
      <point x="577" y="-10" type="curve" smooth="yes"/>
      <point x="716" y="-10"/>
      <point x="781" y="107"/>
      <point x="781" y="264" type="curve" smooth="yes"/>
      <point x="781" y="432"/>
      <point x="712" y="538"/>
      <point x="578" y="538" type="curve" smooth="yes"/>
      <point x="468" y="538"/>
      <point x="404" y="465"/>
      <point x="393" y="370" type="curve"/>
      <point x="392" y="370" type="line"/>
      <point x="389" y="484"/>
      <point x="319" y="538"/>
      <point x="237" y="538" type="curve" smooth="yes"/>
      <point x="119" y="538"/>
      <point x="59" y="453"/>
      <point x="59" y="287" type="curve" smooth="yes"/>
      <point x="59" y="112"/>
      <point x="150" y="-25"/>
      <point x="314" y="-77" type="curve"/>
      <point x="314" y="-79" type="line"/>
      <point x="243" y="-76"/>
      <point x="193" y="-90"/>
      <point x="153" y="-107" type="curve"/>
      <point x="164" y="-130" type="line"/>
      <point x="204" y="-112"/>
      <point x="251" y="-99"/>
      <point x="306" y="-99" type="curve" smooth="yes"/>
      <point x="390" y="-99"/>
      <point x="503" y="-150"/>
    </contour>
    <contour>
      <point x="577" y="15" type="curve" smooth="yes"/>
      <point x="459" y="15"/>
      <point x="402" y="119"/>
      <point x="402" y="264" type="curve" smooth="yes"/>
      <point x="402" y="420"/>
      <point x="456" y="513"/>
      <point x="578" y="513" type="curve" smooth="yes"/>
      <point x="697" y="513"/>
      <point x="754" y="420"/>
      <point x="754" y="264" type="curve" smooth="yes"/>
      <point x="754" y="117"/>
      <point x="699" y="15"/>
    </contour>
  </outline>
</glyph>
<glyph name="en-georgian" format="2">
  <advance width="568"/>
  <unicode hex="10D4"/>
  <note>
uni10D4
</note>
  <anchor x="284" y="528" name="top"/>
  <outline>
    <contour>
      <point x="272" y="-250" type="curve"/>
      <point x="425" y="-250"/>
      <point x="483" y="-142"/>
      <point x="483" y="3" type="curve"/>
      <point x="483" y="308" type="line"/>
      <point x="483" y="443"/>
      <point x="423" y="538"/>
      <point x="277" y="538" type="curve"/>
      <point x="153" y="538"/>
      <point x="82" y="454"/>
      <point x="82" y="350" type="curve"/>
      <point x="82" y="316"/>
      <point x="89" y="290"/>
      <point x="93" y="278" type="curve"/>
      <point x="118" y="278" type="line"/>
      <point x="115" y="289"/>
      <point x="108" y="314"/>
      <point x="108" y="350" type="curve"/>
      <point x="108" y="442"/>
      <point x="171" y="513"/>
      <point x="277" y="513" type="curve"/>
      <point x="402" y="513"/>
      <point x="457" y="434"/>
      <point x="457" y="308" type="curve"/>
      <point x="457" y="3" type="line"/>
      <point x="457" y="-127"/>
      <point x="405" y="-225"/>
      <point x="272" y="-225" type="curve"/>
      <point x="155" y="-225"/>
      <point x="80" y="-159"/>
      <point x="80" y="-25" type="curve"/>
      <point x="80" y="16"/>
      <point x="88" y="48"/>
      <point x="99" y="74" type="curve"/>
      <point x="74" y="74" type="line"/>
      <point x="63" y="49"/>
      <point x="54" y="20"/>
      <point x="54" y="-25" type="curve"/>
      <point x="54" y="-173"/>
      <point x="135" y="-250"/>
    </contour>
  </outline>
</glyph>
<glyph name="vin-georgian" format="2">
  <advance width="550"/>
  <unicode hex="10D5"/>
  <note>
uni10D5
</note>
  <outline>
    <contour>
      <point x="275" y="-250" type="curve" smooth="yes"/>
      <point x="432" y="-250"/>
      <point x="496" y="-146"/>
      <point x="496" y="-21" type="curve" smooth="yes"/>
      <point x="496" y="95"/>
      <point x="421" y="167"/>
      <point x="339" y="180" type="curve"/>
      <point x="339" y="182" type="line"/>
      <point x="421" y="198"/>
      <point x="473" y="257"/>
      <point x="473" y="358" type="curve" smooth="yes"/>
      <point x="473" y="443"/>
      <point x="413" y="538"/>
      <point x="280" y="538" type="curve" smooth="yes"/>
      <point x="153" y="538"/>
      <point x="82" y="454"/>
      <point x="82" y="360" type="curve" smooth="yes"/>
      <point x="82" y="336"/>
      <point x="89" y="310"/>
      <point x="93" y="298" type="curve"/>
      <point x="118" y="298" type="line"/>
      <point x="115" y="309"/>
      <point x="108" y="334"/>
      <point x="108" y="360" type="curve" smooth="yes"/>
      <point x="108" y="442"/>
      <point x="171" y="513"/>
      <point x="280" y="513" type="curve" smooth="yes"/>
      <point x="392" y="513"/>
      <point x="447" y="436"/>
      <point x="447" y="358" type="curve" smooth="yes"/>
      <point x="447" y="250"/>
      <point x="386" y="194"/>
      <point x="283" y="194" type="curve" smooth="yes"/>
      <point x="230" y="194" type="line"/>
      <point x="230" y="169" type="line"/>
      <point x="275" y="169" type="line" smooth="yes"/>
      <point x="386" y="169"/>
      <point x="469" y="99"/>
      <point x="469" y="-21" type="curve" smooth="yes"/>
      <point x="469" y="-131"/>
      <point x="412" y="-225"/>
      <point x="275" y="-225" type="curve" smooth="yes"/>
      <point x="155" y="-225"/>
      <point x="80" y="-159"/>
      <point x="80" y="-45" type="curve" smooth="yes"/>
      <point x="80" y="-4"/>
      <point x="88" y="28"/>
      <point x="99" y="54" type="curve"/>
      <point x="74" y="54" type="line"/>
      <point x="63" y="29"/>
      <point x="54" y="0"/>
      <point x="54" y="-45" type="curve" smooth="yes"/>
      <point x="54" y="-173"/>
      <point x="135" y="-250"/>
    </contour>
  </outline>
</glyph>
<glyph name="zen-georgian" format="2">
  <advance width="594"/>
  <unicode hex="10D6"/>
  <note>
uni10D6
</note>
  <outline>
    <contour>
      <point x="318" y="-10" type="curve" smooth="yes"/>
      <point x="468" y="-10"/>
      <point x="535" y="109"/>
      <point x="535" y="245" type="curve" smooth="yes"/>
      <point x="535" y="375"/>
      <point x="479" y="500"/>
      <point x="318" y="500" type="curve" smooth="yes"/>
      <point x="307" y="500"/>
      <point x="296" y="499"/>
      <point x="287" y="496" type="curve"/>
      <point x="287" y="498" type="line"/>
      <point x="320" y="521"/>
      <point x="338" y="566"/>
      <point x="338" y="620" type="curve" smooth="yes"/>
      <point x="338" y="707"/>
      <point x="278" y="770"/>
      <point x="189" y="770" type="curve" smooth="yes"/>
      <point x="112" y="770"/>
      <point x="40" y="714"/>
      <point x="40" y="613" type="curve" smooth="yes"/>
      <point x="40" y="515"/>
      <point x="107" y="458"/>
      <point x="185" y="458" type="curve"/>
      <point x="185" y="456" type="line"/>
      <point x="117" y="401"/>
      <point x="99" y="331"/>
      <point x="99" y="245" type="curve" smooth="yes"/>
      <point x="99" y="107"/>
      <point x="169" y="-10"/>
    </contour>
    <contour>
      <point x="318" y="15" type="curve" smooth="yes"/>
      <point x="182" y="15"/>
      <point x="126" y="117"/>
      <point x="126" y="245" type="curve" smooth="yes"/>
      <point x="126" y="386"/>
      <point x="191" y="479"/>
      <point x="317" y="479" type="curve" smooth="yes"/>
      <point x="458" y="479"/>
      <point x="508" y="368"/>
      <point x="508" y="245" type="curve" smooth="yes"/>
      <point x="508" y="119"/>
      <point x="451" y="15"/>
    </contour>
    <contour>
      <point x="189" y="478" type="curve" smooth="yes"/>
      <point x="121" y="478"/>
      <point x="66" y="529"/>
      <point x="66" y="613" type="curve" smooth="yes"/>
      <point x="66" y="697"/>
      <point x="121" y="746"/>
      <point x="189" y="746" type="curve" smooth="yes"/>
      <point x="267" y="746"/>
      <point x="313" y="697"/>
      <point x="313" y="612" type="curve" smooth="yes"/>
      <point x="313" y="526"/>
      <point x="260" y="478"/>
    </contour>
  </outline>
</glyph>
<glyph name="tan-georgian" format="2">
  <advance width="840"/>
  <unicode hex="10D7"/>
  <note>
uni10D7
</note>
  <outline>
    <contour>
      <point x="263" y="-10" type="curve" smooth="yes"/>
      <point x="398" y="-10"/>
      <point x="465" y="109"/>
      <point x="465" y="264" type="curve" smooth="yes"/>
      <point x="465" y="317" type="line" smooth="yes"/>
      <point x="465" y="439"/>
      <point x="506" y="513"/>
      <point x="603" y="513" type="curve" smooth="yes"/>
      <point x="710" y="513"/>
      <point x="754" y="436"/>
      <point x="754" y="280" type="curve" smooth="yes"/>
      <point x="754" y="176"/>
      <point x="731" y="89"/>
      <point x="690" y="0" type="curve"/>
      <point x="717" y="0" type="line"/>
      <point x="756" y="85"/>
      <point x="781" y="172"/>
      <point x="781" y="280" type="curve" smooth="yes"/>
      <point x="781" y="453"/>
      <point x="721" y="538"/>
      <point x="603" y="538" type="curve" smooth="yes"/>
      <point x="521" y="538"/>
      <point x="451" y="484"/>
      <point x="448" y="370" type="curve"/>
      <point x="447" y="370" type="line"/>
      <point x="436" y="470"/>
      <point x="372" y="538"/>
      <point x="262" y="538" type="curve" smooth="yes"/>
      <point x="128" y="538"/>
      <point x="59" y="432"/>
      <point x="59" y="264" type="curve" smooth="yes"/>
      <point x="59" y="107"/>
      <point x="124" y="-10"/>
    </contour>
    <contour>
      <point x="263" y="15" type="curve" smooth="yes"/>
      <point x="141" y="15"/>
      <point x="86" y="117"/>
      <point x="86" y="264" type="curve" smooth="yes"/>
      <point x="86" y="420"/>
      <point x="143" y="513"/>
      <point x="262" y="513" type="curve" smooth="yes"/>
      <point x="384" y="513"/>
      <point x="438" y="420"/>
      <point x="438" y="264" type="curve" smooth="yes"/>
      <point x="438" y="119"/>
      <point x="381" y="15"/>
    </contour>
  </outline>
</glyph>
<glyph name="in-georgian" format="2">
  <advance width="532"/>
  <unicode hex="10D8"/>
  <note>
uni10D8
</note>
  <anchor x="266" y="528" name="top"/>
  <outline>
    <contour>
      <point x="123" y="0" type="curve"/>
      <point x="150" y="0" type="line"/>
      <point x="109" y="91"/>
      <point x="86" y="175"/>
      <point x="86" y="287" type="curve" smooth="yes"/>
      <point x="86" y="433"/>
      <point x="152" y="513"/>
      <point x="266" y="513" type="curve" smooth="yes"/>
      <point x="385" y="513"/>
      <point x="446" y="433"/>
      <point x="446" y="287" type="curve" smooth="yes"/>
      <point x="446" y="176"/>
      <point x="423" y="89"/>
      <point x="382" y="0" type="curve"/>
      <point x="409" y="0" type="line"/>
      <point x="448" y="85"/>
      <point x="473" y="172"/>
      <point x="473" y="287" type="curve" smooth="yes"/>
      <point x="473" y="450"/>
      <point x="401" y="538"/>
      <point x="266" y="538" type="curve" smooth="yes"/>
      <point x="135" y="538"/>
      <point x="59" y="450"/>
      <point x="59" y="287" type="curve" smooth="yes"/>
      <point x="59" y="169"/>
      <point x="82" y="88"/>
    </contour>
  </outline>
</glyph>
<glyph name="kan-georgian" format="2">
  <advance width="535"/>
  <unicode hex="10D9"/>
  <note>
uni10D9
</note>
  <outline>
    <contour>
      <point x="260" y="-250" type="curve" smooth="yes"/>
      <point x="417" y="-250"/>
      <point x="481" y="-146"/>
      <point x="481" y="-21" type="curve" smooth="yes"/>
      <point x="481" y="115"/>
      <point x="406" y="187"/>
      <point x="324" y="200" type="curve"/>
      <point x="324" y="202" type="line"/>
      <point x="406" y="218"/>
      <point x="458" y="277"/>
      <point x="458" y="358" type="curve" smooth="yes"/>
      <point x="458" y="450"/>
      <point x="398" y="538"/>
      <point x="275" y="538" type="curve"/>
      <point x="275" y="513" type="line"/>
      <point x="377" y="513"/>
      <point x="432" y="443"/>
      <point x="432" y="358" type="curve" smooth="yes"/>
      <point x="432" y="270"/>
      <point x="363" y="214"/>
      <point x="268" y="214" type="curve" smooth="yes"/>
      <point x="215" y="214" type="line"/>
      <point x="215" y="189" type="line"/>
      <point x="260" y="189" type="line" smooth="yes"/>
      <point x="371" y="189"/>
      <point x="454" y="119"/>
      <point x="454" y="-21" type="curve" smooth="yes"/>
      <point x="454" y="-131"/>
      <point x="397" y="-225"/>
      <point x="260" y="-225" type="curve" smooth="yes"/>
      <point x="150" y="-225"/>
      <point x="75" y="-159"/>
      <point x="75" y="-45" type="curve" smooth="yes"/>
      <point x="75" y="-4"/>
      <point x="83" y="28"/>
      <point x="94" y="54" type="curve"/>
      <point x="69" y="54" type="line"/>
      <point x="58" y="29"/>
      <point x="49" y="0"/>
      <point x="49" y="-45" type="curve" smooth="yes"/>
      <point x="49" y="-173"/>
      <point x="130" y="-250"/>
    </contour>
  </outline>
</glyph>
<glyph name="las-georgian" format="2">
  <advance width="1036"/>
  <unicode hex="10DA"/>
  <note>
uni10DA
</note>
  <outline>
    <contour>
      <point x="701" y="-250" type="curve"/>
      <point x="724" y="-237" type="line"/>
      <point x="650" y="-118"/>
      <point x="531" y="-76"/>
      <point x="409" y="-50" type="curve" smooth="yes"/>
      <point x="234" y="-13"/>
      <point x="86" y="88"/>
      <point x="86" y="297" type="curve" smooth="yes"/>
      <point x="86" y="436"/>
      <point x="135" y="513"/>
      <point x="232" y="513" type="curve" smooth="yes"/>
      <point x="319" y="513"/>
      <point x="361" y="449"/>
      <point x="361" y="347" type="curve" smooth="yes"/>
      <point x="361" y="190" type="line"/>
      <point x="387" y="190" type="line"/>
      <point x="387" y="347" type="line" smooth="yes"/>
      <point x="387" y="449"/>
      <point x="427" y="513"/>
      <point x="518" y="513" type="curve" smooth="yes"/>
      <point x="609" y="513"/>
      <point x="649" y="449"/>
      <point x="649" y="347" type="curve" smooth="yes"/>
      <point x="649" y="190" type="line"/>
      <point x="675" y="190" type="line"/>
      <point x="675" y="347" type="line" smooth="yes"/>
      <point x="675" y="449"/>
      <point x="717" y="513"/>
      <point x="804" y="513" type="curve" smooth="yes"/>
      <point x="901" y="513"/>
      <point x="950" y="436"/>
      <point x="950" y="287" type="curve" smooth="yes"/>
      <point x="950" y="203"/>
      <point x="935" y="136"/>
      <point x="908" y="66" type="curve"/>
      <point x="932" y="57" type="line"/>
      <point x="960" y="128"/>
      <point x="977" y="197"/>
      <point x="977" y="287" type="curve" smooth="yes"/>
      <point x="977" y="453"/>
      <point x="914" y="538"/>
      <point x="807" y="538" type="curve" smooth="yes"/>
      <point x="731" y="538"/>
      <point x="674" y="493"/>
      <point x="663" y="417" type="curve"/>
      <point x="661" y="417" type="line"/>
      <point x="648" y="493"/>
      <point x="596" y="538"/>
      <point x="518" y="538" type="curve" smooth="yes"/>
      <point x="440" y="538"/>
      <point x="387" y="493"/>
      <point x="375" y="417" type="curve"/>
      <point x="373" y="417" type="line"/>
      <point x="362" y="493"/>
      <point x="305" y="538"/>
      <point x="229" y="538" type="curve" smooth="yes"/>
      <point x="122" y="538"/>
      <point x="59" y="453"/>
      <point x="59" y="297" type="curve" smooth="yes"/>
      <point x="59" y="76"/>
      <point x="215" y="-27"/>
      <point x="366" y="-59" type="curve"/>
      <point x="366" y="-61" type="line"/>
      <point x="308" y="-58"/>
      <point x="234" y="-81"/>
      <point x="196" y="-100" type="curve"/>
      <point x="207" y="-123" type="line"/>
      <point x="245" y="-103"/>
      <point x="310" y="-79"/>
      <point x="382" y="-79" type="curve" smooth="yes"/>
      <point x="491" y="-79"/>
      <point x="638" y="-139"/>
    </contour>
  </outline>
</glyph>
<glyph name="man-georgian" format="2">
  <advance width="579"/>
  <unicode hex="10DB"/>
  <note>
uni10DB
</note>
  <outline>
    <contour>
      <point x="279" y="-10" type="curve" smooth="yes"/>
      <point x="418" y="-10"/>
      <point x="494" y="77"/>
      <point x="494" y="252" type="curve" smooth="yes"/>
      <point x="494" y="579" type="line" smooth="yes"/>
      <point x="494" y="707"/>
      <point x="400" y="770"/>
      <point x="287" y="770" type="curve" smooth="yes"/>
      <point x="192" y="770"/>
      <point x="90" y="722"/>
      <point x="90" y="617" type="curve" smooth="yes"/>
      <point x="90" y="606"/>
      <point x="91" y="597"/>
      <point x="94" y="587" type="curve"/>
      <point x="118" y="587" type="line"/>
      <point x="116" y="597"/>
      <point x="115" y="606"/>
      <point x="115" y="618" type="curve" smooth="yes"/>
      <point x="115" y="703"/>
      <point x="194" y="745"/>
      <point x="287" y="745" type="curve" smooth="yes"/>
      <point x="388" y="745"/>
      <point x="468" y="695"/>
      <point x="468" y="575" type="curve" smooth="yes"/>
      <point x="468" y="515" type="line" smooth="yes"/>
      <point x="468" y="483"/>
      <point x="469" y="428"/>
      <point x="470" y="395" type="curve"/>
      <point x="468" y="395" type="line"/>
      <point x="445" y="472"/>
      <point x="379" y="528"/>
      <point x="277" y="528" type="curve" smooth="yes"/>
      <point x="147" y="528"/>
      <point x="59" y="434"/>
      <point x="59" y="266" type="curve" smooth="yes"/>
      <point x="59" y="94"/>
      <point x="133" y="-10"/>
    </contour>
    <contour>
      <point x="279" y="15" type="curve" smooth="yes"/>
      <point x="154" y="15"/>
      <point x="86" y="106"/>
      <point x="86" y="266" type="curve" smooth="yes"/>
      <point x="86" y="420"/>
      <point x="163" y="503"/>
      <point x="277" y="503" type="curve" smooth="yes"/>
      <point x="403" y="503"/>
      <point x="468" y="423"/>
      <point x="468" y="272" type="curve" smooth="yes"/>
      <point x="468" y="252" type="line" smooth="yes"/>
      <point x="468" y="94"/>
      <point x="403" y="15"/>
    </contour>
  </outline>
</glyph>
<glyph name="nar-georgian" format="2">
  <advance width="579"/>
  <unicode hex="10DC"/>
  <note>
uni10DC
</note>
  <outline>
    <contour>
      <point x="300" y="-10" type="curve"/>
      <point x="446" y="-10"/>
      <point x="520" y="94"/>
      <point x="520" y="266" type="curve"/>
      <point x="520" y="444"/>
      <point x="432" y="538"/>
      <point x="302" y="538" type="curve"/>
      <point x="200" y="538"/>
      <point x="134" y="482"/>
      <point x="111" y="405" type="curve"/>
      <point x="109" y="405" type="line"/>
      <point x="110" y="438"/>
      <point x="111" y="493"/>
      <point x="111" y="525" type="curve"/>
      <point x="111" y="585" type="line"/>
      <point x="111" y="695"/>
      <point x="172" y="735"/>
      <point x="273" y="735" type="curve"/>
      <point x="474" y="735" type="line"/>
      <point x="474" y="760" type="line"/>
      <point x="273" y="760" type="line"/>
      <point x="160" y="760"/>
      <point x="85" y="707"/>
      <point x="85" y="590" type="curve"/>
      <point x="85" y="252" type="line"/>
      <point x="85" y="77"/>
      <point x="161" y="-10"/>
    </contour>
    <contour>
      <point x="300" y="15" type="curve"/>
      <point x="176" y="15"/>
      <point x="111" y="94"/>
      <point x="111" y="252" type="curve"/>
      <point x="111" y="272" type="line"/>
      <point x="111" y="433"/>
      <point x="176" y="513"/>
      <point x="302" y="513" type="curve"/>
      <point x="416" y="513"/>
      <point x="493" y="430"/>
      <point x="493" y="266" type="curve"/>
      <point x="493" y="106"/>
      <point x="425" y="15"/>
    </contour>
  </outline>
</glyph>
<glyph name="on-georgian" format="2">
  <advance width="757"/>
  <unicode hex="10DD"/>
  <note>
uni10DD
</note>
  <anchor x="379" y="528" name="top"/>
  <outline>
    <contour>
      <point x="123" y="0" type="curve"/>
      <point x="150" y="0" type="line"/>
      <point x="109" y="91"/>
      <point x="86" y="175"/>
      <point x="86" y="287" type="curve" smooth="yes"/>
      <point x="86" y="436"/>
      <point x="135" y="513"/>
      <point x="237" y="513" type="curve" smooth="yes"/>
      <point x="324" y="513"/>
      <point x="366" y="449"/>
      <point x="366" y="347" type="curve" smooth="yes"/>
      <point x="366" y="190" type="line"/>
      <point x="392" y="190" type="line"/>
      <point x="392" y="347" type="line" smooth="yes"/>
      <point x="392" y="449"/>
      <point x="428" y="513"/>
      <point x="523" y="513" type="curve" smooth="yes"/>
      <point x="627" y="513"/>
      <point x="671" y="436"/>
      <point x="671" y="287" type="curve" smooth="yes"/>
      <point x="671" y="176"/>
      <point x="648" y="89"/>
      <point x="607" y="0" type="curve"/>
      <point x="634" y="0" type="line"/>
      <point x="673" y="85"/>
      <point x="698" y="172"/>
      <point x="698" y="287" type="curve" smooth="yes"/>
      <point x="698" y="453"/>
      <point x="635" y="538"/>
      <point x="526" y="538" type="curve" smooth="yes"/>
      <point x="445" y="538"/>
      <point x="393" y="493"/>
      <point x="380" y="417" type="curve"/>
      <point x="378" y="417" type="line"/>
      <point x="366" y="493"/>
      <point x="310" y="538"/>
      <point x="234" y="538" type="curve" smooth="yes"/>
      <point x="122" y="538"/>
      <point x="59" y="453"/>
      <point x="59" y="287" type="curve" smooth="yes"/>
      <point x="59" y="169"/>
      <point x="82" y="88"/>
    </contour>
  </outline>
</glyph>
<glyph name="par-georgian" format="2">
  <advance width="545"/>
  <unicode hex="10DE"/>
  <note>
uni10DE
</note>
  <outline>
    <contour>
      <point x="266" y="-10" type="curve" smooth="yes"/>
      <point x="422" y="-10"/>
      <point x="486" y="94"/>
      <point x="486" y="209" type="curve" smooth="yes"/>
      <point x="486" y="325"/>
      <point x="403" y="397"/>
      <point x="321" y="409" type="curve"/>
      <point x="321" y="411" type="line"/>
      <point x="403" y="420"/>
      <point x="453" y="462"/>
      <point x="453" y="530" type="curve" smooth="yes"/>
      <point x="453" y="600"/>
      <point x="407" y="638"/>
      <point x="360" y="667" type="curve" smooth="yes"/>
      <point x="314" y="695"/>
      <point x="268" y="723"/>
      <point x="268" y="760" type="curve"/>
      <point x="242" y="760" type="line"/>
      <point x="242" y="709"/>
      <point x="295" y="679"/>
      <point x="345" y="648" type="curve" smooth="yes"/>
      <point x="387" y="622"/>
      <point x="426" y="589"/>
      <point x="426" y="530" type="curve" smooth="yes"/>
      <point x="426" y="462"/>
      <point x="366" y="424"/>
      <point x="271" y="424" type="curve" smooth="yes"/>
      <point x="210" y="424" type="line"/>
      <point x="210" y="399" type="line"/>
      <point x="255" y="399" type="line" smooth="yes"/>
      <point x="366" y="399"/>
      <point x="459" y="329"/>
      <point x="459" y="209" type="curve" smooth="yes"/>
      <point x="459" y="109"/>
      <point x="402" y="15"/>
      <point x="266" y="15" type="curve" smooth="yes"/>
      <point x="144" y="15"/>
      <point x="81" y="86"/>
      <point x="81" y="178" type="curve" smooth="yes"/>
      <point x="81" y="214"/>
      <point x="88" y="239"/>
      <point x="91" y="250" type="curve"/>
      <point x="65" y="250" type="line"/>
      <point x="61" y="238"/>
      <point x="54" y="212"/>
      <point x="54" y="178" type="curve" smooth="yes"/>
      <point x="54" y="74"/>
      <point x="126" y="-10"/>
    </contour>
  </outline>
</glyph>
<glyph name="zhar-georgian" format="2">
  <advance width="591"/>
  <unicode hex="10DF"/>
  <note>
uni10DF
</note>
  <outline>
    <contour>
      <point x="290" y="-250" type="curve" smooth="yes"/>
      <point x="442" y="-250"/>
      <point x="501" y="-142"/>
      <point x="501" y="3" type="curve" smooth="yes"/>
      <point x="501" y="528" type="line"/>
      <point x="481" y="528" type="line"/>
      <point x="395" y="487"/>
      <point x="285" y="460"/>
      <point x="177" y="449" type="curve"/>
      <point x="177" y="424" type="line"/>
      <point x="239" y="419"/>
      <point x="290" y="382"/>
      <point x="290" y="306" type="curve" smooth="yes"/>
      <point x="290" y="236"/>
      <point x="253" y="190"/>
      <point x="182" y="190" type="curve" smooth="yes"/>
      <point x="114" y="190"/>
      <point x="76" y="234"/>
      <point x="76" y="286" type="curve" smooth="yes"/>
      <point x="76" y="297"/>
      <point x="77" y="308"/>
      <point x="79" y="318" type="curve"/>
      <point x="54" y="318" type="line"/>
      <point x="52" y="309"/>
      <point x="50" y="297"/>
      <point x="50" y="286" type="curve" smooth="yes"/>
      <point x="50" y="221"/>
      <point x="97" y="166"/>
      <point x="182" y="166" type="curve" smooth="yes"/>
      <point x="269" y="166"/>
      <point x="316" y="223"/>
      <point x="316" y="306" type="curve" smooth="yes"/>
      <point x="316" y="379"/>
      <point x="273" y="420"/>
      <point x="222" y="432" type="curve"/>
      <point x="222" y="434" type="line"/>
      <point x="312" y="444"/>
      <point x="408" y="470"/>
      <point x="475" y="500" type="curve"/>
      <point x="475" y="3" type="line" smooth="yes"/>
      <point x="475" y="-127"/>
      <point x="422" y="-225"/>
      <point x="290" y="-225" type="curve" smooth="yes"/>
      <point x="173" y="-225"/>
      <point x="98" y="-160"/>
      <point x="98" y="-59" type="curve" smooth="yes"/>
      <point x="98" y="-28"/>
      <point x="102" y="4"/>
      <point x="113" y="30" type="curve"/>
      <point x="88" y="30" type="line"/>
      <point x="77" y="5"/>
      <point x="72" y="-24"/>
      <point x="72" y="-59" type="curve" smooth="yes"/>
      <point x="72" y="-174"/>
      <point x="153" y="-250"/>
    </contour>
  </outline>
</glyph>
<glyph name="rae-georgian" format="2">
  <advance width="757"/>
  <unicode hex="10E0"/>
  <note>
uni10E0
</note>
  <outline>
    <contour>
      <point x="123" y="0" type="curve"/>
      <point x="150" y="0" type="line"/>
      <point x="109" y="91"/>
      <point x="86" y="175"/>
      <point x="86" y="287" type="curve" smooth="yes"/>
      <point x="86" y="436"/>
      <point x="135" y="513"/>
      <point x="237" y="513" type="curve" smooth="yes"/>
      <point x="324" y="513"/>
      <point x="366" y="449"/>
      <point x="366" y="347" type="curve" smooth="yes"/>
      <point x="366" y="190" type="line"/>
      <point x="392" y="190" type="line"/>
      <point x="392" y="347" type="line" smooth="yes"/>
      <point x="392" y="449"/>
      <point x="428" y="513"/>
      <point x="523" y="513" type="curve" smooth="yes"/>
      <point x="627" y="513"/>
      <point x="671" y="436"/>
      <point x="671" y="287" type="curve" smooth="yes"/>
      <point x="671" y="176"/>
      <point x="648" y="89"/>
      <point x="607" y="0" type="curve"/>
      <point x="634" y="0" type="line"/>
      <point x="673" y="85"/>
      <point x="698" y="172"/>
      <point x="698" y="287" type="curve" smooth="yes"/>
      <point x="698" y="453"/>
      <point x="635" y="538"/>
      <point x="526" y="538" type="curve" smooth="yes"/>
      <point x="445" y="538"/>
      <point x="393" y="493"/>
      <point x="380" y="417" type="curve"/>
      <point x="378" y="417" type="line"/>
      <point x="366" y="493"/>
      <point x="310" y="538"/>
      <point x="234" y="538" type="curve" smooth="yes"/>
      <point x="175" y="538"/>
      <point x="115" y="515"/>
      <point x="87" y="425" type="curve"/>
      <point x="85" y="425" type="line"/>
      <point x="99" y="544"/>
      <point x="144" y="616"/>
      <point x="206" y="662" type="curve" smooth="yes"/>
      <point x="248" y="693"/>
      <point x="329" y="721"/>
      <point x="503" y="746" type="curve"/>
      <point x="500" y="770" type="line"/>
      <point x="336" y="747"/>
      <point x="240" y="718"/>
      <point x="187" y="678" type="curve" smooth="yes"/>
      <point x="96" y="610"/>
      <point x="59" y="502"/>
      <point x="59" y="318" type="curve" smooth="yes"/>
      <point x="59" y="287" type="line" smooth="yes"/>
      <point x="59" y="169"/>
      <point x="82" y="88"/>
    </contour>
  </outline>
</glyph>
<glyph name="san-georgian" format="2">
  <advance width="579"/>
  <unicode hex="10E1"/>
  <note>
uni10E1
</note>
  <outline>
    <contour>
      <point x="305" y="-10" type="curve" smooth="yes"/>
      <point x="446" y="-10"/>
      <point x="520" y="94"/>
      <point x="520" y="217" type="curve" smooth="yes"/>
      <point x="520" y="289"/>
      <point x="496" y="338"/>
      <point x="466" y="378" type="curve" smooth="yes"/>
      <point x="431" y="424"/>
      <point x="403" y="465"/>
      <point x="403" y="528" type="curve"/>
      <point x="377" y="528" type="line"/>
      <point x="377" y="453"/>
      <point x="409" y="411"/>
      <point x="443" y="364" type="curve" smooth="yes"/>
      <point x="470" y="326"/>
      <point x="493" y="284"/>
      <point x="493" y="217" type="curve" smooth="yes"/>
      <point x="493" y="106"/>
      <point x="425" y="15"/>
      <point x="305" y="15" type="curve" smooth="yes"/>
      <point x="176" y="15"/>
      <point x="111" y="94"/>
      <point x="111" y="252" type="curve" smooth="yes"/>
      <point x="111" y="760" type="line"/>
      <point x="85" y="760" type="line"/>
      <point x="85" y="252" type="line" smooth="yes"/>
      <point x="85" y="77"/>
      <point x="161" y="-10"/>
    </contour>
  </outline>
</glyph>
<glyph name="tar-georgian" format="2">
  <advance width="745"/>
  <unicode hex="10E2"/>
  <note>
uni10E2
</note>
  <outline>
    <contour>
      <point x="372" y="-250" type="curve" smooth="yes"/>
      <point x="583" y="-250"/>
      <point x="686" y="-97"/>
      <point x="686" y="143" type="curve" smooth="yes"/>
      <point x="686" y="392"/>
      <point x="576" y="527"/>
      <point x="384" y="530" type="curve"/>
      <point x="384" y="548"/>
      <point x="385" y="566"/>
      <point x="385" y="584" type="curve"/>
      <point x="385" y="650" type="line"/>
      <point x="359" y="650" type="line"/>
      <point x="359" y="585" type="line"/>
      <point x="359" y="567"/>
      <point x="360" y="548"/>
      <point x="360" y="530" type="curve"/>
      <point x="167" y="520"/>
      <point x="59" y="373"/>
      <point x="59" y="144" type="curve" smooth="yes"/>
      <point x="59" y="-97"/>
      <point x="164" y="-250"/>
    </contour>
    <contour>
      <point x="373" y="-225" type="curve" smooth="yes"/>
      <point x="178" y="-225"/>
      <point x="86" y="-81"/>
      <point x="86" y="144" type="curve" smooth="yes"/>
      <point x="86" y="354"/>
      <point x="176" y="496"/>
      <point x="360" y="506" type="curve"/>
      <point x="360" y="481"/>
      <point x="359" y="456"/>
      <point x="359" y="431" type="curve"/>
      <point x="359" y="190" type="line"/>
      <point x="385" y="190" type="line"/>
      <point x="385" y="434" type="line"/>
      <point x="385" y="458"/>
      <point x="384" y="482"/>
      <point x="384" y="506" type="curve"/>
      <point x="559" y="503"/>
      <point x="659" y="377"/>
      <point x="659" y="143" type="curve" smooth="yes"/>
      <point x="659" y="-84"/>
      <point x="569" y="-225"/>
    </contour>
  </outline>
</glyph>
<glyph name="un-georgian" format="2">
  <advance width="574"/>
  <unicode hex="10E3"/>
  <note>
uni10E3
</note>
  <anchor x="287" y="528" name="top"/>
  <outline>
    <contour>
      <point x="278" y="-250" type="curve" smooth="yes"/>
      <point x="431" y="-250"/>
      <point x="489" y="-142"/>
      <point x="489" y="3" type="curve" smooth="yes"/>
      <point x="489" y="373" type="line" smooth="yes"/>
      <point x="489" y="481"/>
      <point x="439" y="538"/>
      <point x="349" y="538" type="curve" smooth="yes"/>
      <point x="286" y="538"/>
      <point x="237" y="499"/>
      <point x="225" y="437" type="curve"/>
      <point x="223" y="437" type="line"/>
      <point x="210" y="499"/>
      <point x="173" y="533"/>
      <point x="98" y="533" type="curve" smooth="yes"/>
      <point x="50" y="533" type="line"/>
      <point x="50" y="508" type="line"/>
      <point x="97" y="508" type="line" smooth="yes"/>
      <point x="180" y="508"/>
      <point x="210" y="452"/>
      <point x="210" y="373" type="curve" smooth="yes"/>
      <point x="210" y="246" type="line"/>
      <point x="236" y="246" type="line"/>
      <point x="236" y="373" type="line" smooth="yes"/>
      <point x="236" y="453"/>
      <point x="277" y="513"/>
      <point x="348" y="513" type="curve" smooth="yes"/>
      <point x="427" y="513"/>
      <point x="463" y="459"/>
      <point x="463" y="373" type="curve" smooth="yes"/>
      <point x="463" y="3" type="line" smooth="yes"/>
      <point x="463" y="-127"/>
      <point x="411" y="-225"/>
      <point x="278" y="-225" type="curve" smooth="yes"/>
      <point x="161" y="-225"/>
      <point x="86" y="-159"/>
      <point x="86" y="-25" type="curve" smooth="yes"/>
      <point x="86" y="16"/>
      <point x="94" y="48"/>
      <point x="105" y="74" type="curve"/>
      <point x="80" y="74" type="line"/>
      <point x="69" y="49"/>
      <point x="60" y="20"/>
      <point x="60" y="-25" type="curve" smooth="yes"/>
      <point x="60" y="-173"/>
      <point x="141" y="-250"/>
    </contour>
  </outline>
</glyph>
<glyph name="phar-georgian" format="2">
  <advance width="820"/>
  <unicode hex="10E4"/>
  <note>
uni10E4
</note>
  <outline>
    <contour>
      <point x="493" y="-250" type="curve" smooth="yes"/>
      <point x="681" y="-250"/>
      <point x="744" y="-146"/>
      <point x="744" y="-41" type="curve" smooth="yes"/>
      <point x="744" y="45"/>
      <point x="706" y="113"/>
      <point x="627" y="130" type="curve"/>
      <point x="627" y="132" type="line"/>
      <point x="706" y="148"/>
      <point x="761" y="221"/>
      <point x="761" y="328" type="curve" smooth="yes"/>
      <point x="761" y="451"/>
      <point x="711" y="538"/>
      <point x="593" y="538" type="curve" smooth="yes"/>
      <point x="511" y="538"/>
      <point x="445" y="484"/>
      <point x="440" y="372" type="curve"/>
      <point x="439" y="372" type="line"/>
      <point x="428" y="470"/>
      <point x="366" y="538"/>
      <point x="256" y="538" type="curve" smooth="yes"/>
      <point x="124" y="538"/>
      <point x="59" y="432"/>
      <point x="59" y="299" type="curve" smooth="yes"/>
      <point x="59" y="177"/>
      <point x="120" y="60"/>
      <point x="257" y="60" type="curve" smooth="yes"/>
      <point x="392" y="60"/>
      <point x="455" y="179"/>
      <point x="455" y="299" type="curve" smooth="yes"/>
      <point x="455" y="317" type="line" smooth="yes"/>
      <point x="455" y="439"/>
      <point x="496" y="513"/>
      <point x="593" y="513" type="curve" smooth="yes"/>
      <point x="700" y="513"/>
      <point x="734" y="434"/>
      <point x="734" y="328" type="curve" smooth="yes"/>
      <point x="734" y="216"/>
      <point x="674" y="144"/>
      <point x="571" y="144" type="curve" smooth="yes"/>
      <point x="538" y="144" type="line"/>
      <point x="538" y="119" type="line"/>
      <point x="563" y="119" type="line" smooth="yes"/>
      <point x="674" y="119"/>
      <point x="717" y="49"/>
      <point x="717" y="-41" type="curve" smooth="yes"/>
      <point x="717" y="-131"/>
      <point x="661" y="-225"/>
      <point x="493" y="-225" type="curve" smooth="yes"/>
      <point x="334" y="-225"/>
      <point x="282" y="-150"/>
      <point x="282" y="-74" type="curve" smooth="yes"/>
      <point x="282" y="-64"/>
      <point x="283" y="-53"/>
      <point x="285" y="-43" type="curve"/>
      <point x="260" y="-43" type="line"/>
      <point x="258" y="-55"/>
      <point x="256" y="-67"/>
      <point x="256" y="-79" type="curve" smooth="yes"/>
      <point x="256" y="-164"/>
      <point x="319" y="-250"/>
    </contour>
    <contour>
      <point x="257" y="85" type="curve" smooth="yes"/>
      <point x="137" y="85"/>
      <point x="86" y="187"/>
      <point x="86" y="299" type="curve" smooth="yes"/>
      <point x="86" y="420"/>
      <point x="139" y="513"/>
      <point x="256" y="513" type="curve" smooth="yes"/>
      <point x="378" y="513"/>
      <point x="428" y="420"/>
      <point x="428" y="299" type="curve" smooth="yes"/>
      <point x="428" y="189"/>
      <point x="375" y="85"/>
    </contour>
  </outline>
</glyph>
<glyph name="khar-georgian" format="2">
  <advance width="568"/>
  <unicode hex="10E5"/>
  <note>
uni10E5
</note>
  <outline>
    <contour>
      <point x="272" y="-250" type="curve" smooth="yes"/>
      <point x="425" y="-250"/>
      <point x="483" y="-142"/>
      <point x="483" y="3" type="curve" smooth="yes"/>
      <point x="483" y="760" type="line"/>
      <point x="457" y="760" type="line"/>
      <point x="457" y="525" type="line" smooth="yes"/>
      <point x="457" y="493"/>
      <point x="458" y="438"/>
      <point x="459" y="405" type="curve"/>
      <point x="457" y="405" type="line"/>
      <point x="434" y="482"/>
      <point x="368" y="538"/>
      <point x="272" y="538" type="curve" smooth="yes"/>
      <point x="153" y="538"/>
      <point x="82" y="454"/>
      <point x="82" y="350" type="curve" smooth="yes"/>
      <point x="82" y="316"/>
      <point x="89" y="290"/>
      <point x="93" y="278" type="curve"/>
      <point x="118" y="278" type="line"/>
      <point x="115" y="289"/>
      <point x="108" y="314"/>
      <point x="108" y="350" type="curve" smooth="yes"/>
      <point x="108" y="442"/>
      <point x="171" y="513"/>
      <point x="272" y="513" type="curve" smooth="yes"/>
      <point x="392" y="513"/>
      <point x="457" y="433"/>
      <point x="457" y="272" type="curve" smooth="yes"/>
      <point x="457" y="3" type="line" smooth="yes"/>
      <point x="457" y="-127"/>
      <point x="405" y="-225"/>
      <point x="272" y="-225" type="curve" smooth="yes"/>
      <point x="155" y="-225"/>
      <point x="80" y="-159"/>
      <point x="80" y="-25" type="curve" smooth="yes"/>
      <point x="80" y="16"/>
      <point x="88" y="48"/>
      <point x="99" y="74" type="curve"/>
      <point x="74" y="74" type="line"/>
      <point x="63" y="49"/>
      <point x="54" y="20"/>
      <point x="54" y="-25" type="curve" smooth="yes"/>
      <point x="54" y="-173"/>
      <point x="135" y="-250"/>
    </contour>
  </outline>
</glyph>
<glyph name="ghan-georgian" format="2">
  <advance width="757"/>
  <unicode hex="10E6"/>
  <note>
uni10E6
</note>
  <outline>
    <contour>
      <point x="521" y="-250" type="curve"/>
      <point x="545" y="-237" type="line"/>
      <point x="498" y="-147"/>
      <point x="428" y="-101"/>
      <point x="336" y="-68" type="curve" smooth="yes"/>
      <point x="163" y="-6"/>
      <point x="86" y="111"/>
      <point x="86" y="287" type="curve" smooth="yes"/>
      <point x="86" y="436"/>
      <point x="135" y="513"/>
      <point x="237" y="513" type="curve" smooth="yes"/>
      <point x="324" y="513"/>
      <point x="366" y="449"/>
      <point x="366" y="347" type="curve" smooth="yes"/>
      <point x="366" y="190" type="line"/>
      <point x="392" y="190" type="line"/>
      <point x="392" y="347" type="line" smooth="yes"/>
      <point x="392" y="449"/>
      <point x="428" y="513"/>
      <point x="523" y="513" type="curve" smooth="yes"/>
      <point x="627" y="513"/>
      <point x="671" y="436"/>
      <point x="671" y="287" type="curve" smooth="yes"/>
      <point x="671" y="203"/>
      <point x="656" y="136"/>
      <point x="629" y="66" type="curve"/>
      <point x="653" y="57" type="line"/>
      <point x="681" y="128"/>
      <point x="698" y="197"/>
      <point x="698" y="287" type="curve" smooth="yes"/>
      <point x="698" y="453"/>
      <point x="635" y="538"/>
      <point x="526" y="538" type="curve" smooth="yes"/>
      <point x="445" y="538"/>
      <point x="393" y="493"/>
      <point x="380" y="417" type="curve"/>
      <point x="378" y="417" type="line"/>
      <point x="366" y="493"/>
      <point x="310" y="538"/>
      <point x="234" y="538" type="curve" smooth="yes"/>
      <point x="122" y="538"/>
      <point x="59" y="453"/>
      <point x="59" y="287" type="curve" smooth="yes"/>
      <point x="59" y="112"/>
      <point x="140" y="-25"/>
      <point x="304" y="-77" type="curve"/>
      <point x="304" y="-79" type="line"/>
      <point x="233" y="-76"/>
      <point x="183" y="-90"/>
      <point x="143" y="-107" type="curve"/>
      <point x="154" y="-130" type="line"/>
      <point x="194" y="-112"/>
      <point x="241" y="-99"/>
      <point x="296" y="-99" type="curve" smooth="yes"/>
      <point x="380" y="-99"/>
      <point x="475" y="-155"/>
    </contour>
  </outline>
</glyph>
<glyph name="qar-georgian" format="2">
  <advance width="573"/>
  <unicode hex="10E7"/>
  <note>
uni10E7
</note>
  <outline>
    <contour>
      <point x="277" y="-250" type="curve" smooth="yes"/>
      <point x="429" y="-250"/>
      <point x="488" y="-142"/>
      <point x="488" y="3" type="curve" smooth="yes"/>
      <point x="488" y="528" type="line"/>
      <point x="462" y="528" type="line"/>
      <point x="462" y="359" type="line" smooth="yes"/>
      <point x="462" y="214"/>
      <point x="361" y="157"/>
      <point x="261" y="157" type="curve" smooth="yes"/>
      <point x="162" y="157"/>
      <point x="89" y="216"/>
      <point x="89" y="351" type="curve" smooth="yes"/>
      <point x="89" y="419"/>
      <point x="98" y="469"/>
      <point x="128" y="528" type="curve"/>
      <point x="102" y="528" type="line"/>
      <point x="74" y="473"/>
      <point x="62" y="425"/>
      <point x="62" y="351" type="curve" smooth="yes"/>
      <point x="62" y="202"/>
      <point x="145" y="131"/>
      <point x="261" y="131" type="curve" smooth="yes"/>
      <point x="361" y="131"/>
      <point x="433" y="178"/>
      <point x="463" y="256" type="curve"/>
      <point x="465" y="256" type="line"/>
      <point x="464" y="230"/>
      <point x="462" y="166"/>
      <point x="462" y="127" type="curve" smooth="yes"/>
      <point x="462" y="3" type="line" smooth="yes"/>
      <point x="462" y="-127"/>
      <point x="409" y="-225"/>
      <point x="277" y="-225" type="curve" smooth="yes"/>
      <point x="160" y="-225"/>
      <point x="85" y="-160"/>
      <point x="85" y="-59" type="curve" smooth="yes"/>
      <point x="85" y="-28"/>
      <point x="89" y="4"/>
      <point x="100" y="30" type="curve"/>
      <point x="75" y="30" type="line"/>
      <point x="64" y="5"/>
      <point x="59" y="-24"/>
      <point x="59" y="-59" type="curve" smooth="yes"/>
      <point x="59" y="-174"/>
      <point x="140" y="-250"/>
    </contour>
  </outline>
</glyph>
<glyph name="shin-georgian" format="2">
  <advance width="579"/>
  <unicode hex="10E8"/>
  <note>
uni10E8
</note>
  <outline>
    <contour>
      <point x="279" y="-10" type="curve" smooth="yes"/>
      <point x="418" y="-10"/>
      <point x="494" y="77"/>
      <point x="494" y="242" type="curve" smooth="yes"/>
      <point x="494" y="616" type="line" smooth="yes"/>
      <point x="494" y="731"/>
      <point x="420" y="770"/>
      <point x="347" y="770" type="curve" smooth="yes"/>
      <point x="291" y="770"/>
      <point x="241" y="741"/>
      <point x="227" y="685" type="curve"/>
      <point x="225" y="685" type="line"/>
      <point x="211" y="741"/>
      <point x="168" y="770"/>
      <point x="106" y="770" type="curve" smooth="yes"/>
      <point x="69" y="770"/>
      <point x="44" y="761"/>
      <point x="29" y="755" type="curve"/>
      <point x="35" y="731" type="line"/>
      <point x="52" y="738"/>
      <point x="77" y="745"/>
      <point x="106" y="745" type="curve" smooth="yes"/>
      <point x="180" y="745"/>
      <point x="214" y="701"/>
      <point x="214" y="623" type="curve" smooth="yes"/>
      <point x="214" y="592" type="line"/>
      <point x="239" y="592" type="line"/>
      <point x="239" y="638" type="line" smooth="yes"/>
      <point x="239" y="713"/>
      <point x="288" y="745"/>
      <point x="347" y="745" type="curve" smooth="yes"/>
      <point x="408" y="745"/>
      <point x="468" y="715"/>
      <point x="468" y="608" type="curve" smooth="yes"/>
      <point x="468" y="495" type="line" smooth="yes"/>
      <point x="468" y="463"/>
      <point x="469" y="408"/>
      <point x="470" y="375" type="curve"/>
      <point x="468" y="375" type="line"/>
      <point x="445" y="452"/>
      <point x="379" y="508"/>
      <point x="277" y="508" type="curve" smooth="yes"/>
      <point x="147" y="508"/>
      <point x="59" y="414"/>
      <point x="59" y="256" type="curve" smooth="yes"/>
      <point x="59" y="94"/>
      <point x="133" y="-10"/>
    </contour>
    <contour>
      <point x="279" y="15" type="curve" smooth="yes"/>
      <point x="154" y="15"/>
      <point x="86" y="106"/>
      <point x="86" y="256" type="curve" smooth="yes"/>
      <point x="86" y="400"/>
      <point x="163" y="483"/>
      <point x="277" y="483" type="curve" smooth="yes"/>
      <point x="403" y="483"/>
      <point x="468" y="403"/>
      <point x="468" y="262" type="curve" smooth="yes"/>
      <point x="468" y="242" type="line" smooth="yes"/>
      <point x="468" y="94"/>
      <point x="403" y="15"/>
    </contour>
  </outline>
</glyph>
<glyph name="chin-georgian" format="2">
  <advance width="569"/>
  <unicode hex="10E9"/>
  <note>
uni10E9
</note>
  <outline>
    <contour>
      <point x="85" y="0" type="line"/>
      <point x="111" y="0" type="line"/>
      <point x="111" y="237" type="line" smooth="yes"/>
      <point x="111" y="396"/>
      <point x="199" y="487"/>
      <point x="305" y="487" type="curve" smooth="yes"/>
      <point x="402" y="487"/>
      <point x="483" y="416"/>
      <point x="483" y="274" type="curve" smooth="yes"/>
      <point x="483" y="158"/>
      <point x="460" y="85"/>
      <point x="424" y="0" type="curve"/>
      <point x="452" y="0" type="line"/>
      <point x="481" y="68"/>
      <point x="510" y="155"/>
      <point x="510" y="274" type="curve" smooth="yes"/>
      <point x="510" y="425"/>
      <point x="432" y="507"/>
      <point x="310" y="511" type="curve"/>
      <point x="310" y="513" type="line"/>
      <point x="366" y="541"/>
      <point x="394" y="582"/>
      <point x="394" y="642" type="curve" smooth="yes"/>
      <point x="394" y="722"/>
      <point x="335" y="770"/>
      <point x="243" y="770" type="curve" smooth="yes"/>
      <point x="158" y="770"/>
      <point x="85" y="713"/>
      <point x="85" y="599" type="curve" smooth="yes"/>
    </contour>
    <contour>
      <point x="109" y="368" type="line"/>
      <point x="110" y="421"/>
      <point x="111" y="428"/>
      <point x="111" y="458" type="curve" smooth="yes"/>
      <point x="111" y="597" type="line" smooth="yes"/>
      <point x="111" y="692"/>
      <point x="161" y="745"/>
      <point x="243" y="745" type="curve" smooth="yes"/>
      <point x="321" y="745"/>
      <point x="368" y="708"/>
      <point x="368" y="642" type="curve" smooth="yes"/>
      <point x="368" y="570"/>
      <point x="320" y="536"/>
      <point x="246" y="505" type="curve" smooth="yes"/>
      <point x="184" y="479"/>
      <point x="138" y="443"/>
      <point x="112" y="368" type="curve"/>
    </contour>
  </outline>
</glyph>
<glyph name="can-georgian" format="2">
  <advance width="616"/>
  <unicode hex="10EA"/>
  <note>
uni10EA
</note>
  <outline>
    <contour>
      <point x="328" y="-240" type="curve" smooth="yes"/>
      <point x="483" y="-240"/>
      <point x="562" y="-159"/>
      <point x="562" y="-18" type="curve" smooth="yes"/>
      <point x="562" y="93"/>
      <point x="489" y="165"/>
      <point x="407" y="177" type="curve"/>
      <point x="407" y="179" type="line"/>
      <point x="489" y="188"/>
      <point x="539" y="230"/>
      <point x="539" y="308" type="curve" smooth="yes"/>
      <point x="539" y="370"/>
      <point x="508" y="407"/>
      <point x="469" y="437" type="curve" smooth="yes"/>
      <point x="435" y="463"/>
      <point x="402" y="487"/>
      <point x="402" y="528" type="curve"/>
      <point x="376" y="528" type="line"/>
      <point x="376" y="475"/>
      <point x="415" y="447"/>
      <point x="449" y="420" type="curve" smooth="yes"/>
      <point x="485" y="392"/>
      <point x="512" y="362"/>
      <point x="512" y="308" type="curve" smooth="yes"/>
      <point x="512" y="230"/>
      <point x="452" y="192"/>
      <point x="357" y="192" type="curve" smooth="yes"/>
      <point x="296" y="192" type="line"/>
      <point x="296" y="167" type="line"/>
      <point x="341" y="167" type="line" smooth="yes"/>
      <point x="452" y="167"/>
      <point x="535" y="97"/>
      <point x="535" y="-18" type="curve" smooth="yes"/>
      <point x="535" y="-136"/>
      <point x="473" y="-215"/>
      <point x="328" y="-215" type="curve" smooth="yes"/>
      <point x="170" y="-215"/>
      <point x="86" y="-80"/>
      <point x="86" y="144" type="curve" smooth="yes"/>
      <point x="86" y="285"/>
      <point x="119" y="428"/>
      <point x="177" y="528" type="curve"/>
      <point x="149" y="528" type="line"/>
      <point x="94" y="434"/>
      <point x="59" y="285"/>
      <point x="59" y="144" type="curve" smooth="yes"/>
      <point x="59" y="-106"/>
      <point x="157" y="-240"/>
    </contour>
  </outline>
</glyph>
<glyph name="jil-georgian" format="2">
  <advance width="579"/>
  <unicode hex="10EB"/>
  <note>
uni10EB
</note>
  <outline>
    <contour>
      <point x="279" y="-10" type="curve" smooth="yes"/>
      <point x="418" y="-10"/>
      <point x="494" y="77"/>
      <point x="494" y="252" type="curve" smooth="yes"/>
      <point x="494" y="760" type="line"/>
      <point x="468" y="760" type="line"/>
      <point x="468" y="525" type="line" smooth="yes"/>
      <point x="468" y="493"/>
      <point x="469" y="438"/>
      <point x="470" y="405" type="curve"/>
      <point x="468" y="405" type="line"/>
      <point x="445" y="482"/>
      <point x="379" y="538"/>
      <point x="277" y="538" type="curve" smooth="yes"/>
      <point x="147" y="538"/>
      <point x="59" y="444"/>
      <point x="59" y="266" type="curve" smooth="yes"/>
      <point x="59" y="94"/>
      <point x="133" y="-10"/>
    </contour>
    <contour>
      <point x="279" y="15" type="curve" smooth="yes"/>
      <point x="154" y="15"/>
      <point x="86" y="106"/>
      <point x="86" y="266" type="curve" smooth="yes"/>
      <point x="86" y="430"/>
      <point x="163" y="513"/>
      <point x="277" y="513" type="curve" smooth="yes"/>
      <point x="403" y="513"/>
      <point x="468" y="433"/>
      <point x="468" y="272" type="curve" smooth="yes"/>
      <point x="468" y="252" type="line" smooth="yes"/>
      <point x="468" y="94"/>
      <point x="403" y="15"/>
    </contour>
  </outline>
</glyph>
<glyph name="cil-georgian" format="2">
  <advance width="579"/>
  <unicode hex="10EC"/>
  <note>
uni10EC
</note>
  <outline>
    <contour>
      <point x="300" y="-10" type="curve" smooth="yes"/>
      <point x="446" y="-10"/>
      <point x="520" y="94"/>
      <point x="520" y="256" type="curve" smooth="yes"/>
      <point x="520" y="414"/>
      <point x="432" y="508"/>
      <point x="302" y="508" type="curve" smooth="yes"/>
      <point x="200" y="508"/>
      <point x="134" y="452"/>
      <point x="111" y="375" type="curve"/>
      <point x="109" y="375" type="line"/>
      <point x="110" y="408"/>
      <point x="111" y="463"/>
      <point x="111" y="495" type="curve" smooth="yes"/>
      <point x="111" y="608" type="line" smooth="yes"/>
      <point x="111" y="715"/>
      <point x="171" y="745"/>
      <point x="232" y="745" type="curve" smooth="yes"/>
      <point x="291" y="745"/>
      <point x="340" y="713"/>
      <point x="340" y="638" type="curve" smooth="yes"/>
      <point x="340" y="592" type="line"/>
      <point x="365" y="592" type="line"/>
      <point x="365" y="623" type="line" smooth="yes"/>
      <point x="365" y="701"/>
      <point x="399" y="745"/>
      <point x="473" y="745" type="curve" smooth="yes"/>
      <point x="502" y="745"/>
      <point x="527" y="738"/>
      <point x="544" y="731" type="curve"/>
      <point x="550" y="755" type="line"/>
      <point x="535" y="761"/>
      <point x="510" y="770"/>
      <point x="473" y="770" type="curve" smooth="yes"/>
      <point x="411" y="770"/>
      <point x="368" y="741"/>
      <point x="354" y="685" type="curve"/>
      <point x="352" y="685" type="line"/>
      <point x="338" y="741"/>
      <point x="288" y="770"/>
      <point x="232" y="770" type="curve" smooth="yes"/>
      <point x="159" y="770"/>
      <point x="85" y="731"/>
      <point x="85" y="616" type="curve" smooth="yes"/>
      <point x="85" y="242" type="line" smooth="yes"/>
      <point x="85" y="77"/>
      <point x="161" y="-10"/>
    </contour>
    <contour>
      <point x="300" y="15" type="curve" smooth="yes"/>
      <point x="176" y="15"/>
      <point x="111" y="94"/>
      <point x="111" y="242" type="curve" smooth="yes"/>
      <point x="111" y="262" type="line" smooth="yes"/>
      <point x="111" y="403"/>
      <point x="176" y="483"/>
      <point x="302" y="483" type="curve" smooth="yes"/>
      <point x="416" y="483"/>
      <point x="493" y="400"/>
      <point x="493" y="256" type="curve" smooth="yes"/>
      <point x="493" y="106"/>
      <point x="425" y="15"/>
    </contour>
  </outline>
</glyph>
<glyph name="char-georgian" format="2">
  <advance width="556"/>
  <unicode hex="10ED"/>
  <note>
uni10ED
</note>
  <outline>
    <contour>
      <point x="286" y="-250" type="curve" smooth="yes"/>
      <point x="439" y="-250"/>
      <point x="497" y="-141"/>
      <point x="497" y="-26" type="curve" smooth="yes"/>
      <point x="497" y="61"/>
      <point x="460" y="117"/>
      <point x="423" y="178" type="curve" smooth="yes"/>
      <point x="392" y="229"/>
      <point x="364" y="290"/>
      <point x="364" y="387" type="curve" smooth="yes"/>
      <point x="364" y="503" type="line"/>
      <point x="487" y="503" type="line"/>
      <point x="487" y="528" type="line"/>
      <point x="364" y="528" type="line"/>
      <point x="364" y="760" type="line"/>
      <point x="338" y="760" type="line"/>
      <point x="338" y="528" type="line"/>
      <point x="203" y="528" type="line" smooth="yes"/>
      <point x="121" y="528"/>
      <point x="54" y="482"/>
      <point x="54" y="390" type="curve" smooth="yes"/>
      <point x="54" y="304"/>
      <point x="112" y="252"/>
      <point x="194" y="252" type="curve" smooth="yes"/>
      <point x="269" y="252"/>
      <point x="324" y="293"/>
      <point x="341" y="365" type="curve"/>
      <point x="343" y="365" type="line"/>
      <point x="343" y="270"/>
      <point x="372" y="213"/>
      <point x="404" y="162" type="curve" smooth="yes"/>
      <point x="438" y="107"/>
      <point x="471" y="50"/>
      <point x="471" y="-26" type="curve" smooth="yes"/>
      <point x="471" y="-126"/>
      <point x="419" y="-225"/>
      <point x="286" y="-225" type="curve" smooth="yes"/>
      <point x="169" y="-225"/>
      <point x="94" y="-159"/>
      <point x="94" y="-35" type="curve" smooth="yes"/>
      <point x="94" y="6"/>
      <point x="102" y="38"/>
      <point x="113" y="64" type="curve"/>
      <point x="88" y="64" type="line"/>
      <point x="77" y="39"/>
      <point x="68" y="10"/>
      <point x="68" y="-35" type="curve" smooth="yes"/>
      <point x="68" y="-173"/>
      <point x="149" y="-250"/>
    </contour>
    <contour>
      <point x="194" y="277" type="curve" smooth="yes"/>
      <point x="130" y="277"/>
      <point x="80" y="314"/>
      <point x="80" y="390" type="curve" smooth="yes"/>
      <point x="80" y="461"/>
      <point x="121" y="503"/>
      <point x="210" y="503" type="curve" smooth="yes"/>
      <point x="338" y="503" type="line"/>
      <point x="338" y="460" type="line" smooth="yes"/>
      <point x="338" y="350"/>
      <point x="293" y="277"/>
    </contour>
  </outline>
</glyph>
<glyph name="xan-georgian" format="2">
  <advance width="579"/>
  <unicode hex="10EE"/>
  <note>
uni10EE
</note>
  <outline>
    <contour>
      <point x="300" y="-10" type="curve" smooth="yes"/>
      <point x="446" y="-10"/>
      <point x="520" y="94"/>
      <point x="520" y="266" type="curve" smooth="yes"/>
      <point x="520" y="444"/>
      <point x="432" y="538"/>
      <point x="302" y="538" type="curve" smooth="yes"/>
      <point x="200" y="538"/>
      <point x="134" y="482"/>
      <point x="111" y="405" type="curve"/>
      <point x="109" y="405" type="line"/>
      <point x="110" y="438"/>
      <point x="111" y="493"/>
      <point x="111" y="525" type="curve" smooth="yes"/>
      <point x="111" y="760" type="line"/>
      <point x="85" y="760" type="line"/>
      <point x="85" y="252" type="line" smooth="yes"/>
      <point x="85" y="77"/>
      <point x="161" y="-10"/>
    </contour>
    <contour>
      <point x="300" y="15" type="curve" smooth="yes"/>
      <point x="176" y="15"/>
      <point x="111" y="94"/>
      <point x="111" y="252" type="curve" smooth="yes"/>
      <point x="111" y="272" type="line" smooth="yes"/>
      <point x="111" y="433"/>
      <point x="176" y="513"/>
      <point x="302" y="513" type="curve" smooth="yes"/>
      <point x="416" y="513"/>
      <point x="493" y="430"/>
      <point x="493" y="266" type="curve" smooth="yes"/>
      <point x="493" y="106"/>
      <point x="425" y="15"/>
    </contour>
  </outline>
</glyph>
<glyph name="jhan-georgian" format="2">
  <advance width="536"/>
  <unicode hex="10EF"/>
  <note>
uni10EF
</note>
  <outline>
    <contour>
      <point x="278" y="347" type="curve" smooth="yes"/>
      <point x="278" y="374" type="line"/>
      <point x="472" y="336" type="line"/>
      <point x="472" y="361" type="line"/>
      <point x="278" y="399" type="line"/>
      <point x="278" y="538" type="line"/>
      <point x="252" y="538" type="line"/>
      <point x="252" y="404" type="line"/>
      <point x="64" y="441" type="line"/>
      <point x="64" y="416" type="line"/>
      <point x="252" y="379" type="line"/>
      <point x="252" y="347" type="line" smooth="yes"/>
      <point x="252" y="244"/>
      <point x="308" y="191"/>
      <point x="361" y="137" type="curve" smooth="yes"/>
      <point x="410" y="88"/>
      <point x="456" y="38"/>
      <point x="456" y="-53" type="curve" smooth="yes"/>
      <point x="456" y="-133"/>
      <point x="404" y="-225"/>
      <point x="272" y="-225" type="curve" smooth="yes"/>
      <point x="155" y="-225"/>
      <point x="80" y="-160"/>
      <point x="80" y="-59" type="curve" smooth="yes"/>
      <point x="80" y="-28"/>
      <point x="84" y="4"/>
      <point x="95" y="30" type="curve"/>
      <point x="70" y="30" type="line"/>
      <point x="59" y="5"/>
      <point x="54" y="-24"/>
      <point x="54" y="-59" type="curve" smooth="yes"/>
      <point x="54" y="-174"/>
      <point x="135" y="-250"/>
      <point x="272" y="-250" type="curve" smooth="yes"/>
      <point x="424" y="-250"/>
      <point x="482" y="-148"/>
      <point x="482" y="-53" type="curve" smooth="yes"/>
      <point x="482" y="46"/>
      <point x="432" y="101"/>
      <point x="382" y="152" type="curve" smooth="yes"/>
      <point x="330" y="205"/>
      <point x="278" y="255"/>
    </contour>
  </outline>
</glyph>
<glyph name="hae-georgian" format="2">
  <advance width="536"/>
  <unicode hex="10F0"/>
  <note>
uni10F0
</note>
  <outline>
    <contour>
      <point x="263" y="-10" type="curve" smooth="yes"/>
      <point x="413" y="-10"/>
      <point x="477" y="64"/>
      <point x="477" y="155" type="curve" smooth="yes"/>
      <point x="477" y="247"/>
      <point x="414" y="286"/>
      <point x="342" y="296" type="curve"/>
      <point x="342" y="298" type="line"/>
      <point x="414" y="307"/>
      <point x="467" y="335"/>
      <point x="467" y="407" type="curve" smooth="yes"/>
      <point x="467" y="470"/>
      <point x="414" y="506"/>
      <point x="342" y="513" type="curve"/>
      <point x="342" y="515" type="line"/>
      <point x="414" y="524"/>
      <point x="444" y="555"/>
      <point x="444" y="601" type="curve" smooth="yes"/>
      <point x="444" y="650"/>
      <point x="397" y="680"/>
      <point x="350" y="698" type="curve" smooth="yes"/>
      <point x="301" y="717"/>
      <point x="260" y="736"/>
      <point x="259" y="760" type="curve"/>
      <point x="233" y="760" type="line"/>
      <point x="233" y="720"/>
      <point x="287" y="700"/>
      <point x="338" y="680" type="curve" smooth="yes"/>
      <point x="384" y="662"/>
      <point x="417" y="638"/>
      <point x="417" y="601" type="curve" smooth="yes"/>
      <point x="417" y="551"/>
      <point x="377" y="528"/>
      <point x="282" y="528" type="curve" smooth="yes"/>
      <point x="231" y="528" type="line"/>
      <point x="231" y="503" type="line"/>
      <point x="286" y="503" type="line" smooth="yes"/>
      <point x="376" y="503"/>
      <point x="440" y="469"/>
      <point x="440" y="407" type="curve" smooth="yes"/>
      <point x="440" y="335"/>
      <point x="377" y="311"/>
      <point x="286" y="311" type="curve" smooth="yes"/>
      <point x="231" y="311" type="line"/>
      <point x="231" y="286" type="line"/>
      <point x="266" y="286" type="line" smooth="yes"/>
      <point x="377" y="286"/>
      <point x="450" y="246"/>
      <point x="450" y="155" type="curve" smooth="yes"/>
      <point x="450" y="79"/>
      <point x="393" y="15"/>
      <point x="263" y="15" type="curve" smooth="yes"/>
      <point x="137" y="15"/>
      <point x="79" y="90"/>
      <point x="79" y="175" type="curve" smooth="yes"/>
      <point x="79" y="186"/>
      <point x="80" y="198"/>
      <point x="82" y="210" type="curve"/>
      <point x="56" y="210" type="line"/>
      <point x="53" y="198"/>
      <point x="52" y="185"/>
      <point x="52" y="172" type="curve" smooth="yes"/>
      <point x="52" y="82"/>
      <point x="118" y="-10"/>
    </contour>
  </outline>
</glyph>
<glyph name="he-georgian" format="2">
  <advance width="621"/>
  <unicode hex="10F1"/>
  <note>
uni10F1
</note>
  <outline>
    <contour>
      <point x="348" y="-10" type="curve" smooth="yes"/>
      <point x="483" y="-10"/>
      <point x="562" y="51"/>
      <point x="562" y="155" type="curve" smooth="yes"/>
      <point x="562" y="247"/>
      <point x="499" y="286"/>
      <point x="427" y="296" type="curve"/>
      <point x="427" y="298" type="line"/>
      <point x="499" y="307"/>
      <point x="552" y="335"/>
      <point x="552" y="407" type="curve" smooth="yes"/>
      <point x="552" y="470"/>
      <point x="499" y="506"/>
      <point x="427" y="513" type="curve"/>
      <point x="427" y="515" type="line"/>
      <point x="499" y="524"/>
      <point x="529" y="555"/>
      <point x="529" y="597" type="curve" smooth="yes"/>
      <point x="529" y="644"/>
      <point x="494" y="671"/>
      <point x="459" y="690" type="curve" smooth="yes"/>
      <point x="425" y="709"/>
      <point x="394" y="728"/>
      <point x="394" y="760" type="curve"/>
      <point x="368" y="760" type="line"/>
      <point x="368" y="716"/>
      <point x="405" y="695"/>
      <point x="443" y="673" type="curve" smooth="yes"/>
      <point x="473" y="655"/>
      <point x="502" y="635"/>
      <point x="502" y="597" type="curve" smooth="yes"/>
      <point x="502" y="551"/>
      <point x="462" y="528"/>
      <point x="367" y="528" type="curve" smooth="yes"/>
      <point x="316" y="528" type="line"/>
      <point x="316" y="503" type="line"/>
      <point x="371" y="503" type="line" smooth="yes"/>
      <point x="461" y="503"/>
      <point x="525" y="469"/>
      <point x="525" y="407" type="curve" smooth="yes"/>
      <point x="525" y="335"/>
      <point x="462" y="311"/>
      <point x="371" y="311" type="curve" smooth="yes"/>
      <point x="316" y="311" type="line"/>
      <point x="316" y="286" type="line"/>
      <point x="351" y="286" type="line" smooth="yes"/>
      <point x="462" y="286"/>
      <point x="535" y="246"/>
      <point x="535" y="155" type="curve" smooth="yes"/>
      <point x="535" y="74"/>
      <point x="473" y="15"/>
      <point x="348" y="15" type="curve" smooth="yes"/>
      <point x="170" y="15"/>
      <point x="86" y="150"/>
      <point x="86" y="374" type="curve" smooth="yes"/>
      <point x="86" y="515"/>
      <point x="119" y="660"/>
      <point x="177" y="760" type="curve"/>
      <point x="149" y="760" type="line"/>
      <point x="94" y="666"/>
      <point x="59" y="515"/>
      <point x="59" y="374" type="curve" smooth="yes"/>
      <point x="59" y="124"/>
      <point x="157" y="-10"/>
    </contour>
  </outline>
</glyph>
<glyph name="hie-georgian" format="2">
  <advance width="539"/>
  <unicode hex="10F2"/>
  <note>
uni10F2
</note>
  <outline>
    <contour>
      <point x="66" y="0" type="line"/>
      <point x="143" y="0"/>
      <point x="210" y="17"/>
      <point x="268" y="44" type="curve"/>
      <point x="326" y="17"/>
      <point x="393" y="0"/>
      <point x="470" y="0" type="curve"/>
      <point x="470" y="25" type="line"/>
      <point x="405" y="25"/>
      <point x="346" y="36"/>
      <point x="294" y="56" type="curve"/>
      <point x="294" y="58" type="line"/>
      <point x="407" y="115"/>
      <point x="480" y="221"/>
      <point x="480" y="328" type="curve" smooth="yes"/>
      <point x="480" y="450"/>
      <point x="404" y="538"/>
      <point x="268" y="538" type="curve" smooth="yes"/>
      <point x="132" y="538"/>
      <point x="59" y="450"/>
      <point x="59" y="328" type="curve" smooth="yes"/>
      <point x="59" y="221"/>
      <point x="129" y="115"/>
      <point x="242" y="58" type="curve"/>
      <point x="242" y="56" type="line"/>
      <point x="190" y="36"/>
      <point x="131" y="25"/>
      <point x="66" y="25" type="curve"/>
    </contour>
    <contour>
      <point x="268" y="69" type="curve"/>
      <point x="158" y="123"/>
      <point x="86" y="230"/>
      <point x="86" y="328" type="curve" smooth="yes"/>
      <point x="86" y="433"/>
      <point x="149" y="513"/>
      <point x="268" y="513" type="curve" smooth="yes"/>
      <point x="387" y="513"/>
      <point x="453" y="433"/>
      <point x="453" y="328" type="curve" smooth="yes"/>
      <point x="453" y="230"/>
      <point x="378" y="123"/>
    </contour>
  </outline>
</glyph>
<glyph name="we-georgian" format="2">
  <advance width="550"/>
  <unicode hex="10F3"/>
  <note>
uni10F3
</note>
  <outline>
    <contour>
      <point x="275" y="-250" type="curve" smooth="yes"/>
      <point x="432" y="-250"/>
      <point x="496" y="-146"/>
      <point x="496" y="-21" type="curve" smooth="yes"/>
      <point x="496" y="122"/>
      <point x="416" y="205"/>
      <point x="264" y="205" type="curve"/>
      <point x="472" y="508" type="line"/>
      <point x="472" y="528" type="line"/>
      <point x="94" y="528" type="line"/>
      <point x="94" y="503" type="line"/>
      <point x="438" y="503" type="line"/>
      <point x="234" y="202" type="line"/>
      <point x="234" y="180" type="line"/>
      <point x="267" y="180" type="line" smooth="yes"/>
      <point x="399" y="180"/>
      <point x="469" y="114"/>
      <point x="469" y="-21" type="curve" smooth="yes"/>
      <point x="469" y="-131"/>
      <point x="412" y="-225"/>
      <point x="275" y="-225" type="curve" smooth="yes"/>
      <point x="155" y="-225"/>
      <point x="80" y="-159"/>
      <point x="80" y="-45" type="curve" smooth="yes"/>
      <point x="80" y="-4"/>
      <point x="88" y="28"/>
      <point x="99" y="54" type="curve"/>
      <point x="74" y="54" type="line"/>
      <point x="63" y="29"/>
      <point x="54" y="0"/>
      <point x="54" y="-45" type="curve" smooth="yes"/>
      <point x="54" y="-173"/>
      <point x="135" y="-250"/>
    </contour>
  </outline>
</glyph>
<glyph name="har-georgian" format="2">
  <advance width="540"/>
  <unicode hex="10F4"/>
  <note>
uni10F4
</note>
  <outline>
    <contour>
      <point x="266" y="-250" type="curve" smooth="yes"/>
      <point x="422" y="-250"/>
      <point x="486" y="-146"/>
      <point x="486" y="-31" type="curve" smooth="yes"/>
      <point x="486" y="85"/>
      <point x="403" y="157"/>
      <point x="321" y="169" type="curve"/>
      <point x="321" y="171" type="line"/>
      <point x="403" y="180"/>
      <point x="453" y="222"/>
      <point x="453" y="310" type="curve" smooth="yes"/>
      <point x="453" y="411"/>
      <point x="379" y="451"/>
      <point x="306" y="488" type="curve" smooth="yes"/>
      <point x="236" y="524"/>
      <point x="167" y="557"/>
      <point x="167" y="636" type="curve" smooth="yes"/>
      <point x="167" y="713"/>
      <point x="215" y="745"/>
      <point x="284" y="745" type="curve" smooth="yes"/>
      <point x="335" y="745"/>
      <point x="369" y="736"/>
      <point x="400" y="722" type="curve"/>
      <point x="410" y="746" type="line"/>
      <point x="381" y="759"/>
      <point x="344" y="770"/>
      <point x="284" y="770" type="curve" smooth="yes"/>
      <point x="208" y="770"/>
      <point x="141" y="731"/>
      <point x="141" y="635" type="curve" smooth="yes"/>
      <point x="141" y="541"/>
      <point x="218" y="506"/>
      <point x="292" y="468" type="curve" smooth="yes"/>
      <point x="361" y="433"/>
      <point x="426" y="397"/>
      <point x="426" y="310" type="curve" smooth="yes"/>
      <point x="426" y="222"/>
      <point x="366" y="184"/>
      <point x="271" y="184" type="curve" smooth="yes"/>
      <point x="210" y="184" type="line"/>
      <point x="210" y="159" type="line"/>
      <point x="255" y="159" type="line" smooth="yes"/>
      <point x="366" y="159"/>
      <point x="459" y="89"/>
      <point x="459" y="-31" type="curve" smooth="yes"/>
      <point x="459" y="-131"/>
      <point x="402" y="-225"/>
      <point x="266" y="-225" type="curve" smooth="yes"/>
      <point x="144" y="-225"/>
      <point x="81" y="-154"/>
      <point x="81" y="-62" type="curve" smooth="yes"/>
      <point x="81" y="-26"/>
      <point x="88" y="-1"/>
      <point x="91" y="10" type="curve"/>
      <point x="65" y="10" type="line"/>
      <point x="61" y="-2"/>
      <point x="54" y="-28"/>
      <point x="54" y="-62" type="curve" smooth="yes"/>
      <point x="54" y="-166"/>
      <point x="126" y="-250"/>
    </contour>
  </outline>
</glyph>
<glyph name="hoe-georgian" format="2">
  <advance width="618"/>
  <unicode hex="10F5"/>
  <note>
uni10F5
</note>
  <outline>
    <contour>
      <point x="267" y="-10" type="curve" smooth="yes"/>
      <point x="409" y="-10"/>
      <point x="470" y="59"/>
      <point x="470" y="212" type="curve" smooth="yes"/>
      <point x="470" y="290" type="line"/>
      <point x="589" y="290" type="line"/>
      <point x="589" y="315" type="line"/>
      <point x="470" y="315" type="line"/>
      <point x="470" y="464" type="line"/>
      <point x="589" y="464" type="line"/>
      <point x="589" y="489" type="line"/>
      <point x="470" y="489" type="line"/>
      <point x="470" y="568" type="line" smooth="yes"/>
      <point x="470" y="709"/>
      <point x="406" y="770"/>
      <point x="274" y="770" type="curve" smooth="yes"/>
      <point x="152" y="770"/>
      <point x="71" y="716"/>
      <point x="71" y="615" type="curve" smooth="yes"/>
      <point x="71" y="512"/>
      <point x="149" y="464"/>
      <point x="262" y="464" type="curve" smooth="yes"/>
      <point x="444" y="464" type="line"/>
      <point x="444" y="315" type="line"/>
      <point x="256" y="315" type="line" smooth="yes"/>
      <point x="142" y="315"/>
      <point x="59" y="261"/>
      <point x="59" y="160" type="curve" smooth="yes"/>
      <point x="59" y="45"/>
      <point x="143" y="-10"/>
    </contour>
    <contour>
      <point x="267" y="15" type="curve" smooth="yes"/>
      <point x="143" y="15"/>
      <point x="86" y="73"/>
      <point x="86" y="160" type="curve" smooth="yes"/>
      <point x="86" y="236"/>
      <point x="144" y="290"/>
      <point x="256" y="290" type="curve" smooth="yes"/>
      <point x="444" y="290" type="line"/>
      <point x="444" y="212" type="line" smooth="yes"/>
      <point x="444" y="78"/>
      <point x="393" y="15"/>
    </contour>
    <contour>
      <point x="262" y="489" type="line" smooth="yes"/>
      <point x="152" y="489"/>
      <point x="98" y="538"/>
      <point x="98" y="615" type="curve" smooth="yes"/>
      <point x="98" y="690"/>
      <point x="153" y="745"/>
      <point x="274" y="745" type="curve" smooth="yes"/>
      <point x="387" y="745"/>
      <point x="444" y="695"/>
      <point x="444" y="570" type="curve" smooth="yes"/>
      <point x="444" y="489" type="line"/>
    </contour>
  </outline>
</glyph>
<glyph name="fi-georgian" format="2">
  <advance width="906"/>
  <unicode hex="10F6"/>
  <note>
uni10F6
</note>
  <outline>
    <contour>
      <point x="348" y="-250" type="curve" smooth="yes"/>
      <point x="428" y="-250"/>
      <point x="466" y="-196"/>
      <point x="466" y="-106" type="curve" smooth="yes"/>
      <point x="466" y="-15" type="line" smooth="yes"/>
      <point x="466" y="27"/>
      <point x="466" y="62"/>
      <point x="464" y="112" type="curve"/>
      <point x="466" y="112" type="line"/>
      <point x="488" y="48"/>
      <point x="546" y="-10"/>
      <point x="636" y="-10" type="curve" smooth="yes"/>
      <point x="772" y="-10"/>
      <point x="847" y="91"/>
      <point x="847" y="274" type="curve" smooth="yes"/>
      <point x="847" y="445"/>
      <point x="777" y="538"/>
      <point x="643" y="538" type="curve" smooth="yes"/>
      <point x="546" y="538"/>
      <point x="489" y="475"/>
      <point x="466" y="398" type="curve"/>
      <point x="464" y="398" type="line"/>
      <point x="466" y="441"/>
      <point x="466" y="485"/>
      <point x="466" y="528" type="curve" smooth="yes"/>
      <point x="466" y="628" type="line" smooth="yes"/>
      <point x="466" y="708"/>
      <point x="500" y="745"/>
      <point x="563" y="745" type="curve" smooth="yes"/>
      <point x="580" y="745"/>
      <point x="593" y="743"/>
      <point x="603" y="741" type="curve"/>
      <point x="603" y="766" type="line"/>
      <point x="594" y="768"/>
      <point x="579" y="770"/>
      <point x="564" y="770" type="curve" smooth="yes"/>
      <point x="484" y="770"/>
      <point x="440" y="718"/>
      <point x="440" y="631" type="curve" smooth="yes"/>
      <point x="440" y="528" type="line" smooth="yes"/>
      <point x="440" y="485"/>
      <point x="440" y="441"/>
      <point x="442" y="398" type="curve"/>
      <point x="440" y="398" type="line"/>
      <point x="417" y="475"/>
      <point x="360" y="538"/>
      <point x="263" y="538" type="curve" smooth="yes"/>
      <point x="129" y="538"/>
      <point x="59" y="445"/>
      <point x="59" y="274" type="curve" smooth="yes"/>
      <point x="59" y="91"/>
      <point x="134" y="-10"/>
      <point x="270" y="-10" type="curve" smooth="yes"/>
      <point x="360" y="-10"/>
      <point x="418" y="48"/>
      <point x="440" y="112" type="curve"/>
      <point x="442" y="112" type="line"/>
      <point x="440" y="62"/>
      <point x="440" y="27"/>
      <point x="440" y="-15" type="curve" smooth="yes"/>
      <point x="440" y="-103" type="line" smooth="yes"/>
      <point x="440" y="-184"/>
      <point x="411" y="-225"/>
      <point x="348" y="-225" type="curve" smooth="yes"/>
      <point x="323" y="-225"/>
      <point x="305" y="-221"/>
      <point x="288" y="-215" type="curve"/>
      <point x="288" y="-241" type="line"/>
      <point x="303" y="-247"/>
      <point x="321" y="-250"/>
    </contour>
    <contour>
      <point x="271" y="15" type="curve" smooth="yes"/>
      <point x="153" y="15"/>
      <point x="86" y="101"/>
      <point x="86" y="274" type="curve" smooth="yes"/>
      <point x="86" y="434"/>
      <point x="147" y="513"/>
      <point x="264" y="513" type="curve" smooth="yes"/>
      <point x="377" y="513"/>
      <point x="440" y="418"/>
      <point x="440" y="265" type="curve" smooth="yes"/>
      <point x="440" y="240" type="line" smooth="yes"/>
      <point x="440" y="84"/>
      <point x="369" y="15"/>
    </contour>
    <contour>
      <point x="635" y="15" type="curve" smooth="yes"/>
      <point x="537" y="15"/>
      <point x="466" y="84"/>
      <point x="466" y="240" type="curve" smooth="yes"/>
      <point x="466" y="265" type="line" smooth="yes"/>
      <point x="466" y="418"/>
      <point x="529" y="513"/>
      <point x="642" y="513" type="curve" smooth="yes"/>
      <point x="759" y="513"/>
      <point x="820" y="434"/>
      <point x="820" y="274" type="curve" smooth="yes"/>
      <point x="820" y="101"/>
      <point x="753" y="15"/>
    </contour>
  </outline>
</glyph>
<glyph name="yn-georgian" format="2">
  <advance width="520"/>
  <unicode hex="10F7"/>
  <note>
uni10F7
</note>
  <anchor x="260" y="528" name="top"/>
  <outline>
    <contour>
      <point x="255" y="-250" type="curve" smooth="yes"/>
      <point x="386" y="-250"/>
      <point x="466" y="-180"/>
      <point x="466" y="-51" type="curve" smooth="yes"/>
      <point x="466" y="-12"/>
      <point x="461" y="8"/>
      <point x="457" y="23" type="curve"/>
      <point x="429" y="23" type="line"/>
      <point x="435" y="4"/>
      <point x="439" y="-12"/>
      <point x="439" y="-51" type="curve" smooth="yes"/>
      <point x="439" y="-160"/>
      <point x="375" y="-225"/>
      <point x="255" y="-225" type="curve" smooth="yes"/>
      <point x="148" y="-225"/>
      <point x="81" y="-157"/>
      <point x="81" y="-51" type="curve" smooth="yes"/>
      <point x="81" y="60"/>
      <point x="146" y="118"/>
      <point x="250" y="167" type="curve" smooth="yes"/>
      <point x="376" y="226"/>
      <point x="441" y="270"/>
      <point x="441" y="378" type="curve" smooth="yes"/>
      <point x="441" y="479"/>
      <point x="379" y="538"/>
      <point x="259" y="538" type="curve" smooth="yes"/>
      <point x="140" y="538"/>
      <point x="73" y="471"/>
      <point x="73" y="379" type="curve" smooth="yes"/>
      <point x="73" y="370"/>
      <point x="74" y="353"/>
      <point x="76" y="345" type="curve"/>
      <point x="103" y="345" type="line"/>
      <point x="101" y="353"/>
      <point x="100" y="369"/>
      <point x="100" y="379" type="curve" smooth="yes"/>
      <point x="100" y="456"/>
      <point x="154" y="513"/>
      <point x="259" y="513" type="curve" smooth="yes"/>
      <point x="363" y="513"/>
      <point x="414" y="463"/>
      <point x="414" y="378" type="curve" smooth="yes"/>
      <point x="414" y="285"/>
      <point x="345" y="239"/>
      <point x="239" y="190" type="curve" smooth="yes"/>
      <point x="126" y="138"/>
      <point x="54" y="74"/>
      <point x="54" y="-52" type="curve" smooth="yes"/>
      <point x="54" y="-176"/>
      <point x="134" y="-250"/>
    </contour>
  </outline>
</glyph>
<glyph name="elifi-georgian" format="2">
  <advance width="573"/>
  <unicode hex="10F8"/>
  <note>
uni10F8
</note>
  <outline>
    <contour>
      <point x="296" y="-250" type="curve" smooth="yes"/>
      <point x="433" y="-250"/>
      <point x="514" y="-174"/>
      <point x="514" y="-59" type="curve" smooth="yes"/>
      <point x="514" y="-24"/>
      <point x="509" y="5"/>
      <point x="498" y="30" type="curve"/>
      <point x="473" y="30" type="line"/>
      <point x="484" y="4"/>
      <point x="488" y="-28"/>
      <point x="488" y="-59" type="curve" smooth="yes"/>
      <point x="488" y="-160"/>
      <point x="413" y="-225"/>
      <point x="296" y="-225" type="curve" smooth="yes"/>
      <point x="164" y="-225"/>
      <point x="111" y="-127"/>
      <point x="111" y="3" type="curve" smooth="yes"/>
      <point x="111" y="127" type="line" smooth="yes"/>
      <point x="111" y="166"/>
      <point x="109" y="230"/>
      <point x="108" y="256" type="curve"/>
      <point x="110" y="256" type="line"/>
      <point x="140" y="178"/>
      <point x="212" y="131"/>
      <point x="312" y="131" type="curve" smooth="yes"/>
      <point x="428" y="131"/>
      <point x="511" y="202"/>
      <point x="511" y="351" type="curve" smooth="yes"/>
      <point x="511" y="425"/>
      <point x="499" y="473"/>
      <point x="471" y="528" type="curve"/>
      <point x="445" y="528" type="line"/>
      <point x="475" y="469"/>
      <point x="484" y="419"/>
      <point x="484" y="351" type="curve" smooth="yes"/>
      <point x="484" y="216"/>
      <point x="411" y="157"/>
      <point x="312" y="157" type="curve" smooth="yes"/>
      <point x="212" y="157"/>
      <point x="111" y="214"/>
      <point x="111" y="359" type="curve" smooth="yes"/>
      <point x="111" y="528" type="line"/>
      <point x="85" y="528" type="line"/>
      <point x="85" y="3" type="line" smooth="yes"/>
      <point x="85" y="-142"/>
      <point x="144" y="-250"/>
    </contour>
  </outline>
</glyph>
<glyph name="turnedgan-georgian" format="2">
  <advance width="574"/>
  <unicode hex="10F9"/>
  <note>
uni10F9
</note>
  <outline>
    <contour>
      <point x="288" y="538" type="curve" smooth="yes"/>
      <point x="131" y="538"/>
      <point x="59" y="419"/>
      <point x="59" y="274" type="curve" smooth="yes"/>
      <point x="59" y="116"/>
      <point x="140" y="33"/>
      <point x="230" y="21" type="curve"/>
      <point x="230" y="19" type="line"/>
      <point x="165" y="4"/>
      <point x="125" y="-39"/>
      <point x="125" y="-105" type="curve" smooth="yes"/>
      <point x="125" y="-184"/>
      <point x="183" y="-250"/>
      <point x="283" y="-250" type="curve" smooth="yes"/>
      <point x="375" y="-250"/>
      <point x="444" y="-191"/>
      <point x="444" y="-108" type="curve" smooth="yes"/>
      <point x="444" y="-97"/>
      <point x="443" y="-86"/>
      <point x="440" y="-74" type="curve"/>
      <point x="414" y="-74" type="line"/>
      <point x="416" y="-85"/>
      <point x="418" y="-96"/>
      <point x="418" y="-106" type="curve" smooth="yes"/>
      <point x="418" y="-176"/>
      <point x="367" y="-225"/>
      <point x="283" y="-225" type="curve" smooth="yes"/>
      <point x="197" y="-225"/>
      <point x="152" y="-175"/>
      <point x="152" y="-105" type="curve" smooth="yes"/>
      <point x="152" y="-28"/>
      <point x="212" y="6"/>
      <point x="293" y="10" type="curve" smooth="yes"/>
      <point x="427" y="17"/>
      <point x="515" y="116"/>
      <point x="515" y="274" type="curve" smooth="yes"/>
      <point x="515" y="421"/>
      <point x="440" y="538"/>
    </contour>
    <contour>
      <point x="288" y="513" type="curve" smooth="yes"/>
      <point x="423" y="513"/>
      <point x="488" y="411"/>
      <point x="488" y="274" type="curve" smooth="yes"/>
      <point x="488" y="128"/>
      <point x="414" y="35"/>
      <point x="282" y="35" type="curve" smooth="yes"/>
      <point x="141" y="35"/>
      <point x="86" y="146"/>
      <point x="86" y="274" type="curve" smooth="yes"/>
      <point x="86" y="409"/>
      <point x="148" y="513"/>
    </contour>
  </outline>
</glyph>
<glyph name="paragraph-georgian" format="2">
  <advance width="495"/>
  <unicode hex="10FB"/>
  <note>
uni10FB
</note>
  <outline>
    <contour>
      <point x="384" y="237" type="curve" smooth="yes"/>
      <point x="408" y="237"/>
      <point x="411" y="251"/>
      <point x="411" y="268" type="curve" smooth="yes"/>
      <point x="411" y="284"/>
      <point x="408" y="299"/>
      <point x="384" y="299" type="curve" smooth="yes"/>
      <point x="364" y="299"/>
      <point x="359" y="284"/>
      <point x="359" y="268" type="curve" smooth="yes"/>
      <point x="359" y="251"/>
      <point x="364" y="237"/>
    </contour>
    <contour>
      <point x="108" y="-8" type="curve" smooth="yes"/>
      <point x="132" y="-8"/>
      <point x="135" y="6"/>
      <point x="135" y="23" type="curve" smooth="yes"/>
      <point x="135" y="39"/>
      <point x="132" y="54"/>
      <point x="108" y="54" type="curve" smooth="yes"/>
      <point x="88" y="54"/>
      <point x="83" y="39"/>
      <point x="83" y="23" type="curve" smooth="yes"/>
      <point x="83" y="6"/>
      <point x="88" y="-8"/>
    </contour>
    <contour>
      <point x="108" y="424" type="curve" smooth="yes"/>
      <point x="132" y="424"/>
      <point x="135" y="438"/>
      <point x="135" y="455" type="curve" smooth="yes"/>
      <point x="135" y="471"/>
      <point x="132" y="486"/>
      <point x="108" y="486" type="curve" smooth="yes"/>
      <point x="88" y="486"/>
      <point x="83" y="471"/>
      <point x="83" y="455" type="curve" smooth="yes"/>
      <point x="83" y="438"/>
      <point x="88" y="424"/>
    </contour>
  </outline>
</glyph>
<glyph name="narMod-georgian" format="2">
  <advance width="337"/>
  <unicode hex="10FC"/>
  <note>
uni10FC
</note>
  <outline>
    <contour>
      <point x="174" y="409" type="curve" smooth="yes"/>
      <point x="258" y="409"/>
      <point x="302" y="468"/>
      <point x="302" y="566" type="curve" smooth="yes"/>
      <point x="302" y="667"/>
      <point x="251" y="719"/>
      <point x="179" y="719" type="curve" smooth="yes"/>
      <point x="124" y="719"/>
      <point x="87" y="691"/>
      <point x="74" y="649" type="curve"/>
      <point x="73" y="649" type="line"/>
      <point x="74" y="666"/>
      <point x="74" y="696"/>
      <point x="74" y="714" type="curve"/>
      <point x="74" y="744" type="line" smooth="yes"/>
      <point x="74" y="802"/>
      <point x="105" y="825"/>
      <point x="158" y="825" type="curve" smooth="yes"/>
      <point x="276" y="825" type="line"/>
      <point x="276" y="845" type="line"/>
      <point x="156" y="845" type="line" smooth="yes"/>
      <point x="94" y="845"/>
      <point x="50" y="815"/>
      <point x="50" y="745" type="curve" smooth="yes"/>
      <point x="50" y="560" type="line" smooth="yes"/>
      <point x="50" y="461"/>
      <point x="93" y="409"/>
    </contour>
    <contour>
      <point x="174" y="431" type="curve" smooth="yes"/>
      <point x="108" y="431"/>
      <point x="73" y="474"/>
      <point x="73" y="559" type="curve" smooth="yes"/>
      <point x="73" y="570" type="line" smooth="yes"/>
      <point x="73" y="655"/>
      <point x="107" y="699"/>
      <point x="175" y="699" type="curve" smooth="yes"/>
      <point x="235" y="699"/>
      <point x="277" y="654"/>
      <point x="277" y="566" type="curve" smooth="yes"/>
      <point x="277" y="482"/>
      <point x="240" y="431"/>
    </contour>
  </outline>
</glyph>
<glyph name="aen-georgian" format="2">
  <advance width="520"/>
  <unicode hex="10FD"/>
  <outline>
    <contour>
      <point x="265" y="-10" type="curve" smooth="yes"/>
      <point x="386" y="-10"/>
      <point x="466" y="64"/>
      <point x="466" y="188" type="curve" smooth="yes"/>
      <point x="466" y="314"/>
      <point x="394" y="370"/>
      <point x="281" y="422" type="curve" smooth="yes"/>
      <point x="175" y="471"/>
      <point x="106" y="517"/>
      <point x="106" y="610" type="curve" smooth="yes"/>
      <point x="106" y="695"/>
      <point x="157" y="745"/>
      <point x="261" y="745" type="curve" smooth="yes"/>
      <point x="366" y="745"/>
      <point x="420" y="688"/>
      <point x="420" y="611" type="curve" smooth="yes"/>
      <point x="420" y="601"/>
      <point x="419" y="585"/>
      <point x="417" y="577" type="curve"/>
      <point x="444" y="577" type="line"/>
      <point x="446" y="585"/>
      <point x="447" y="602"/>
      <point x="447" y="611" type="curve" smooth="yes"/>
      <point x="447" y="703"/>
      <point x="380" y="770"/>
      <point x="261" y="770" type="curve" smooth="yes"/>
      <point x="141" y="770"/>
      <point x="79" y="711"/>
      <point x="79" y="610" type="curve" smooth="yes"/>
      <point x="79" y="502"/>
      <point x="144" y="458"/>
      <point x="270" y="399" type="curve" smooth="yes"/>
      <point x="374" y="350"/>
      <point x="439" y="300"/>
      <point x="439" y="189" type="curve" smooth="yes"/>
      <point x="439" y="83"/>
      <point x="372" y="15"/>
      <point x="265" y="15" type="curve" smooth="yes"/>
      <point x="145" y="15"/>
      <point x="81" y="80"/>
      <point x="81" y="189" type="curve" smooth="yes"/>
      <point x="81" y="228"/>
      <point x="85" y="244"/>
      <point x="91" y="263" type="curve"/>
      <point x="63" y="263" type="line"/>
      <point x="59" y="248"/>
      <point x="54" y="228"/>
      <point x="54" y="189" type="curve" smooth="yes"/>
      <point x="54" y="60"/>
      <point x="134" y="-10"/>
    </contour>
  </outline>
</glyph>
<glyph name="hardsign-georgian" format="2">
  <advance width="539"/>
  <unicode hex="10FE"/>
  <outline>
    <contour>
      <point x="66" y="528" type="curve"/>
      <point x="66" y="503" type="line"/>
      <point x="131" y="503"/>
      <point x="190" y="492"/>
      <point x="242" y="472" type="curve"/>
      <point x="242" y="470" type="line"/>
      <point x="129" y="413"/>
      <point x="59" y="307"/>
      <point x="59" y="200" type="curve" smooth="yes"/>
      <point x="59" y="78"/>
      <point x="132" y="-10"/>
      <point x="268" y="-10" type="curve" smooth="yes"/>
      <point x="404" y="-10"/>
      <point x="480" y="78"/>
      <point x="480" y="200" type="curve" smooth="yes"/>
      <point x="480" y="307"/>
      <point x="407" y="413"/>
      <point x="294" y="470" type="curve"/>
      <point x="294" y="472" type="line"/>
      <point x="346" y="492"/>
      <point x="405" y="503"/>
      <point x="470" y="503" type="curve"/>
      <point x="470" y="528" type="line"/>
      <point x="393" y="528"/>
      <point x="326" y="511"/>
      <point x="268" y="484" type="curve"/>
      <point x="210" y="511"/>
      <point x="143" y="528"/>
    </contour>
    <contour>
      <point x="268" y="459" type="curve"/>
      <point x="378" y="405"/>
      <point x="453" y="298"/>
      <point x="453" y="200" type="curve" smooth="yes"/>
      <point x="453" y="95"/>
      <point x="387" y="15"/>
      <point x="268" y="15" type="curve" smooth="yes"/>
      <point x="149" y="15"/>
      <point x="86" y="95"/>
      <point x="86" y="200" type="curve" smooth="yes"/>
      <point x="86" y="298"/>
      <point x="158" y="405"/>
    </contour>
  </outline>
</glyph>
<glyph name="An-georgian" format="2">
  <advance width="572"/>
  <unicode hex="1C90"/>
  <anchor x="280" y="714" name="top"/>
  <outline>
    <contour>
      <point x="286" y="-10" type="curve" smooth="yes"/>
      <point x="438" y="-10"/>
      <point x="507" y="101"/>
      <point x="507" y="236" type="curve" smooth="yes"/>
      <point x="507" y="362"/>
      <point x="448" y="436"/>
      <point x="393" y="503" type="curve" smooth="yes"/>
      <point x="341" y="566"/>
      <point x="291" y="623"/>
      <point x="296" y="714" type="curve"/>
      <point x="270" y="714" type="line"/>
      <point x="264" y="617"/>
      <point x="314" y="557"/>
      <point x="367" y="493" type="curve" smooth="yes"/>
      <point x="422" y="427"/>
      <point x="480" y="357"/>
      <point x="480" y="236" type="curve" smooth="yes"/>
      <point x="480" y="116"/>
      <point x="417" y="15"/>
      <point x="286" y="15" type="curve" smooth="yes"/>
      <point x="164" y="15"/>
      <point x="86" y="91"/>
      <point x="86" y="221" type="curve" smooth="yes"/>
      <point x="86" y="261"/>
      <point x="93" y="316"/>
      <point x="110" y="359" type="curve"/>
      <point x="119" y="352" type="line"/>
      <point x="68" y="352" type="line"/>
      <point x="83" y="359" type="line"/>
      <point x="66" y="315"/>
      <point x="59" y="262"/>
      <point x="59" y="220" type="curve" smooth="yes"/>
      <point x="59" y="77"/>
      <point x="144" y="-10"/>
    </contour>
  </outline>
</glyph>
<glyph name="Ban-georgian" format="2">
  <advance width="594"/>
  <unicode hex="1C91"/>
  <outline>
    <contour>
      <point x="297" y="-10" type="curve" smooth="yes"/>
      <point x="445" y="-10"/>
      <point x="529" y="100"/>
      <point x="529" y="248" type="curve" smooth="yes"/>
      <point x="529" y="392"/>
      <point x="447" y="505"/>
      <point x="297" y="505" type="curve" smooth="yes"/>
      <point x="159" y="505"/>
      <point x="65" y="405"/>
      <point x="65" y="248" type="curve" smooth="yes"/>
      <point x="65" y="98"/>
      <point x="144" y="-10"/>
    </contour>
    <contour>
      <point x="297" y="15" type="curve" smooth="yes"/>
      <point x="171" y="15"/>
      <point x="92" y="111"/>
      <point x="92" y="248" type="curve" smooth="yes"/>
      <point x="92" y="393"/>
      <point x="175" y="480"/>
      <point x="297" y="480" type="curve" smooth="yes"/>
      <point x="429" y="480"/>
      <point x="502" y="376"/>
      <point x="502" y="248" type="curve" smooth="yes"/>
      <point x="502" y="113"/>
      <point x="428" y="15"/>
    </contour>
    <contour>
      <point x="325" y="499" type="line"/>
      <point x="336" y="522"/>
      <point x="342" y="541"/>
      <point x="342" y="564" type="curve" smooth="yes"/>
      <point x="342" y="604"/>
      <point x="312" y="632"/>
      <point x="284" y="652" type="curve" smooth="yes"/>
      <point x="266" y="665"/>
      <point x="242" y="685"/>
      <point x="244" y="714" type="curve"/>
      <point x="218" y="714" type="line"/>
      <point x="215" y="676"/>
      <point x="243" y="652"/>
      <point x="268" y="633" type="curve" smooth="yes"/>
      <point x="292" y="615"/>
      <point x="315" y="598"/>
      <point x="315" y="562" type="curve" smooth="yes"/>
      <point x="315" y="544"/>
      <point x="310" y="521"/>
      <point x="297" y="500" type="curve"/>
    </contour>
  </outline>
</glyph>
<glyph name="Gan-georgian" format="2">
  <advance width="582"/>
  <unicode hex="1C92"/>
  <outline>
    <contour>
      <point x="291" y="-10" type="curve" smooth="yes"/>
      <point x="439" y="-10"/>
      <point x="523" y="100"/>
      <point x="523" y="238" type="curve" smooth="yes"/>
      <point x="523" y="355"/>
      <point x="463" y="447"/>
      <point x="355" y="470" type="curve"/>
      <point x="355" y="472" type="line"/>
      <point x="419" y="486"/>
      <point x="460" y="528"/>
      <point x="460" y="589" type="curve" smooth="yes"/>
      <point x="460" y="662"/>
      <point x="396" y="724"/>
      <point x="292" y="724" type="curve" smooth="yes"/>
      <point x="197" y="724"/>
      <point x="119" y="669"/>
      <point x="119" y="592" type="curve" smooth="yes"/>
      <point x="119" y="582"/>
      <point x="120" y="571"/>
      <point x="122" y="560" type="curve"/>
      <point x="148" y="560" type="line"/>
      <point x="146" y="570"/>
      <point x="145" y="581"/>
      <point x="145" y="590" type="curve" smooth="yes"/>
      <point x="145" y="654"/>
      <point x="205" y="699"/>
      <point x="292" y="699" type="curve" smooth="yes"/>
      <point x="382" y="699"/>
      <point x="434" y="653"/>
      <point x="434" y="589" type="curve" smooth="yes"/>
      <point x="434" y="518"/>
      <point x="377" y="485"/>
      <point x="284" y="482" type="curve" smooth="yes"/>
      <point x="151" y="477"/>
      <point x="59" y="387"/>
      <point x="59" y="238" type="curve" smooth="yes"/>
      <point x="59" y="98"/>
      <point x="138" y="-10"/>
    </contour>
    <contour>
      <point x="291" y="15" type="curve" smooth="yes"/>
      <point x="165" y="15"/>
      <point x="86" y="111"/>
      <point x="86" y="238" type="curve" smooth="yes"/>
      <point x="86" y="373"/>
      <point x="169" y="457"/>
      <point x="291" y="457" type="curve" smooth="yes"/>
      <point x="423" y="457"/>
      <point x="496" y="356"/>
      <point x="496" y="238" type="curve" smooth="yes"/>
      <point x="496" y="113"/>
      <point x="422" y="15"/>
    </contour>
  </outline>
</glyph>
<glyph name="Don-georgian" format="2">
  <advance width="880"/>
  <unicode hex="1C93"/>
  <outline>
    <contour>
      <point x="573" y="0" type="curve"/>
      <point x="599" y="0" type="line"/>
      <point x="585" y="95"/>
      <point x="488" y="129"/>
      <point x="385" y="156" type="curve" smooth="yes"/>
      <point x="246" y="192"/>
      <point x="92" y="276"/>
      <point x="92" y="485" type="curve" smooth="yes"/>
      <point x="92" y="620"/>
      <point x="145" y="695"/>
      <point x="250" y="695" type="curve" smooth="yes"/>
      <point x="351" y="695"/>
      <point x="394" y="624"/>
      <point x="394" y="512" type="curve" smooth="yes"/>
      <point x="394" y="481" type="line" smooth="yes"/>
      <point x="394" y="352"/>
      <point x="467" y="243"/>
      <point x="603" y="243" type="curve" smooth="yes"/>
      <point x="744" y="243"/>
      <point x="815" y="351"/>
      <point x="815" y="481" type="curve" smooth="yes"/>
      <point x="815" y="615"/>
      <point x="740" y="720"/>
      <point x="604" y="720" type="curve" smooth="yes"/>
      <point x="494" y="720"/>
      <point x="423" y="650"/>
      <point x="412" y="563" type="curve"/>
      <point x="411" y="563" type="line"/>
      <point x="408" y="667"/>
      <point x="334" y="720"/>
      <point x="250" y="720" type="curve" smooth="yes"/>
      <point x="135" y="720"/>
      <point x="65" y="637"/>
      <point x="65" y="485" type="curve" smooth="yes"/>
      <point x="65" y="324"/>
      <point x="158" y="197"/>
      <point x="328" y="151" type="curve"/>
      <point x="328" y="149" type="line"/>
      <point x="255" y="149"/>
      <point x="207" y="137"/>
      <point x="167" y="117" type="curve"/>
      <point x="178" y="95" type="line"/>
      <point x="222" y="117"/>
      <point x="278" y="128"/>
      <point x="333" y="128" type="curve" smooth="yes"/>
      <point x="446" y="128"/>
      <point x="559" y="84"/>
    </contour>
    <contour>
      <point x="603" y="267" type="curve" smooth="yes"/>
      <point x="484" y="267"/>
      <point x="421" y="363"/>
      <point x="421" y="481" type="curve" smooth="yes"/>
      <point x="421" y="603"/>
      <point x="481" y="695"/>
      <point x="604" y="695" type="curve" smooth="yes"/>
      <point x="724" y="695"/>
      <point x="788" y="603"/>
      <point x="788" y="481" type="curve" smooth="yes"/>
      <point x="788" y="361"/>
      <point x="727" y="267"/>
    </contour>
  </outline>
</glyph>
<glyph name="En-georgian" format="2">
  <advance width="599"/>
  <unicode hex="1C94"/>
  <anchor x="292" y="714" name="top"/>
  <outline>
    <contour>
      <point x="285" y="-10" type="curve"/>
      <point x="442" y="-10"/>
      <point x="505" y="91"/>
      <point x="505" y="226" type="curve"/>
      <point x="505" y="510" type="line"/>
      <point x="505" y="636"/>
      <point x="437" y="724"/>
      <point x="294" y="724" type="curve"/>
      <point x="162" y="724"/>
      <point x="88" y="646"/>
      <point x="88" y="539" type="curve"/>
      <point x="88" y="508"/>
      <point x="91" y="484"/>
      <point x="96" y="460" type="curve"/>
      <point x="122" y="460" type="line"/>
      <point x="118" y="483"/>
      <point x="114" y="507"/>
      <point x="114" y="539" type="curve"/>
      <point x="114" y="634"/>
      <point x="180" y="699"/>
      <point x="294" y="699" type="curve"/>
      <point x="415" y="699"/>
      <point x="479" y="626"/>
      <point x="479" y="510" type="curve"/>
      <point x="479" y="226" type="line"/>
      <point x="479" y="106"/>
      <point x="421" y="15"/>
      <point x="285" y="15" type="curve"/>
      <point x="163" y="15"/>
      <point x="85" y="81"/>
      <point x="85" y="201" type="curve"/>
      <point x="85" y="239"/>
      <point x="92" y="270"/>
      <point x="99" y="292" type="curve"/>
      <point x="73" y="292" type="line"/>
      <point x="65" y="269"/>
      <point x="59" y="240"/>
      <point x="59" y="200" type="curve"/>
      <point x="59" y="67"/>
      <point x="143" y="-10"/>
    </contour>
  </outline>
</glyph>
<glyph name="Vin-georgian" format="2">
  <advance width="575"/>
  <unicode hex="1C95"/>
  <outline>
    <contour>
      <point x="289" y="-10" type="curve" smooth="yes"/>
      <point x="447" y="-10"/>
      <point x="516" y="91"/>
      <point x="516" y="208" type="curve" smooth="yes"/>
      <point x="516" y="313"/>
      <point x="447" y="379"/>
      <point x="359" y="391" type="curve"/>
      <point x="359" y="393" type="line"/>
      <point x="447" y="406"/>
      <point x="495" y="461"/>
      <point x="495" y="549" type="curve" smooth="yes"/>
      <point x="495" y="640"/>
      <point x="430" y="724"/>
      <point x="292" y="724" type="curve" smooth="yes"/>
      <point x="160" y="724"/>
      <point x="88" y="643"/>
      <point x="88" y="555" type="curve" smooth="yes"/>
      <point x="88" y="534"/>
      <point x="92" y="510"/>
      <point x="95" y="497" type="curve"/>
      <point x="121" y="497" type="line"/>
      <point x="118" y="509"/>
      <point x="114" y="532"/>
      <point x="114" y="555" type="curve" smooth="yes"/>
      <point x="114" y="631"/>
      <point x="179" y="699"/>
      <point x="292" y="699" type="curve" smooth="yes"/>
      <point x="411" y="699"/>
      <point x="469" y="627"/>
      <point x="469" y="549" type="curve" smooth="yes"/>
      <point x="469" y="452"/>
      <point x="404" y="404"/>
      <point x="297" y="404" type="curve" smooth="yes"/>
      <point x="242" y="404" type="line"/>
      <point x="242" y="380" type="line"/>
      <point x="289" y="380" type="line" smooth="yes"/>
      <point x="403" y="380"/>
      <point x="489" y="322"/>
      <point x="489" y="208" type="curve" smooth="yes"/>
      <point x="489" y="101"/>
      <point x="427" y="15"/>
      <point x="289" y="15" type="curve" smooth="yes"/>
      <point x="167" y="15"/>
      <point x="85" y="77"/>
      <point x="85" y="193" type="curve" smooth="yes"/>
      <point x="85" y="221"/>
      <point x="93" y="251"/>
      <point x="101" y="274" type="curve"/>
      <point x="76" y="274" type="line"/>
      <point x="66" y="248"/>
      <point x="59" y="220"/>
      <point x="59" y="193" type="curve" smooth="yes"/>
      <point x="59" y="63"/>
      <point x="146" y="-10"/>
    </contour>
  </outline>
</glyph>
<glyph name="Zen-georgian" format="2">
  <advance width="623"/>
  <unicode hex="1C96"/>
  <outline>
    <contour>
      <point x="333" y="-10" type="curve" smooth="yes"/>
      <point x="484" y="-10"/>
      <point x="558" y="96"/>
      <point x="558" y="231" type="curve" smooth="yes"/>
      <point x="558" y="353"/>
      <point x="498" y="473"/>
      <point x="337" y="473" type="curve" smooth="yes"/>
      <point x="323" y="473"/>
      <point x="315" y="472"/>
      <point x="306" y="470" type="curve"/>
      <point x="306" y="471" type="line"/>
      <point x="337" y="490"/>
      <point x="354" y="529"/>
      <point x="354" y="583" type="curve" smooth="yes"/>
      <point x="354" y="664"/>
      <point x="291" y="724"/>
      <point x="199" y="724" type="curve" smooth="yes"/>
      <point x="119" y="724"/>
      <point x="44" y="670"/>
      <point x="44" y="576" type="curve" smooth="yes"/>
      <point x="44" y="484"/>
      <point x="112" y="431"/>
      <point x="193" y="430" type="curve"/>
      <point x="193" y="429" type="line"/>
      <point x="125" y="378"/>
      <point x="105" y="310"/>
      <point x="105" y="231" type="curve" smooth="yes"/>
      <point x="105" y="94"/>
      <point x="178" y="-10"/>
    </contour>
    <contour>
      <point x="333" y="15" type="curve" smooth="yes"/>
      <point x="191" y="15"/>
      <point x="132" y="111"/>
      <point x="132" y="231" type="curve" smooth="yes"/>
      <point x="132" y="362"/>
      <point x="200" y="448"/>
      <point x="332" y="448" type="curve" smooth="yes"/>
      <point x="479" y="448"/>
      <point x="531" y="346"/>
      <point x="531" y="231" type="curve" smooth="yes"/>
      <point x="531" y="112"/>
      <point x="471" y="15"/>
    </contour>
    <contour>
      <point x="199" y="450" type="curve" smooth="yes"/>
      <point x="128" y="450"/>
      <point x="70" y="498"/>
      <point x="70" y="576" type="curve" smooth="yes"/>
      <point x="70" y="654"/>
      <point x="128" y="700"/>
      <point x="199" y="700" type="curve" smooth="yes"/>
      <point x="280" y="700"/>
      <point x="328" y="654"/>
      <point x="328" y="575" type="curve" smooth="yes"/>
      <point x="328" y="495"/>
      <point x="272" y="450"/>
    </contour>
  </outline>
</glyph>
<glyph name="Tan-georgian" format="2">
  <advance width="957"/>
  <unicode hex="1C97"/>
  <outline>
    <contour>
      <point x="682" y="724" type="curve" smooth="yes"/>
      <point x="600" y="724"/>
      <point x="524" y="676"/>
      <point x="506" y="574" type="curve"/>
      <point x="504" y="574" type="line"/>
      <point x="471" y="676"/>
      <point x="403" y="724"/>
      <point x="303" y="724" type="curve" smooth="yes"/>
      <point x="148" y="724"/>
      <point x="71" y="608"/>
      <point x="71" y="357" type="curve" smooth="yes"/>
      <point x="71" y="109"/>
      <point x="146" y="-10"/>
      <point x="303" y="-10" type="curve" smooth="yes"/>
      <point x="458" y="-10"/>
      <point x="535" y="106"/>
      <point x="535" y="357" type="curve" smooth="yes"/>
      <point x="535" y="447"/>
      <point x="526" y="486"/>
      <point x="526" y="527" type="curve"/>
      <point x="526" y="652"/>
      <point x="607" y="699"/>
      <point x="680" y="699" type="curve" smooth="yes"/>
      <point x="775" y="699"/>
      <point x="859" y="622"/>
      <point x="859" y="417" type="curve" smooth="yes"/>
      <point x="859" y="247"/>
      <point x="826" y="121"/>
      <point x="768" y="0" type="curve"/>
      <point x="796" y="0" type="line"/>
      <point x="854" y="118"/>
      <point x="886" y="245"/>
      <point x="886" y="417" type="curve" smooth="yes"/>
      <point x="886" y="637"/>
      <point x="791" y="724"/>
    </contour>
    <contour>
      <point x="303" y="15" type="curve" smooth="yes"/>
      <point x="166" y="15"/>
      <point x="98" y="121"/>
      <point x="98" y="357" type="curve" smooth="yes"/>
      <point x="98" y="589"/>
      <point x="164" y="699"/>
      <point x="303" y="699" type="curve" smooth="yes"/>
      <point x="440" y="699"/>
      <point x="508" y="593"/>
      <point x="508" y="357" type="curve" smooth="yes"/>
      <point x="508" y="125"/>
      <point x="442" y="15"/>
    </contour>
  </outline>
</glyph>
<glyph name="In-georgian" format="2">
  <advance width="606"/>
  <unicode hex="1C98"/>
  <guideline x="71" y="556" angle="90"/>
  <anchor x="303" y="714" name="top"/>
  <outline>
    <contour>
      <point x="145" y="0" type="curve"/>
      <point x="172" y="0" type="line"/>
      <point x="131" y="101"/>
      <point x="98" y="225"/>
      <point x="98" y="407" type="curve" smooth="yes"/>
      <point x="98" y="612"/>
      <point x="181" y="699"/>
      <point x="303" y="699" type="curve" smooth="yes"/>
      <point x="425" y="699"/>
      <point x="508" y="612"/>
      <point x="508" y="407" type="curve" smooth="yes"/>
      <point x="508" y="225"/>
      <point x="475" y="101"/>
      <point x="434" y="0" type="curve"/>
      <point x="461" y="0" type="line"/>
      <point x="502" y="98"/>
      <point x="535" y="219"/>
      <point x="535" y="407" type="curve" smooth="yes"/>
      <point x="535" y="627"/>
      <point x="441" y="724"/>
      <point x="303" y="724" type="curve" smooth="yes"/>
      <point x="165" y="724"/>
      <point x="71" y="627"/>
      <point x="71" y="407" type="curve" smooth="yes"/>
      <point x="71" y="219"/>
      <point x="104" y="98"/>
    </contour>
  </outline>
</glyph>
<glyph name="Kan-georgian" format="2">
  <advance width="562"/>
  <unicode hex="1C99"/>
  <outline>
    <contour>
      <point x="273" y="-10" type="curve" smooth="yes"/>
      <point x="436" y="-10"/>
      <point x="503" y="86"/>
      <point x="503" y="202" type="curve" smooth="yes"/>
      <point x="503" y="321"/>
      <point x="435" y="393"/>
      <point x="349" y="405" type="curve"/>
      <point x="349" y="406" type="line"/>
      <point x="433" y="420"/>
      <point x="479" y="476"/>
      <point x="479" y="560" type="curve" smooth="yes"/>
      <point x="479" y="643"/>
      <point x="420" y="724"/>
      <point x="293" y="724" type="curve"/>
      <point x="293" y="699" type="line"/>
      <point x="399" y="699"/>
      <point x="453" y="635"/>
      <point x="453" y="560" type="curve" smooth="yes"/>
      <point x="453" y="470"/>
      <point x="390" y="418"/>
      <point x="292" y="418" type="curve" smooth="yes"/>
      <point x="236" y="418" type="line"/>
      <point x="236" y="394" type="line"/>
      <point x="283" y="394" type="line" smooth="yes"/>
      <point x="399" y="394"/>
      <point x="476" y="329"/>
      <point x="476" y="202" type="curve" smooth="yes"/>
      <point x="476" y="102"/>
      <point x="416" y="14"/>
      <point x="273" y="14" type="curve" smooth="yes"/>
      <point x="162" y="14"/>
      <point x="80" y="77"/>
      <point x="80" y="193" type="curve" smooth="yes"/>
      <point x="80" y="221"/>
      <point x="88" y="251"/>
      <point x="96" y="274" type="curve"/>
      <point x="71" y="274" type="line"/>
      <point x="61" y="248"/>
      <point x="54" y="220"/>
      <point x="54" y="193" type="curve" smooth="yes"/>
      <point x="54" y="63"/>
      <point x="141" y="-10"/>
    </contour>
  </outline>
</glyph>
<glyph name="Las-georgian" format="2">
  <advance width="1084"/>
  <unicode hex="1C9A"/>
  <outline>
    <contour>
      <point x="733" y="1" type="curve"/>
      <point x="759" y="0" type="line"/>
      <point x="737" y="139"/>
      <point x="553" y="165"/>
      <point x="428" y="182" type="curve" smooth="yes"/>
      <point x="246" y="207"/>
      <point x="92" y="291"/>
      <point x="92" y="507" type="curve" smooth="yes"/>
      <point x="92" y="627"/>
      <point x="143" y="699"/>
      <point x="244" y="699" type="curve" smooth="yes"/>
      <point x="335" y="699"/>
      <point x="379" y="639"/>
      <point x="379" y="534" type="curve" smooth="yes"/>
      <point x="379" y="396" type="line"/>
      <point x="405" y="396" type="line"/>
      <point x="405" y="534" type="line" smooth="yes"/>
      <point x="405" y="639"/>
      <point x="452" y="699"/>
      <point x="542" y="699" type="curve" smooth="yes"/>
      <point x="632" y="699"/>
      <point x="679" y="638"/>
      <point x="679" y="534" type="curve" smooth="yes"/>
      <point x="679" y="396" type="line"/>
      <point x="705" y="396" type="line"/>
      <point x="705" y="534" type="line" smooth="yes"/>
      <point x="705" y="638"/>
      <point x="748" y="699"/>
      <point x="839" y="699" type="curve" smooth="yes"/>
      <point x="940" y="699"/>
      <point x="992" y="627"/>
      <point x="992" y="487" type="curve" smooth="yes"/>
      <point x="992" y="409"/>
      <point x="976" y="346"/>
      <point x="948" y="280" type="curve"/>
      <point x="972" y="271" type="line"/>
      <point x="1001" y="338"/>
      <point x="1019" y="403"/>
      <point x="1019" y="487" type="curve" smooth="yes"/>
      <point x="1019" y="643"/>
      <point x="953" y="724"/>
      <point x="842" y="724" type="curve" smooth="yes"/>
      <point x="764" y="724"/>
      <point x="704" y="682"/>
      <point x="693" y="601" type="curve"/>
      <point x="691" y="601" type="line"/>
      <point x="677" y="682"/>
      <point x="617" y="724"/>
      <point x="542" y="724" type="curve" smooth="yes"/>
      <point x="467" y="724"/>
      <point x="407" y="683"/>
      <point x="394" y="601" type="curve"/>
      <point x="392" y="601" type="line"/>
      <point x="381" y="682"/>
      <point x="319" y="724"/>
      <point x="241" y="724" type="curve" smooth="yes"/>
      <point x="130" y="724"/>
      <point x="65" y="643"/>
      <point x="65" y="507" type="curve" smooth="yes"/>
      <point x="65" y="281"/>
      <point x="227" y="193"/>
      <point x="374" y="173" type="curve"/>
      <point x="374" y="171" type="line"/>
      <point x="319" y="174"/>
      <point x="243" y="150"/>
      <point x="208" y="134" type="curve"/>
      <point x="219" y="112" type="line"/>
      <point x="258" y="131"/>
      <point x="326" y="153"/>
      <point x="401" y="153" type="curve" smooth="yes"/>
      <point x="514" y="153"/>
      <point x="715" y="122"/>
    </contour>
  </outline>
</glyph>
<glyph name="Man-georgian" format="2">
  <advance width="611"/>
  <unicode hex="1C9B"/>
  <outline>
    <contour>
      <point x="293" y="-9" type="curve" smooth="yes"/>
      <point x="438" y="-9"/>
      <point x="517" y="73"/>
      <point x="517" y="237" type="curve" smooth="yes"/>
      <point x="517" y="531" type="line" smooth="yes"/>
      <point x="517" y="667"/>
      <point x="419" y="724"/>
      <point x="302" y="724" type="curve" smooth="yes"/>
      <point x="190" y="724"/>
      <point x="90" y="665"/>
      <point x="90" y="560" type="curve" smooth="yes"/>
      <point x="90" y="554"/>
      <point x="90" y="551"/>
      <point x="91" y="543" type="curve"/>
      <point x="117" y="543" type="line"/>
      <point x="116" y="552"/>
      <point x="116" y="553"/>
      <point x="116" y="557" type="curve" smooth="yes"/>
      <point x="116" y="657"/>
      <point x="207" y="699"/>
      <point x="302" y="699" type="curve" smooth="yes"/>
      <point x="407" y="699"/>
      <point x="491" y="649"/>
      <point x="491" y="527" type="curve" smooth="yes"/>
      <point x="491" y="484" type="line" smooth="yes"/>
      <point x="491" y="452"/>
      <point x="492" y="402"/>
      <point x="493" y="373" type="curve"/>
      <point x="491" y="373" type="line"/>
      <point x="467" y="444"/>
      <point x="398" y="497"/>
      <point x="292" y="497" type="curve" smooth="yes"/>
      <point x="157" y="497"/>
      <point x="65" y="408"/>
      <point x="65" y="250" type="curve" smooth="yes"/>
      <point x="65" y="88"/>
      <point x="142" y="-9"/>
    </contour>
    <contour>
      <point x="293" y="15" type="curve" smooth="yes"/>
      <point x="163" y="15"/>
      <point x="92" y="101"/>
      <point x="92" y="250" type="curve" smooth="yes"/>
      <point x="92" y="394"/>
      <point x="173" y="472"/>
      <point x="291" y="472" type="curve" smooth="yes"/>
      <point x="422" y="472"/>
      <point x="491" y="397"/>
      <point x="491" y="256" type="curve" smooth="yes"/>
      <point x="491" y="237" type="line" smooth="yes"/>
      <point x="491" y="90"/>
      <point x="423" y="15"/>
    </contour>
  </outline>
</glyph>
<glyph name="On-georgian" format="2">
  <advance width="872"/>
  <unicode hex="1C9D"/>
  <anchor x="436" y="714" name="top"/>
  <outline>
    <contour>
      <point x="161" y="0" type="curve"/>
      <point x="189" y="0" type="line"/>
      <point x="131" y="121"/>
      <point x="98" y="249"/>
      <point x="98" y="417" type="curve" smooth="yes"/>
      <point x="98" y="621"/>
      <point x="179" y="699"/>
      <point x="272" y="699" type="curve" smooth="yes"/>
      <point x="342" y="699"/>
      <point x="423" y="652"/>
      <point x="423" y="497" type="curve" smooth="yes"/>
      <point x="423" y="209" type="line"/>
      <point x="450" y="209" type="line"/>
      <point x="450" y="497" type="line" smooth="yes"/>
      <point x="450" y="652"/>
      <point x="531" y="699"/>
      <point x="600" y="699" type="curve" smooth="yes"/>
      <point x="695" y="699"/>
      <point x="774" y="622"/>
      <point x="774" y="417" type="curve" smooth="yes"/>
      <point x="774" y="247"/>
      <point x="741" y="121"/>
      <point x="683" y="0" type="curve"/>
      <point x="711" y="0" type="line"/>
      <point x="769" y="118"/>
      <point x="801" y="245"/>
      <point x="801" y="417" type="curve" smooth="yes"/>
      <point x="801" y="637"/>
      <point x="711" y="724"/>
      <point x="602" y="724" type="curve" smooth="yes"/>
      <point x="544" y="724"/>
      <point x="455" y="690"/>
      <point x="437" y="578" type="curve"/>
      <point x="435" y="578" type="line"/>
      <point x="417" y="695"/>
      <point x="331" y="724"/>
      <point x="270" y="724" type="curve" smooth="yes"/>
      <point x="163" y="724"/>
      <point x="71" y="636"/>
      <point x="71" y="417" type="curve" smooth="yes"/>
      <point x="71" y="247"/>
      <point x="103" y="118"/>
    </contour>
  </outline>
</glyph>
<glyph name="Par-georgian" format="2">
  <advance width="573"/>
  <unicode hex="1C9E"/>
  <outline>
    <contour>
      <point x="280" y="-10" type="curve" smooth="yes"/>
      <point x="442" y="-10"/>
      <point x="508" y="88"/>
      <point x="508" y="197" type="curve" smooth="yes"/>
      <point x="508" y="323"/>
      <point x="415" y="376"/>
      <point x="362" y="385" type="curve"/>
      <point x="362" y="387" type="line"/>
      <point x="415" y="395"/>
      <point x="473" y="426"/>
      <point x="473" y="499" type="curve" smooth="yes"/>
      <point x="473" y="566"/>
      <point x="433" y="602"/>
      <point x="386" y="628" type="curve" smooth="yes"/>
      <point x="339" y="654"/>
      <point x="296" y="678"/>
      <point x="296" y="714" type="curve"/>
      <point x="270" y="714" type="line"/>
      <point x="270" y="665"/>
      <point x="319" y="638"/>
      <point x="371" y="609" type="curve" smooth="yes"/>
      <point x="414" y="585"/>
      <point x="446" y="554"/>
      <point x="446" y="499" type="curve" smooth="yes"/>
      <point x="446" y="427"/>
      <point x="375" y="399"/>
      <point x="292" y="399" type="curve" smooth="yes"/>
      <point x="221" y="399" type="line"/>
      <point x="221" y="375" type="line"/>
      <point x="292" y="375" type="line" smooth="yes"/>
      <point x="375" y="375"/>
      <point x="481" y="321"/>
      <point x="481" y="197" type="curve" smooth="yes"/>
      <point x="481" y="104"/>
      <point x="422" y="15"/>
      <point x="280" y="15" type="curve" smooth="yes"/>
      <point x="167" y="15"/>
      <point x="85" y="77"/>
      <point x="85" y="193" type="curve" smooth="yes"/>
      <point x="85" y="221"/>
      <point x="93" y="251"/>
      <point x="101" y="274" type="curve"/>
      <point x="76" y="274" type="line"/>
      <point x="66" y="248"/>
      <point x="59" y="220"/>
      <point x="59" y="193" type="curve" smooth="yes"/>
      <point x="59" y="63"/>
      <point x="146" y="-10"/>
    </contour>
  </outline>
</glyph>
<glyph name="Zhar-georgian" format="2">
  <advance width="622"/>
  <unicode hex="1C9F"/>
  <outline>
    <contour>
      <point x="304" y="-10" type="curve" smooth="yes"/>
      <point x="462" y="-10"/>
      <point x="523" y="91"/>
      <point x="523" y="226" type="curve" smooth="yes"/>
      <point x="523" y="714" type="line"/>
      <point x="503" y="714" type="line"/>
      <point x="411" y="675"/>
      <point x="292" y="651"/>
      <point x="187" y="641" type="curve"/>
      <point x="187" y="617" type="line"/>
      <point x="251" y="612"/>
      <point x="305" y="579"/>
      <point x="305" y="508" type="curve" smooth="yes"/>
      <point x="305" y="444"/>
      <point x="266" y="401"/>
      <point x="192" y="401" type="curve" smooth="yes"/>
      <point x="121" y="401"/>
      <point x="81" y="442"/>
      <point x="81" y="490" type="curve" smooth="yes"/>
      <point x="81" y="499"/>
      <point x="82" y="509"/>
      <point x="84" y="519" type="curve"/>
      <point x="59" y="519" type="line"/>
      <point x="57" y="511"/>
      <point x="55" y="499"/>
      <point x="55" y="489" type="curve" smooth="yes"/>
      <point x="55" y="429"/>
      <point x="104" y="377"/>
      <point x="192" y="377" type="curve" smooth="yes"/>
      <point x="282" y="377"/>
      <point x="331" y="433"/>
      <point x="331" y="508" type="curve" smooth="yes"/>
      <point x="331" y="575"/>
      <point x="288" y="614"/>
      <point x="242" y="625" type="curve"/>
      <point x="242" y="626" type="line"/>
      <point x="329" y="636"/>
      <point x="423" y="658"/>
      <point x="497" y="687" type="curve"/>
      <point x="497" y="226" type="line" smooth="yes"/>
      <point x="497" y="106"/>
      <point x="442" y="15"/>
      <point x="304" y="15" type="curve" smooth="yes"/>
      <point x="186" y="15"/>
      <point x="104" y="77"/>
      <point x="104" y="193" type="curve" smooth="yes"/>
      <point x="104" y="221"/>
      <point x="112" y="251"/>
      <point x="120" y="274" type="curve"/>
      <point x="95" y="274" type="line"/>
      <point x="85" y="248"/>
      <point x="78" y="220"/>
      <point x="78" y="193" type="curve" smooth="yes"/>
      <point x="78" y="63"/>
      <point x="165" y="-10"/>
    </contour>
  </outline>
</glyph>
<glyph name="Rae-georgian" format="2">
  <advance width="794"/>
  <unicode hex="1CA0"/>
  <outline>
    <contour>
      <point x="122" y="0" type="curve"/>
      <point x="149" y="0" type="line"/>
      <point x="114" y="86"/>
      <point x="92" y="165"/>
      <point x="92" y="269" type="curve" smooth="yes"/>
      <point x="92" y="407"/>
      <point x="148" y="480"/>
      <point x="250" y="480" type="curve" smooth="yes"/>
      <point x="330" y="480"/>
      <point x="384" y="420"/>
      <point x="384" y="315" type="curve" smooth="yes"/>
      <point x="384" y="168" type="line"/>
      <point x="410" y="168" type="line"/>
      <point x="410" y="315" type="line" smooth="yes"/>
      <point x="410" y="420"/>
      <point x="458" y="480"/>
      <point x="547" y="480" type="curve" smooth="yes"/>
      <point x="646" y="480"/>
      <point x="702" y="407"/>
      <point x="702" y="269" type="curve" smooth="yes"/>
      <point x="702" y="162"/>
      <point x="678" y="81"/>
      <point x="645" y="0" type="curve"/>
      <point x="672" y="0" type="line"/>
      <point x="704" y="79"/>
      <point x="729" y="161"/>
      <point x="729" y="269" type="curve" smooth="yes"/>
      <point x="729" y="430"/>
      <point x="653" y="505"/>
      <point x="550" y="505" type="curve" smooth="yes"/>
      <point x="476" y="505"/>
      <point x="413" y="466"/>
      <point x="398" y="385" type="curve"/>
      <point x="396" y="385" type="line"/>
      <point x="381" y="466"/>
      <point x="317" y="505"/>
      <point x="248" y="505" type="curve" smooth="yes"/>
      <point x="196" y="505"/>
      <point x="120" y="480"/>
      <point x="93" y="400" type="curve"/>
      <point x="91" y="400" type="line"/>
      <point x="106" y="515"/>
      <point x="154" y="581"/>
      <point x="216" y="622" type="curve" smooth="yes"/>
      <point x="260" y="651"/>
      <point x="343" y="677"/>
      <point x="526" y="700" type="curve"/>
      <point x="523" y="724" type="line"/>
      <point x="355" y="703"/>
      <point x="252" y="676"/>
      <point x="197" y="639" type="curve" smooth="yes"/>
      <point x="91" y="568"/>
      <point x="65" y="450"/>
      <point x="65" y="298" type="curve" smooth="yes"/>
      <point x="65" y="166"/>
      <point x="83" y="95"/>
    </contour>
  </outline>
</glyph>
<glyph name="San-georgian" format="2">
  <advance width="611"/>
  <unicode hex="1CA1"/>
  <outline>
    <contour>
      <point x="322" y="-10" type="curve" smooth="yes"/>
      <point x="469" y="-10"/>
      <point x="546" y="89"/>
      <point x="546" y="204" type="curve" smooth="yes"/>
      <point x="546" y="272"/>
      <point x="521" y="318"/>
      <point x="489" y="356" type="curve" smooth="yes"/>
      <point x="453" y="399"/>
      <point x="424" y="438"/>
      <point x="424" y="495" type="curve"/>
      <point x="398" y="495" type="line"/>
      <point x="398" y="425"/>
      <point x="435" y="382"/>
      <point x="467" y="343" type="curve" smooth="yes"/>
      <point x="495" y="309"/>
      <point x="519" y="268"/>
      <point x="519" y="204" type="curve" smooth="yes"/>
      <point x="519" y="101"/>
      <point x="448" y="15"/>
      <point x="322" y="15" type="curve" smooth="yes"/>
      <point x="188" y="15"/>
      <point x="120" y="90"/>
      <point x="120" y="237" type="curve" smooth="yes"/>
      <point x="120" y="714" type="line"/>
      <point x="94" y="714" type="line"/>
      <point x="94" y="237" type="line" smooth="yes"/>
      <point x="94" y="73"/>
      <point x="173" y="-10"/>
    </contour>
  </outline>
</glyph>
<glyph name="Tar-georgian" format="2">
  <advance width="781"/>
  <unicode hex="1CA2"/>
  <outline>
    <contour>
      <point x="390" y="-10" type="curve" smooth="yes"/>
      <point x="599" y="-10"/>
      <point x="716" y="130"/>
      <point x="716" y="346" type="curve" smooth="yes"/>
      <point x="716" y="567"/>
      <point x="602" y="693"/>
      <point x="402" y="702" type="curve"/>
      <point x="403" y="714"/>
      <point x="403" y="729"/>
      <point x="403" y="735" type="curve"/>
      <point x="403" y="747" type="line"/>
      <point x="377" y="747" type="line"/>
      <point x="377" y="736" type="line"/>
      <point x="377" y="729"/>
      <point x="377" y="714"/>
      <point x="378" y="702" type="curve"/>
      <point x="178" y="693"/>
      <point x="65" y="567"/>
      <point x="65" y="347" type="curve" smooth="yes"/>
      <point x="65" y="130"/>
      <point x="184" y="-10"/>
    </contour>
    <contour>
      <point x="391" y="15" type="curve" smooth="yes"/>
      <point x="198" y="15"/>
      <point x="92" y="146"/>
      <point x="92" y="347" type="curve" smooth="yes"/>
      <point x="92" y="541"/>
      <point x="186" y="668"/>
      <point x="378" y="678" type="curve"/>
      <point x="378" y="655"/>
      <point x="377" y="632"/>
      <point x="377" y="609" type="curve"/>
      <point x="377" y="331" type="line"/>
      <point x="403" y="331" type="line"/>
      <point x="403" y="612" type="line"/>
      <point x="403" y="634"/>
      <point x="402" y="656"/>
      <point x="402" y="678" type="curve"/>
      <point x="594" y="668"/>
      <point x="689" y="541"/>
      <point x="689" y="346" type="curve" smooth="yes"/>
      <point x="689" y="144"/>
      <point x="586" y="15"/>
    </contour>
  </outline>
</glyph>
<glyph name="Un-georgian" format="2">
  <advance width="605"/>
  <unicode hex="1CA3"/>
  <anchor x="296" y="714" name="top"/>
  <outline>
    <contour>
      <point x="291" y="-10" type="curve" smooth="yes"/>
      <point x="448" y="-10"/>
      <point x="511" y="91"/>
      <point x="511" y="226" type="curve" smooth="yes"/>
      <point x="511" y="570" type="line" smooth="yes"/>
      <point x="511" y="670"/>
      <point x="457" y="724"/>
      <point x="363" y="724" type="curve" smooth="yes"/>
      <point x="299" y="724"/>
      <point x="249" y="687"/>
      <point x="237" y="629" type="curve"/>
      <point x="235" y="629" type="line"/>
      <point x="221" y="687"/>
      <point x="182" y="719"/>
      <point x="105" y="719" type="curve" smooth="yes"/>
      <point x="55" y="719" type="line"/>
      <point x="55" y="695" type="line"/>
      <point x="104" y="695" type="line" smooth="yes"/>
      <point x="190" y="695"/>
      <point x="222" y="643"/>
      <point x="222" y="570" type="curve" smooth="yes"/>
      <point x="222" y="452" type="line"/>
      <point x="248" y="452" type="line"/>
      <point x="248" y="570" type="line" smooth="yes"/>
      <point x="248" y="644"/>
      <point x="289" y="699"/>
      <point x="363" y="699" type="curve" smooth="yes"/>
      <point x="445" y="699"/>
      <point x="485" y="649"/>
      <point x="485" y="570" type="curve" smooth="yes"/>
      <point x="485" y="226" type="line" smooth="yes"/>
      <point x="485" y="106"/>
      <point x="427" y="15"/>
      <point x="291" y="15" type="curve" smooth="yes"/>
      <point x="169" y="15"/>
      <point x="91" y="81"/>
      <point x="91" y="201" type="curve" smooth="yes"/>
      <point x="91" y="239"/>
      <point x="98" y="270"/>
      <point x="105" y="292" type="curve"/>
      <point x="79" y="292" type="line"/>
      <point x="71" y="269"/>
      <point x="65" y="240"/>
      <point x="65" y="200" type="curve" smooth="yes"/>
      <point x="65" y="67"/>
      <point x="149" y="-10"/>
    </contour>
  </outline>
</glyph>
<glyph name="Phar-georgian" format="2">
  <advance width="869"/>
  <unicode hex="1CA4"/>
  <outline>
    <contour>
      <point x="526" y="-9" type="curve" smooth="yes"/>
      <point x="721" y="-9"/>
      <point x="787" y="87"/>
      <point x="787" y="185" type="curve" smooth="yes"/>
      <point x="787" y="265"/>
      <point x="747" y="328"/>
      <point x="665" y="344" type="curve"/>
      <point x="665" y="346" type="line"/>
      <point x="747" y="361"/>
      <point x="804" y="429"/>
      <point x="804" y="529" type="curve" smooth="yes"/>
      <point x="804" y="643"/>
      <point x="752" y="720"/>
      <point x="630" y="720" type="curve" smooth="yes"/>
      <point x="546" y="720"/>
      <point x="472" y="667"/>
      <point x="469" y="563" type="curve"/>
      <point x="468" y="563" type="line"/>
      <point x="457" y="650"/>
      <point x="386" y="720"/>
      <point x="276" y="720" type="curve" smooth="yes"/>
      <point x="140" y="720"/>
      <point x="65" y="615"/>
      <point x="65" y="481" type="curve" smooth="yes"/>
      <point x="65" y="361"/>
      <point x="136" y="253"/>
      <point x="277" y="253" type="curve" smooth="yes"/>
      <point x="413" y="253"/>
      <point x="486" y="362"/>
      <point x="486" y="481" type="curve" smooth="yes"/>
      <point x="486" y="512" type="line" smooth="yes"/>
      <point x="486" y="624"/>
      <point x="529" y="695"/>
      <point x="630" y="695" type="curve" smooth="yes"/>
      <point x="742" y="695"/>
      <point x="777" y="626"/>
      <point x="777" y="528" type="curve" smooth="yes"/>
      <point x="777" y="425"/>
      <point x="715" y="358"/>
      <point x="612" y="358" type="curve" smooth="yes"/>
      <point x="583" y="358" type="line"/>
      <point x="583" y="333" type="line"/>
      <point x="604" y="333" type="line" smooth="yes"/>
      <point x="715" y="333"/>
      <point x="760" y="268"/>
      <point x="760" y="185" type="curve" smooth="yes"/>
      <point x="760" y="102"/>
      <point x="701" y="15"/>
      <point x="526" y="15" type="curve" smooth="yes"/>
      <point x="360" y="15"/>
      <point x="306" y="84"/>
      <point x="306" y="155" type="curve" smooth="yes"/>
      <point x="306" y="164"/>
      <point x="307" y="174"/>
      <point x="309" y="184" type="curve"/>
      <point x="284" y="184" type="line"/>
      <point x="282" y="172"/>
      <point x="280" y="162"/>
      <point x="280" y="150" type="curve" smooth="yes"/>
      <point x="280" y="70"/>
      <point x="346" y="-9"/>
    </contour>
    <contour>
      <point x="277" y="277" type="curve" smooth="yes"/>
      <point x="153" y="277"/>
      <point x="92" y="371"/>
      <point x="92" y="481" type="curve" smooth="yes"/>
      <point x="92" y="603"/>
      <point x="156" y="695"/>
      <point x="276" y="695" type="curve" smooth="yes"/>
      <point x="399" y="695"/>
      <point x="459" y="603"/>
      <point x="459" y="481" type="curve" smooth="yes"/>
      <point x="459" y="373"/>
      <point x="396" y="277"/>
    </contour>
  </outline>
</glyph>
<glyph name="Khar-georgian" format="2">
  <advance width="599"/>
  <unicode hex="1CA5"/>
  <outline>
    <contour>
      <point x="282" y="-10" type="curve" smooth="yes"/>
      <point x="439" y="-10"/>
      <point x="505" y="91"/>
      <point x="505" y="228" type="curve" smooth="yes"/>
      <point x="505" y="714" type="line"/>
      <point x="479" y="714" type="line"/>
      <point x="479" y="605" type="line" smooth="yes"/>
      <point x="479" y="572"/>
      <point x="480" y="522"/>
      <point x="481" y="493" type="curve"/>
      <point x="479" y="493" type="line"/>
      <point x="455" y="565"/>
      <point x="382" y="617"/>
      <point x="290" y="617" type="curve" smooth="yes"/>
      <point x="162" y="617"/>
      <point x="88" y="538"/>
      <point x="88" y="440" type="curve" smooth="yes"/>
      <point x="88" y="425"/>
      <point x="90" y="412"/>
      <point x="92" y="401" type="curve"/>
      <point x="117" y="401" type="line"/>
      <point x="115" y="412"/>
      <point x="114" y="425"/>
      <point x="114" y="440" type="curve" smooth="yes"/>
      <point x="114" y="526"/>
      <point x="180" y="592"/>
      <point x="289" y="592" type="curve" smooth="yes"/>
      <point x="400" y="592"/>
      <point x="479" y="517"/>
      <point x="479" y="367" type="curve" smooth="yes"/>
      <point x="479" y="228" type="line" smooth="yes"/>
      <point x="479" y="106"/>
      <point x="419" y="15"/>
      <point x="282" y="15" type="curve" smooth="yes"/>
      <point x="167" y="15"/>
      <point x="85" y="77"/>
      <point x="85" y="193" type="curve" smooth="yes"/>
      <point x="85" y="221"/>
      <point x="93" y="251"/>
      <point x="101" y="274" type="curve"/>
      <point x="76" y="274" type="line"/>
      <point x="66" y="248"/>
      <point x="59" y="220"/>
      <point x="59" y="193" type="curve" smooth="yes"/>
      <point x="59" y="63"/>
      <point x="146" y="-10"/>
    </contour>
  </outline>
</glyph>
<glyph name="Ghan-georgian" format="2">
  <advance width="794"/>
  <unicode hex="1CA6"/>
  <outline>
    <contour>
      <point x="538" y="0" type="curve"/>
      <point x="564" y="0" type="line"/>
      <point x="550" y="100"/>
      <point x="474" y="145"/>
      <point x="370" y="171" type="curve" smooth="yes"/>
      <point x="226" y="207"/>
      <point x="92" y="291"/>
      <point x="92" y="484" type="curve" smooth="yes"/>
      <point x="92" y="620"/>
      <point x="143" y="699"/>
      <point x="250" y="699" type="curve" smooth="yes"/>
      <point x="340" y="699"/>
      <point x="384" y="633"/>
      <point x="384" y="540" type="curve" smooth="yes"/>
      <point x="384" y="395" type="line"/>
      <point x="410" y="395" type="line"/>
      <point x="410" y="540" type="line" smooth="yes"/>
      <point x="410" y="633"/>
      <point x="448" y="699"/>
      <point x="547" y="699" type="curve" smooth="yes"/>
      <point x="655" y="699"/>
      <point x="702" y="621"/>
      <point x="702" y="484" type="curve" smooth="yes"/>
      <point x="702" y="408"/>
      <point x="686" y="346"/>
      <point x="658" y="282" type="curve"/>
      <point x="682" y="273" type="line"/>
      <point x="711" y="338"/>
      <point x="729" y="403"/>
      <point x="729" y="484" type="curve" smooth="yes"/>
      <point x="729" y="637"/>
      <point x="663" y="724"/>
      <point x="550" y="724" type="curve" smooth="yes"/>
      <point x="466" y="724"/>
      <point x="412" y="679"/>
      <point x="398" y="609" type="curve"/>
      <point x="396" y="609" type="line"/>
      <point x="384" y="679"/>
      <point x="325" y="724"/>
      <point x="247" y="724" type="curve" smooth="yes"/>
      <point x="129" y="724"/>
      <point x="65" y="636"/>
      <point x="65" y="485" type="curve"/>
      <point x="65" y="338"/>
      <point x="140" y="212"/>
      <point x="310" y="166" type="curve"/>
      <point x="310" y="164" type="line"/>
      <point x="240" y="164"/>
      <point x="192" y="152"/>
      <point x="152" y="132" type="curve"/>
      <point x="163" y="110" type="line"/>
      <point x="207" y="132"/>
      <point x="263" y="143"/>
      <point x="328" y="143" type="curve" smooth="yes"/>
      <point x="438" y="143"/>
      <point x="524" y="89"/>
    </contour>
  </outline>
</glyph>
<glyph name="Qar-georgian" format="2">
  <advance width="605"/>
  <unicode hex="1CA7"/>
  <outline>
    <contour>
      <point x="288" y="-10" type="curve" smooth="yes"/>
      <point x="445" y="-10"/>
      <point x="511" y="91"/>
      <point x="511" y="228" type="curve" smooth="yes"/>
      <point x="511" y="714" type="line"/>
      <point x="485" y="714" type="line"/>
      <point x="485" y="555" type="line" smooth="yes"/>
      <point x="485" y="420"/>
      <point x="378" y="357"/>
      <point x="280" y="357" type="curve" smooth="yes"/>
      <point x="172" y="357"/>
      <point x="95" y="422"/>
      <point x="95" y="548" type="curve" smooth="yes"/>
      <point x="95" y="616"/>
      <point x="104" y="661"/>
      <point x="128" y="714" type="curve"/>
      <point x="102" y="714" type="line"/>
      <point x="80" y="665"/>
      <point x="68" y="620"/>
      <point x="68" y="548" type="curve" smooth="yes"/>
      <point x="68" y="408"/>
      <point x="155" y="331"/>
      <point x="280" y="331" type="curve" smooth="yes"/>
      <point x="376" y="331"/>
      <point x="455" y="380"/>
      <point x="486" y="457" type="curve"/>
      <point x="488" y="457" type="line"/>
      <point x="487" y="436"/>
      <point x="485" y="377"/>
      <point x="485" y="337" type="curve" smooth="yes"/>
      <point x="485" y="228" type="line" smooth="yes"/>
      <point x="485" y="106"/>
      <point x="425" y="15"/>
      <point x="288" y="15" type="curve" smooth="yes"/>
      <point x="173" y="15"/>
      <point x="91" y="77"/>
      <point x="91" y="193" type="curve" smooth="yes"/>
      <point x="91" y="221"/>
      <point x="99" y="251"/>
      <point x="107" y="274" type="curve"/>
      <point x="82" y="274" type="line"/>
      <point x="72" y="248"/>
      <point x="65" y="220"/>
      <point x="65" y="193" type="curve" smooth="yes"/>
      <point x="65" y="63"/>
      <point x="152" y="-10"/>
    </contour>
  </outline>
</glyph>
